{
.appVersion = "1286";
copyright = "Copyright \\(c\\) 2021 by Ruby Ku. All rights reserved.";
customParameters = (
{
name = vendorID;
value = "    ";
},
{
name = panose;
value = (
0,
0,
0,
0,
0,
0,
0,
0,
0,
0
);
},
{
name = unicodeRanges;
value = (
0,
1,
2,
3,
29,
31,
36,
45,
79
);
},
{
name = fsType;
value = (
2
);
},
{
name = glyphOrder;
value = (
.notdef,
uni0000,
uni000D,
space,
A,
AE,
B,
C,
D,
Eth,
E,
F,
G,
H,
I,
J,
K,
L,
M,
N,
O,
P,
Thorn,
Q,
R,
S,
T,
U,
V,
W,
X,
Y,
Ygrave,
Z,
uni01F7,
a,
aacute,
amacron,
ae,
aeacute,
b,
c,
d,
eth,
e,
f,
g,
h,
i,
iacute,
imacron,
j,
k,
l,
m,
n,
o,
oacute,
omacron,
p,
thorn,
q,
r,
s,
t,
u,
uacute,
umacron,
uni01BF,
v,
w,
x,
y,
z,
a.fina,
e.fina,
f.fina,
g.fina,
h.fina,
k.fina,
l.fina,
m.fina,
n.fina,
r.fina,
s.fina,
t.fina,
u.fina,
t_t_e.fina,
A_two.liga,
A_m_e_n.liga,
C_two.liga,
Eth_two.liga,
E_two.liga,
E_x_e_t_e_r.liga,
F_i_n_i_t.liga,
G_two.liga,
H_two.liga,
J_two.liga,
M_two.liga,
U_two.liga,
W_two.liga,
X_two.liga,
Y_two.liga,
a_two.liga,
a_e.liga,
a_e_c.liga,
a_e_f.liga,
a_e_g.liga,
a_e_m.liga,
a_e_n.liga,
a_e_r.liga,
a_e_s.liga,
a_e_t.liga,
b_b.liga,
d_two.liga,
d_d_two.liga,
eth_eth.liga,
e_a.liga,
e_c.liga,
e_f.liga,
e_f_f.liga,
e_f_t.liga,
e_g.liga,
e_g_a.liga,
e_g_e_n.liga,
e_m.liga,
e_n.liga,
e_o.liga,
e_r.liga,
e_s.liga,
e_t.liga,
e_t_a.liga,
e_t_e_r.liga,
e_t_u.liga,
e_x.liga,
f_f.liga,
f_h.liga,
g_two.liga,
g_a.liga,
g_e.liga,
g_e_c.liga,
g_e_f.liga,
g_e_f_f.liga,
g_e_m.liga,
g_e_n.liga,
g_e_o.liga,
g_e_r.liga,
g_e_s.liga,
g_o.liga,
g_u.liga,
j_two.liga,
o_o.liga,
thorn_ae_t.liga,
thorn_thorn.liga,
s_two.liga,
s_p.liga,
s_s.liga,
s_t.liga,
s_t_a.liga,
s_t_r.liga,
s_w.liga,
t_a.liga,
t_e.liga,
t_e_a.liga,
t_e_m.liga,
t_e_n.liga,
t_e_o.liga,
t_e_r.liga,
t_e_s.liga,
t_o.liga,
t_t.liga,
t_t_e.liga,
t_u.liga,
v_two.liga,
w_two.liga,
y_two.liga,
y_three.liga,
zero,
one,
two,
three,
four,
five,
six,
seven,
eight,
nine,
uni2160,
uni2161,
uni2162,
uni2163,
uni2164,
uni2165,
uni2166,
uni2167,
uni2168,
uni2169,
uni216A,

glyphs = (
{
glyphname = .notdef;
layers = (
{
hints = (
{
horizontal = 1;
place = "{-512, 88}";
type = Stem;
},
{
horizontal = 1;
place = "{-80, 54}";
type = Stem;
},
{
horizontal = 1;
place = "{402, 72}";
type = Stem;
},
{
horizontal = 1;
place = "{579, 85}";
type = Stem;
},
{
horizontal = 1;
place = "{859, 54}";
type = Stem;
},
{
place = "{90, 72}";
type = Stem;
},
{
place = "{217, 72}";
type = Stem;
},
{
place = "{339, 79}";
type = Stem;
},
{
place = "{442, 54}";
type = Stem;
},
{
place = "{537, 41}";
type = Stem;
},
{
place = "{625, 74}";
type = Stem;
},
{
place = "{837, 47}";
type = Stem;
}
);
layerId = "59B4545D-7A36-483A-A414-D3C0872518C3";
paths = (
{
closed = 1;
nodes = (
"640 -514 OFFCURVE",
"869 -300 OFFCURVE",
"883 -153 CURVE SMOOTH",
"884 -144 OFFCURVE",
"884 -135 OFFCURVE",
"884 -127 CURVE SMOOTH",
"884 -54 OFFCURVE",
"848 -26 OFFCURVE",
"804 -26 CURVE SMOOTH",
"754 -26 OFFCURVE",
"693 -63 OFFCURVE",
"665 -106 CURVE SMOOTH",
"617 -183 OFFCURVE",
"592 -213 OFFCURVE",
"583 -213 CURVE SMOOTH",
"579 -213 OFFCURVE",
"578 -209 OFFCURVE",
"578 -203 CURVE SMOOTH",
"578 -160 OFFCURVE",
"647 18 OFFCURVE",
"655 88 CURVE SMOOTH",
"668 181 OFFCURVE",
"687 272 OFFCURVE",
"693 363 CURVE SMOOTH",
"696 407 OFFCURVE",
"699 461 OFFCURVE",
"699 517 CURVE SMOOTH",
"699 701 OFFCURVE",
"665 913 OFFCURVE",
"485 913 CURVE SMOOTH",
"457 913 OFFCURVE",
"426 908 OFFCURVE",
"390 897 CURVE SMOOTH",
"216 842 OFFCURVE",
"89 699 OFFCURVE",
"90 511 CURVE SMOOTH",
"91 430 OFFCURVE",
"133 402 OFFCURVE",
"186 402 CURVE SMOOTH",
"234 402 OFFCURVE",
"291 426 OFFCURVE",
"331 458 CURVE SMOOTH",
"413 522 LINE SMOOTH",
"418 526 OFFCURVE",
"422 527 OFFCURVE",
"426 527 CURVE SMOOTH",
"437 527 OFFCURVE",
"442 508 OFFCURVE",
"442 474 CURVE SMOOTH",
"442 335 OFFCURVE",
"360 -40 OFFCURVE",
"343 -213 CURVE SMOOTH",
"341 -236 OFFCURVE",
"339 -260 OFFCURVE",
"339 -284 CURVE SMOOTH",
"339 -399 OFFCURVE",
"374 -508 OFFCURVE",
"513 -512 CURVE SMOOTH"
);
},
{
closed = 1;
nodes = (
"561 -424 OFFCURVE",
"541 -420 OFFCURVE",
"523 -411 CURVE SMOOTH",
"438 -366 OFFCURVE",
"418 -267 OFFCURVE",
"418 -171 CURVE SMOOTH",
"418 -127 OFFCURVE",
"422 -84 OFFCURVE",
"426 -47 CURVE SMOOTH",
"438 54 OFFCURVE",
"455 154 OFFCURVE",
"465 255 CURVE SMOOTH",
"475 352 OFFCURVE",
"469 456 OFFCURVE",
"489 551 CURVE SMOOTH",
"492 564 OFFCURVE",
"496 591 OFFCURVE",
"496 616 CURVE SMOOTH",
"496 647 OFFCURVE",
"489 676 OFFCURVE",
"465 676 CURVE SMOOTH",
"458 676 OFFCURVE",
"450 674 OFFCURVE",
"440 669 CURVE SMOOTH",
"381 638 OFFCURVE",
"413 590 OFFCURVE",
"335 517 CURVE SMOOTH",
"303 487 OFFCURVE",
"273 474 OFFCURVE",
"248 474 CURVE SMOOTH",
"196 474 OFFCURVE",
"162 528 OFFCURVE",
"162 595 CURVE SMOOTH",
"162 729 OFFCURVE",
"301 859 OFFCURVE",
"433 859 CURVE SMOOTH",
"613 859 OFFCURVE",
"625 629 OFFCURVE",
"625 497 CURVE SMOOTH",
"625 392 OFFCURVE",
"613 285 OFFCURVE",
"601 188 CURVE SMOOTH",
"588 78 OFFCURVE",
"556 -7 OFFCURVE",
"544 -118 CURVE SMOOTH",
"543 -133 OFFCURVE",
"537 -169 OFFCURVE",
"537 -204 CURVE SMOOTH",
"537 -239 OFFCURVE",
"543 -272 OFFCURVE",
"565 -278 CURVE SMOOTH",
"602 -288 OFFCURVE",
"718 -80 OFFCURVE",
"787 -80 CURVE SMOOTH",
"823 -80 OFFCURVE",
"837 -141 OFFCURVE",
"837 -171 CURVE SMOOTH",
"837 -239 OFFCURVE",
"779 -305 OFFCURVE",
"738 -353 CURVE SMOOTH",
"703 -394 OFFCURVE",
"640 -424 OFFCURVE",
"582 -424 CURVE SMOOTH"
);
},
{
closed = 1;
nodes = (
"270 579 OFFCURVE",
"289 609 OFFCURVE",
"289 633 CURVE SMOOTH",
"289 644 OFFCURVE",
"286 654 OFFCURVE",
"277 660 CURVE SMOOTH",
"273 663 OFFCURVE",
"268 664 OFFCURVE",
"262 664 CURVE SMOOTH",
"235 664 OFFCURVE",
"217 639 OFFCURVE",
"217 614 CURVE SMOOTH",
"217 603 OFFCURVE",
"221 592 OFFCURVE",
"230 585 CURVE SMOOTH",
"236 581 OFFCURVE",
"242 579 OFFCURVE",
"247 579 CURVE SMOOTH"
);
},
{
closed = 1;
nodes = (
"710 -298 OFFCURVE",
"725 -292 OFFCURVE",
"734 -282 CURVE SMOOTH",
"756 -257 OFFCURVE",
"771 -252 OFFCURVE",
"771 -217 CURVE SMOOTH",
"771 -209 OFFCURVE",
"762 -205 OFFCURVE",
"750 -205 CURVE SMOOTH",
"738 -205 OFFCURVE",
"724 -209 OFFCURVE",
"713 -218 CURVE SMOOTH",
"685 -240 OFFCURVE",
"662 -275 OFFCURVE",
"671 -287 CURVE SMOOTH",
"677 -295 OFFCURVE",
"686 -298 OFFCURVE",
"696 -298 CURVE SMOOTH"
);
}
);
width = 974;
}
);
note = .notdef;
unicode = "0022,0023,0024";
},
{
glyphname = A;
layers = (
{
hints = (
{
horizontal = 1;
place = "{11, 13}";
type = Stem;
},
{
horizontal = 1;
place = "{453, 62}";
type = Stem;
},
{
horizontal = 1;
place = "{945, 9}";
type = Stem;
},
{
place = "{-26, 803}";
type = Stem;
},
{
horizontal = 1;
place = "{950, -20}";
target = down;
type = TopGhost;
},
{
horizontal = 1;
place = "{954, -20}";
target = down;
type = TopGhost;
}
);
layerId = "59B4545D-7A36-483A-A414-D3C0872518C3";
paths = (
{
closed = 1;
nodes = (
"587 6 OFFCURVE",
"605 6 OFFCURVE",
"638 9 CURVE SMOOTH",
"660 11 OFFCURVE",
"681 11 OFFCURVE",
"706 11 CURVE SMOOTH",
"755 11 OFFCURVE",
"777 13 OFFCURVE",
"777 15 CURVE SMOOTH",
"777 17 OFFCURVE",
"763 20 OFFCURVE",
"738 24 CURVE SMOOTH",
"692 31 OFFCURVE",
"639 216 OFFCURVE",
"584 428 CURVE SMOOTH",
"588 414 OFFCURVE",
"461 871 OFFCURVE",
"460 933 CURVE SMOOTH",
"459 945 OFFCURVE",
"492 944 OFFCURVE",
"497 945 CURVE SMOOTH",
"525 950 OFFCURVE",
"464 950 OFFCURVE",
"451 950 CURVE SMOOTH",
"406 950 OFFCURVE",
"368 954 OFFCURVE",
"323 954 CURVE SMOOTH",
"279 954 LINE SMOOTH",
"249 954 OFFCURVE",
"203 955 OFFCURVE",
"190 940 CURVE SMOOTH",
"184 933 OFFCURVE",
"250 944 OFFCURVE",
"255 940 CURVE SMOOTH",
"261 935 OFFCURVE",
"263 927 OFFCURVE",
"263 918 CURVE SMOOTH",
"263 899 OFFCURVE",
"254 876 OFFCURVE",
"252 865 CURVE SMOOTH",
"237 785 OFFCURVE",
"226 706 OFFCURVE",
"206 629 CURVE SMOOTH",
"181 531 OFFCURVE",
"155 430 OFFCURVE",
"135 330 CURVE SMOOTH",
"103 178 OFFCURVE",
"85 99 OFFCURVE",
"67 62 CURVE SMOOTH",
"47 21 OFFCURVE",
"24 24 OFFCURVE",
"-16 17 CURVE SMOOTH",
"-23 15 OFFCURVE",
"-26 13 OFFCURVE",
"-26 13 CURVE",
"-26 8 OFFCURVE",
"31 13 OFFCURVE",
"46 13 CURVE SMOOTH",
"105 13 OFFCURVE",
"138 7 OFFCURVE",
"164 7 CURVE SMOOTH",
"171 7 OFFCURVE",
"177 8 OFFCURVE",
"183 9 CURVE SMOOTH",
"195 11 OFFCURVE",
"225 9 OFFCURVE",
"243 9 CURVE SMOOTH",
"251 9 OFFCURVE",
"257 10 OFFCURVE",
"257 11 CURVE",
"249 14 LINE SMOOTH",
"233 19 OFFCURVE",
"180 18 OFFCURVE",
"180 35 CURVE SMOOTH",
"180 111 LINE SMOOTH",
"180 167 OFFCURVE",
"191 216 OFFCURVE",
"195 264 CURVE SMOOTH",
"200 320 OFFCURVE",
"207 381 OFFCURVE",
"216 436 CURVE SMOOTH",
"218 450 OFFCURVE",
"219 453 OFFCURVE",
"254 453 CURVE SMOOTH",
"313 453 OFFCURVE",
"373 453 OFFCURVE",
"432 453 CURVE SMOOTH",
"454 453 OFFCURVE",
"473 451 OFFCURVE",
"478 439 CURVE SMOOTH",
"503 363 OFFCURVE",
"527 286 OFFCURVE",
"547 208 CURVE SMOOTH",
"571 116 OFFCURVE",
"580 63 OFFCURVE",
"580 37 CURVE SMOOTH",
"580 17 OFFCURVE",
"536 13 OFFCURVE",
"536 9 CURVE SMOOTH",
"536 8 OFFCURVE",
"539 7 OFFCURVE",
"546 6 CURVE"
);
},
{
closed = 1;
nodes = (
"370 513 OFFCURVE",
"318 515 OFFCURVE",
"257 515 CURVE SMOOTH",
"239 515 OFFCURVE",
"233 515 OFFCURVE",
"233 524 CURVE SMOOTH",
"233 534 OFFCURVE",
"241 556 OFFCURVE",
"251 603 CURVE SMOOTH",
"258 636 OFFCURVE",
"264 672 OFFCURVE",
"270 708 CURVE SMOOTH",
"280 766 OFFCURVE",
"285 824 OFFCURVE",
"301 891 CURVE SMOOTH",
"307 916 OFFCURVE",
"314 942 OFFCURVE",
"322 937 CURVE SMOOTH",
"335 929 OFFCURVE",
"361 870 OFFCURVE",
"366 852 CURVE SMOOTH",
"382 793 OFFCURVE",
"406 736 OFFCURVE",
"422 677 CURVE SMOOTH",
"430 646 OFFCURVE",
"456 550 OFFCURVE",
"461 525 CURVE SMOOTH",
"463 515 OFFCURVE",
"442 513 OFFCURVE",
"406 513 CURVE SMOOTH"
);
}
);
width = 739;
}
);
note = A;
unicode = 0041;
},
{
glyphname = AE;
layers = (
{
hints = (
{
horizontal = 1;
place = "{17, 39}";
type = Stem;
},
{
horizontal = 1;
place = "{351, 48}";
type = Stem;
},
{
horizontal = 1;
place = "{477, 37}";
type = Stem;
},
{
horizontal = 1;
place = "{932, 38}";
type = Stem;
},
{
place = "{489, 116}";
type = Stem;
},
{
place = "{982, 8}";
type = Stem;
},
{
place = "{490, 111}";
type = Stem;
},
{
horizontal = 1;
place = "{926, 44}";
type = Stem;
},
{
horizontal = 1;
place = "{14, 10}";
type = Stem;
},
{
horizontal = 1;
place = "{959, -20}";
target = down;
type = TopGhost;
}
);
layerId = "59B4545D-7A36-483A-A414-D3C0872518C3";
paths = (
{
closed = 1;
nodes = (
"970 -37 OFFCURVE",
"988 59 OFFCURVE",
"991 83 CURVE SMOOTH",
"997 126 OFFCURVE",
"1018 246 OFFCURVE",
"1012 246 CURVE SMOOTH",
"1011 246 OFFCURVE",
"1009 244 OFFCURVE",
"1007 238 CURVE SMOOTH",
"987 182 OFFCURVE",
"992 139 OFFCURVE",
"934 109 CURVE SMOOTH",
"846 63 OFFCURVE",
"741 56 OFFCURVE",
"643 56 CURVE SMOOTH",
"616 56 OFFCURVE",
"611 61 OFFCURVE",
"610 83 CURVE SMOOTH",
"605 239 OFFCURVE",
"601 346 OFFCURVE",
"601 413 CURVE SMOOTH",
"601 438 OFFCURVE",
"602 458 OFFCURVE",
"603 473 CURVE SMOOTH",
"603 476 OFFCURVE",
"614 477 OFFCURVE",
"632 477 CURVE SMOOTH",
"709 477 OFFCURVE",
"912 455 OFFCURVE",
"940 447 CURVE SMOOTH",
"964 440 OFFCURVE",
"965 427 OFFCURVE",
"970 406 CURVE SMOOTH",
"972 398 OFFCURVE",
"971 361 OFFCURVE",
"981 364 CURVE SMOOTH",
"987 366 OFFCURVE",
"990 435 OFFCURVE",
"990 493 CURVE SMOOTH",
"990 534 OFFCURVE",
"989 568 OFFCURVE",
"986 568 CURVE SMOOTH",
"982 568 OFFCURVE",
"982 564 OFFCURVE",
"982 559 CURVE SMOOTH",
"982 552 LINE SMOOTH",
"982 537 OFFCURVE",
"978 516 OFFCURVE",
"927 516 CURVE SMOOTH",
"866 516 OFFCURVE",
"813 513 OFFCURVE",
"744 514 CURVE SMOOTH",
"656 514 LINE SMOOTH",
"599 514 OFFCURVE",
"606 516 OFFCURVE",
"606 542 CURVE SMOOTH",
"606 556 OFFCURVE",
"605 578 OFFCURVE",
"605 614 CURVE SMOOTH",
"605 696 OFFCURVE",
"609 853 OFFCURVE",
"639 925 CURVE SMOOTH",
"641 930 OFFCURVE",
"655 932 OFFCURVE",
"674 932 CURVE SMOOTH",
"708 932 OFFCURVE",
"757 926 OFFCURVE",
"767 926 CURVE SMOOTH",
"808 926 OFFCURVE",
"852 924 OFFCURVE",
"890 904 CURVE SMOOTH",
"941 876 OFFCURVE",
"960 862 OFFCURVE",
"992 811 CURVE SMOOTH",
"995 806 OFFCURVE",
"997 804 OFFCURVE",
"998 804 CURVE SMOOTH",
"1001 804 OFFCURVE",
"1001 810 OFFCURVE",
"1001 824 CURVE SMOOTH",
"1001 843 OFFCURVE",
"1000 875 OFFCURVE",
"1000 923 CURVE SMOOTH",
"1000 934 OFFCURVE",
"998 969 OFFCURVE",
"996 980 CURVE SMOOTH",
"995 984 OFFCURVE",
"993 986 OFFCURVE",
"990 986 CURVE SMOOTH",
"984 986 OFFCURVE",
"975 980 OFFCURVE",
"963 977 CURVE SMOOTH",
"940 970 OFFCURVE",
"923 969 OFFCURVE",
"908 969 CURVE SMOOTH",
"892 969 OFFCURVE",
"878 971 OFFCURVE",
"858 970 CURVE SMOOTH",
"720 966 LINE SMOOTH",
"625 963 OFFCURVE",
"532 964 OFFCURVE",
"437 959 CURVE SMOOTH",
"261 949 LINE SMOOTH",
"238 948 OFFCURVE",
"230 944 OFFCURVE",
"230 939 CURVE SMOOTH",
"230 931 OFFCURVE",
"250 921 OFFCURVE",
"260 917 CURVE SMOOTH",
"276 911 OFFCURVE",
"284 906 OFFCURVE",
"295 893 CURVE",
"297 889 OFFCURVE",
"297 883 OFFCURVE",
"297 877 CURVE SMOOTH",
"297 836 OFFCURVE",
"267 755 OFFCURVE",
"251 691 CURVE SMOOTH",
"190 452 LINE SMOOTH",
"140 259 OFFCURVE",
"86 34 OFFCURVE",
"43 24 CURVE",
"16 21 OFFCURVE",
"4 19 OFFCURVE",
"4 17 CURVE SMOOTH",
"4 15 OFFCURVE",
"17 14 OFFCURVE",
"38 14 CURVE SMOOTH",
"50 14 OFFCURVE",
"64 14 OFFCURVE",
"81 15 CURVE SMOOTH",
"103 16 OFFCURVE",
"166 16 OFFCURVE",
"211 16 CURVE SMOOTH",
"240 16 OFFCURVE",
"262 16 OFFCURVE",
"262 17 CURVE",
"262 17 OFFCURVE",
"257 18 OFFCURVE",
"246 19 CURVE SMOOTH",
"209 22 OFFCURVE",
"200 28 OFFCURVE",
"192 59 CURVE SMOOTH",
"188 74 OFFCURVE",
"186 89 OFFCURVE",
"186 104 CURVE SMOOTH",
"186 153 OFFCURVE",
"204 203 OFFCURVE",
"216 250 CURVE SMOOTH",
"228 295 OFFCURVE",
"233 337 OFFCURVE",
"246 385 CURVE SMOOTH",
"251 404 OFFCURVE",
"258 441 OFFCURVE",
"266 432 CURVE SMOOTH",
"302 398 LINE SMOOTH",
"324 378 OFFCURVE",
"348 352 OFFCURVE",
"378 351 CURVE SMOOTH",
"399 350 OFFCURVE",
"477 454 OFFCURVE",
"484 468 CURVE SMOOTH",
"488 477 OFFCURVE",
"490 452 OFFCURVE",
"490 415 CURVE SMOOTH",
"490 353 OFFCURVE",
"486 256 OFFCURVE",
"484 208 CURVE SMOOTH",
"482 158 OFFCURVE",
"478 40 OFFCURVE",
"451 28 CURVE SMOOTH",
"447 26 OFFCURVE",
"444 24 OFFCURVE",
"444 22 CURVE SMOOTH",
"444 17 OFFCURVE",
"467 14 OFFCURVE",
"523 14 CURVE SMOOTH",
"541 14 OFFCURVE",
"563 14 OFFCURVE",
"589 15 CURVE SMOOTH",
"632 16 OFFCURVE",
"678 17 OFFCURVE",
"722 17 CURVE SMOOTH",
"848 17 OFFCURVE",
"964 11 OFFCURVE",
"964 -6 CURVE SMOOTH",
"964 -21 LINE SMOOTH",
"963 -32 OFFCURVE",
"964 -37 OFFCURVE",
"965 -37 CURVE SMOOTH"
);
},
{
closed = 1;
nodes = (
"344 399 OFFCURVE",
"296 555 OFFCURVE",
"296 598 CURVE SMOOTH",
"296 602 OFFCURVE",
"296 605 OFFCURVE",
"297 608 CURVE SMOOTH",
"310 661 OFFCURVE",
"324 709 OFFCURVE",
"346 758 CURVE SMOOTH",
"406 895 OFFCURVE",
"437 940 OFFCURVE",
"454 940 CURVE SMOOTH",
"466 940 OFFCURVE",
"471 916 OFFCURVE",
"480 869 CURVE",
"488 776 OFFCURVE",
"489 706 OFFCURVE",
"489 626 CURVE SMOOTH",
"489 533 LINE SMOOTH",
"489 496 OFFCURVE",
"450 452 OFFCURVE",
"427 427 CURVE SMOOTH",
"415 414 OFFCURVE",
"400 399 OFFCURVE",
"386 399 CURVE SMOOTH"
);
}
);
width = 1080;
}
);
note = AE;
unicode = 00C6;
},
{
glyphname = B;
layers = (
{
hints = (
{
horizontal = 1;
place = "{8, 23}";
type = Stem;
},
{
horizontal = 1;
place = "{550, 42}";
type = Stem;
},
{
horizontal = 1;
place = "{931, 34}";
type = Stem;
},
{
place = "{110, 101}";
type = Stem;
},
{
place = "{569, 119}";
type = Stem;
},
{
horizontal = 1;
place = "{9, 49}";
type = Stem;
},
{
horizontal = 1;
place = "{931, 32}";
type = Stem;
},
{
place = "{509, 73}";
type = Stem;
}
);
layerId = "59B4545D-7A36-483A-A414-D3C0872518C3";
paths = (
{
closed = 1;
nodes = (
"25 8 LINE SMOOTH",
"69 8 OFFCURVE",
"121 9 OFFCURVE",
"137 9 CURVE SMOOTH",
"213 9 LINE SMOOTH",
"263 9 OFFCURVE",
"322 10 OFFCURVE",
"372 14 CURVE SMOOTH",
"533 25 OFFCURVE",
"688 125 OFFCURVE",
"688 301 CURVE SMOOTH",
"688 368 OFFCURVE",
"663 433 OFFCURVE",
"613 483 CURVE SMOOTH",
"559 537 OFFCURVE",
"438 588 OFFCURVE",
"456 588 CURVE SMOOTH",
"464 588 OFFCURVE",
"515 617 OFFCURVE",
"556 680 CURVE SMOOTH",
"574 708 OFFCURVE",
"582 746 OFFCURVE",
"582 782 CURVE SMOOTH",
"582 820 OFFCURVE",
"573 856 OFFCURVE",
"558 876 CURVE SMOOTH",
"507 947 OFFCURVE",
"416 963 OFFCURVE",
"340 963 CURVE SMOOTH",
"261 963 OFFCURVE",
"213 965 OFFCURVE",
"163 965 CURVE SMOOTH",
"131 965 OFFCURVE",
"97 964 OFFCURVE",
"54 962 CURVE SMOOTH",
"38 961 OFFCURVE",
"30 964 OFFCURVE",
"13 959 CURVE SMOOTH",
"-9 953 OFFCURVE",
"44 946 OFFCURVE",
"85 938 CURVE SMOOTH",
"108 933 OFFCURVE",
"112 882 OFFCURVE",
"112 839 CURVE SMOOTH",
"112 819 OFFCURVE",
"111 801 OFFCURVE",
"111 790 CURVE SMOOTH",
"110 223 LINE",
"110 182 LINE SMOOTH",
"110 123 OFFCURVE",
"107 42 OFFCURVE",
"72 31 CURVE SMOOTH",
"60 27 OFFCURVE",
"-30 22 OFFCURVE",
"-6 8 CURVE"
);
},
{
closed = 1;
nodes = (
"214 592 OFFCURVE",
"211 600 OFFCURVE",
"211 637 CURVE SMOOTH",
"212 685 OFFCURVE",
"212 867 OFFCURVE",
"234 914 CURVE SMOOTH",
"240 926 OFFCURVE",
"253 931 OFFCURVE",
"271 931 CURVE SMOOTH",
"299 931 OFFCURVE",
"337 920 OFFCURVE",
"372 908 CURVE SMOOTH",
"449 883 OFFCURVE",
"509 816 OFFCURVE",
"509 737 CURVE SMOOTH",
"509 622 OFFCURVE",
"418 599 OFFCURVE",
"318 595 CURVE SMOOTH",
"284 594 OFFCURVE",
"261 592 OFFCURVE",
"245 592 CURVE SMOOTH"
);
},
{
closed = 1;
nodes = (
"215 61 OFFCURVE",
"211 70 OFFCURVE",
"211 101 CURVE SMOOTH",
"211 283 LINE SMOOTH",
"211 343 OFFCURVE",
"211 434 OFFCURVE",
"213 481 CURVE SMOOTH",
"214 501 OFFCURVE",
"212 540 OFFCURVE",
"227 545 CURVE",
"259 551 OFFCURVE",
"267 549 OFFCURVE",
"324 550 CURVE SMOOTH",
"336 550 OFFCURVE",
"347 551 OFFCURVE",
"358 551 CURVE SMOOTH",
"379 551 OFFCURVE",
"399 548 OFFCURVE",
"425 533 CURVE SMOOTH",
"543 463 OFFCURVE",
"569 368 OFFCURVE",
"569 270 CURVE SMOOTH",
"569 168 OFFCURVE",
"520 121 OFFCURVE",
"436 85 CURVE SMOOTH",
"385 63 OFFCURVE",
"332 56 OFFCURVE",
"249 58 CURVE"
);
}
);
width = 708;
}
);
note = B;
unicode = 0042;
},
{
glyphname = C;
layers = (
{
hints = (
{
horizontal = 1;
place = "{8, 46}";
type = Stem;
},
{
horizontal = 1;
place = "{-8, 21}";
target = up;
type = BottomGhost;
},
{
horizontal = 1;
place = "{920, 42}";
type = Stem;
},
{
place = "{20, 135}";
type = Stem;
},
{
horizontal = 1;
place = "{953, -20}";
target = down;
type = TopGhost;
}
);
layerId = "59B4545D-7A36-483A-A414-D3C0872518C3";
paths = (
{
closed = 1;
nodes = (
"730 -8 OFFCURVE",
"736 7 OFFCURVE",
"741 38 CURVE SMOOTH",
"754 112 OFFCURVE",
"767 250 OFFCURVE",
"767 309 CURVE SMOOTH",
"767 326 OFFCURVE",
"766 337 OFFCURVE",
"763 337 CURVE SMOOTH",
"761 337 OFFCURVE",
"758 329 OFFCURVE",
"753 308 CURVE SMOOTH",
"746 272 OFFCURVE",
"733 236 OFFCURVE",
"720 200 CURVE SMOOTH",
"691 118 OFFCURVE",
"659 58 OFFCURVE",
"526 54 CURVE SMOOTH",
"300 49 OFFCURVE",
"265 112 OFFCURVE",
"182 294 CURVE SMOOTH",
"161 342 OFFCURVE",
"155 396 OFFCURVE",
"155 451 CURVE SMOOTH",
"155 488 OFFCURVE",
"158 526 OFFCURVE",
"160 561 CURVE SMOOTH",
"167 676 OFFCURVE",
"198 776 OFFCURVE",
"274 836 CURVE SMOOTH",
"315 871 OFFCURVE",
"365 898 OFFCURVE",
"417 907 CURVE SMOOTH",
"458 914 OFFCURVE",
"499 920 OFFCURVE",
"537 920 CURVE SMOOTH",
"605 920 OFFCURVE",
"662 900 OFFCURVE",
"691 830 CURVE SMOOTH",
"728 741 OFFCURVE",
"721 701 OFFCURVE",
"721 694 CURVE SMOOTH",
"721 674 OFFCURVE",
"741 724 OFFCURVE",
"748 781 CURVE SMOOTH",
"751 806 OFFCURVE",
"752 851 OFFCURVE",
"752 897 CURVE SMOOTH",
"752 941 LINE",
"751 950 OFFCURVE",
"750 953 OFFCURVE",
"749 953 CURVE SMOOTH",
"747 953 OFFCURVE",
"743 935 OFFCURVE",
"728 935 CURVE SMOOTH",
"725 935 LINE",
"643 955 LINE",
"613 960 OFFCURVE",
"581 962 OFFCURVE",
"548 962 CURVE SMOOTH",
"430 962 OFFCURVE",
"303 931 OFFCURVE",
"213 863 CURVE SMOOTH",
"97 780 OFFCURVE",
"20 614 OFFCURVE",
"20 463 CURVE SMOOTH",
"20 351 OFFCURVE",
"73 208 OFFCURVE",
"153 131 CURVE SMOOTH",
"242 39 OFFCURVE",
"379 8 OFFCURVE",
"503 8 CURVE SMOOTH",
"559 8 LINE SMOOTH",
"598 8 OFFCURVE",
"650 16 OFFCURVE",
"713 33 CURVE SMOOTH",
"719 35 OFFCURVE",
"726 36 OFFCURVE",
"726 17 CURVE SMOOTH",
"726 14 OFFCURVE",
"725 10 OFFCURVE",
"725 5 CURVE SMOOTH",
"724 -3 OFFCURVE",
"725 -8 OFFCURVE",
"727 -8 CURVE SMOOTH"
);
}
);
width = 838;
}
);
note = C;
unicode = 0043;
},
{
glyphname = D;
layers = (
{
hints = (
{
horizontal = 1;
place = "{13, 44}";
type = Stem;
},
{
horizontal = 1;
place = "{923, 32}";
type = Stem;
},
{
place = "{131, 121}";
type = Stem;
},
{
place = "{696, 118}";
type = Stem;
},
{
horizontal = 1;
place = "{923, 35}";
type = Stem;
},
{
horizontal = 1;
place = "{924, 28}";
type = Stem;
}
);
layerId = "59B4545D-7A36-483A-A414-D3C0872518C3";
paths = (
{
closed = 1;
nodes = (
"535 11 OFFCURVE",
"760 141 OFFCURVE",
"801 362 CURVE SMOOTH",
"811 416 OFFCURVE",
"815 472 OFFCURVE",
"814 527 CURVE SMOOTH",
"812 617 OFFCURVE",
"773 704 OFFCURVE",
"724 787 CURVE SMOOTH",
"671 877 OFFCURVE",
"540 955 OFFCURVE",
"423 955 CURVE SMOOTH",
"358 955 OFFCURVE",
"310 958 OFFCURVE",
"265 958 CURVE SMOOTH",
"236 958 OFFCURVE",
"209 957 OFFCURVE",
"179 953 CURVE SMOOTH",
"166 952 OFFCURVE",
"153 951 OFFCURVE",
"140 951 CURVE SMOOTH",
"123 952 LINE SMOOTH",
"88 952 OFFCURVE",
"56 946 OFFCURVE",
"22 935 CURVE",
"15 931 OFFCURVE",
"12 928 OFFCURVE",
"12 926 CURVE SMOOTH",
"12 923 OFFCURVE",
"17 922 OFFCURVE",
"26 922 CURVE SMOOTH",
"38 922 OFFCURVE",
"57 924 OFFCURVE",
"75 924 CURVE SMOOTH",
"99 924 OFFCURVE",
"121 921 OFFCURVE",
"123 907 CURVE SMOOTH",
"130 846 OFFCURVE",
"132 751 OFFCURVE",
"132 671 CURVE SMOOTH",
"132 636 OFFCURVE",
"131 603 OFFCURVE",
"131 577 CURVE SMOOTH",
"126 70 LINE SMOOTH",
"125 18 OFFCURVE",
"28 34 OFFCURVE",
"23 23 CURVE SMOOTH",
"19 14 OFFCURVE",
"44 12 OFFCURVE",
"82 12 CURVE SMOOTH",
"106 12 OFFCURVE",
"136 13 OFFCURVE",
"166 13 CURVE SMOOTH",
"240 13 OFFCURVE",
"285 11 OFFCURVE",
"323 11 CURVE SMOOTH"
);
},
{
closed = 1;
nodes = (
"325 57 OFFCURVE",
"312 57 OFFCURVE",
"298 59 CURVE SMOOTH",
"245 65 OFFCURVE",
"236 64 OFFCURVE",
"236 108 CURVE SMOOTH",
"236 124 OFFCURVE",
"237 146 OFFCURVE",
"238 176 CURVE SMOOTH",
"252 908 LINE SMOOTH",
"252 921 OFFCURVE",
"296 923 OFFCURVE",
"332 923 CURVE SMOOTH",
"353 923 OFFCURVE",
"372 922 OFFCURVE",
"377 922 CURVE SMOOTH",
"420 919 OFFCURVE",
"464 918 OFFCURVE",
"507 894 CURVE SMOOTH",
"631 825 OFFCURVE",
"672 693 OFFCURVE",
"688 568 CURVE SMOOTH",
"694 525 OFFCURVE",
"696 490 OFFCURVE",
"696 460 CURVE SMOOTH",
"696 401 OFFCURVE",
"686 357 OFFCURVE",
"666 301 CURVE SMOOTH",
"606 134 OFFCURVE",
"474 57 OFFCURVE",
"339 57 CURVE SMOOTH"
);
}
);
width = 834;
}
);
note = D;
unicode = 0044;
},
{
glyphname = Eth;
layers = (
{
hints = (
{
horizontal = 1;
place = "{14, 39}";
type = Stem;
},
{
horizontal = 1;
place = "{451, 48}";
type = Stem;
},
{
horizontal = 1;
place = "{917, 40}";
type = Stem;
},
{
place = "{239, 131}";
type = Stem;
},
{
place = "{559, 18}";
type = Stem;
},
{
place = "{804, 132}";
type = Stem;
},
{
horizontal = 1;
place = "{919, 27}";
type = Stem;
},
{
horizontal = 1;
place = "{457, 45}";
type = Stem;
}
);
layerId = "59B4545D-7A36-483A-A414-D3C0872518C3";
paths = (
{
closed = 1;
nodes = (
"166 8 OFFCURVE",
"191 9 OFFCURVE",
"214 10 CURVE SMOOTH",
"324 15 LINE SMOOTH",
"336 16 OFFCURVE",
"347 16 OFFCURVE",
"359 16 CURVE SMOOTH",
"368 16 OFFCURVE",
"377 16 OFFCURVE",
"385 16 CURVE SMOOTH",
"439 14 LINE SMOOTH",
"632 14 OFFCURVE",
"755 58 OFFCURVE",
"871 229 CURVE SMOOTH",
"916 295 OFFCURVE",
"936 381 OFFCURVE",
"936 470 CURVE SMOOTH",
"936 564 OFFCURVE",
"913 660 OFFCURVE",
"872 735 CURVE SMOOTH",
"811 849 OFFCURVE",
"706 935 OFFCURVE",
"581 950 CURVE SMOOTH",
"543 955 OFFCURVE",
"505 957 OFFCURVE",
"467 957 CURVE SMOOTH",
"402 957 OFFCURVE",
"337 951 OFFCURVE",
"271 947 CURVE SMOOTH",
"259 946 OFFCURVE",
"247 946 OFFCURVE",
"234 946 CURVE SMOOTH",
"196 946 LINE SMOOTH",
"181 946 OFFCURVE",
"166 946 OFFCURVE",
"151 944 CURVE SMOOTH",
"91 936 OFFCURVE",
"72 929 OFFCURVE",
"72 925 CURVE SMOOTH",
"72 921 OFFCURVE",
"84 919 OFFCURVE",
"95 919 CURVE SMOOTH",
"129 919 OFFCURVE",
"175 917 OFFCURVE",
"215 914 CURVE SMOOTH",
"242 911 OFFCURVE",
"238 821 OFFCURVE",
"239 781 CURVE SMOOTH",
"239 743 LINE SMOOTH",
"239 681 OFFCURVE",
"236 624 OFFCURVE",
"236 564 CURVE SMOOTH",
"236 542 OFFCURVE",
"236 520 OFFCURVE",
"237 499 CURVE",
"219 499 OFFCURVE",
"200 498 OFFCURVE",
"179 498 CURVE SMOOTH",
"169 498 OFFCURVE",
"155 497 OFFCURVE",
"140 497 CURVE SMOOTH",
"103 497 OFFCURVE",
"58 500 OFFCURVE",
"36 519 CURVE SMOOTH",
"15 535 OFFCURVE",
"21 566 OFFCURVE",
"12 589 CURVE SMOOTH",
"10 595 OFFCURVE",
"9 597 OFFCURVE",
"7 597 CURVE SMOOTH",
"1 597 OFFCURVE",
"0 549 OFFCURVE",
"0 499 CURVE SMOOTH",
"0 445 OFFCURVE",
"2 387 OFFCURVE",
"3 378 CURVE",
"5 372 OFFCURVE",
"6 369 OFFCURVE",
"8 369 CURVE SMOOTH",
"14 369 OFFCURVE",
"18 419 OFFCURVE",
"27 426 CURVE SMOOTH",
"55 446 OFFCURVE",
"94 448 OFFCURVE",
"121 449 CURVE SMOOTH",
"238 453 LINE",
"239 417 OFFCURVE",
"240 382 OFFCURVE",
"240 348 CURVE SMOOTH",
"240 332 OFFCURVE",
"240 317 OFFCURVE",
"239 302 CURVE SMOOTH",
"236 215 OFFCURVE",
"238 135 OFFCURVE",
"202 55 CURVE SMOOTH",
"183 13 OFFCURVE",
"156 39 OFFCURVE",
"104 19 CURVE",
"96 17 OFFCURVE",
"92 15 OFFCURVE",
"92 13 CURVE SMOOTH",
"92 10 OFFCURVE",
"115 8 OFFCURVE",
"145 8 CURVE SMOOTH"
);
},
{
closed = 1;
nodes = (
"351 53 OFFCURVE",
"351 65 OFFCURVE",
"352 160 CURVE SMOOTH",
"359 457 LINE",
"394 457 LINE SMOOTH",
"462 457 OFFCURVE",
"556 452 OFFCURVE",
"559 429 CURVE SMOOTH",
"563 392 OFFCURVE",
"566 373 OFFCURVE",
"569 373 CURVE SMOOTH",
"574 373 OFFCURVE",
"577 412 OFFCURVE",
"577 492 CURVE SMOOTH",
"577 599 LINE",
"575 607 OFFCURVE",
"573 610 OFFCURVE",
"572 610 CURVE SMOOTH",
"567 610 OFFCURVE",
"570 534 OFFCURVE",
"545 527 CURVE SMOOTH",
"495 511 OFFCURVE",
"456 505 OFFCURVE",
"360 502 CURVE",
"370 911 LINE SMOOTH",
"370 916 OFFCURVE",
"393 917 OFFCURVE",
"420 917 CURVE SMOOTH",
"457 917 OFFCURVE",
"501 915 OFFCURVE",
"508 914 CURVE SMOOTH",
"734 883 OFFCURVE",
"804 652 OFFCURVE",
"804 453 CURVE SMOOTH",
"804 392 OFFCURVE",
"798 331 OFFCURVE",
"785 274 CURVE SMOOTH",
"747 110 OFFCURVE",
"545 53 OFFCURVE",
"408 53 CURVE SMOOTH"
);
}
);
width = 960;
}
);
note = Eth;
unicode = 00D0;
},
{
glyphname = E;
layers = (
{
hints = (
{
horizontal = 1;
place = "{4, 48}";
type = Stem;
},
{
horizontal = 1;
place = "{1, 21}";
target = up;
type = BottomGhost;
},
{
horizontal = 1;
place = "{420, 83}";
type = Stem;
},
{
horizontal = 1;
place = "{924, 40}";
type = Stem;
},
{
place = "{16, 131}";
type = Stem;
},
{
place = "{722, 27}";
type = Stem;
},
{
place = "{720, 25}";
type = Stem;
},
{
place = "{732, 33}";
type = Stem;
},
{
horizontal = 1;
place = "{955, -20}";
target = down;
type = TopGhost;
}
);
layerId = "59B4545D-7A36-483A-A414-D3C0872518C3";
paths = (
{
closed = 1;
nodes = (
"733 1 OFFCURVE",
"746 45 OFFCURVE",
"749 111 CURVE SMOOTH",
"750 136 OFFCURVE",
"750 156 OFFCURVE",
"750 172 CURVE SMOOTH",
"750 213 OFFCURVE",
"748 228 OFFCURVE",
"745 228 CURVE SMOOTH",
"736 228 OFFCURVE",
"720 138 OFFCURVE",
"707 116 CURVE SMOOTH",
"686 80 OFFCURVE",
"600 52 OFFCURVE",
"498 52 CURVE SMOOTH",
"484 52 OFFCURVE",
"469 53 OFFCURVE",
"455 54 CURVE SMOOTH",
"277 68 OFFCURVE",
"173 224 OFFCURVE",
"149 409 CURVE SMOOTH",
"148 421 OFFCURVE",
"188 424 OFFCURVE",
"249 424 CURVE SMOOTH",
"320 424 OFFCURVE",
"417 420 OFFCURVE",
"507 420 CURVE SMOOTH",
"552 420 OFFCURVE",
"601 422 OFFCURVE",
"640 422 CURVE SMOOTH",
"684 422 OFFCURVE",
"716 419 OFFCURVE",
"718 406 CURVE SMOOTH",
"722 383 OFFCURVE",
"720 362 OFFCURVE",
"720 350 CURVE SMOOTH",
"720 342 OFFCURVE",
"721 338 OFFCURVE",
"726 341 CURVE SMOOTH",
"744 352 OFFCURVE",
"745 387 OFFCURVE",
"745 435 CURVE SMOOTH",
"745 538 OFFCURVE",
"754 559 OFFCURVE",
"756 584 CURVE SMOOTH",
"757 596 OFFCURVE",
"758 603 OFFCURVE",
"758 608 CURVE SMOOTH",
"758 613 OFFCURVE",
"757 615 OFFCURVE",
"756 615 CURVE SMOOTH",
"749 615 OFFCURVE",
"725 523 OFFCURVE",
"704 521 CURVE SMOOTH",
"620 515 OFFCURVE",
"491 506 OFFCURVE",
"407 505 CURVE SMOOTH",
"269 503 LINE SMOOTH",
"248 503 OFFCURVE",
"201 503 OFFCURVE",
"168 504 CURVE SMOOTH",
"149 505 OFFCURVE",
"146 509 OFFCURVE",
"146 522 CURVE SMOOTH",
"146 591 OFFCURVE",
"152 659 OFFCURVE",
"167 726 CURVE SMOOTH",
"186 811 OFFCURVE",
"273 902 OFFCURVE",
"376 916 CURVE SMOOTH",
"412 921 OFFCURVE",
"445 924 OFFCURVE",
"475 924 CURVE SMOOTH",
"556 924 OFFCURVE",
"616 901 OFFCURVE",
"678 836 CURVE SMOOTH",
"704 808 OFFCURVE",
"732 769 OFFCURVE",
"732 733 CURVE SMOOTH",
"732 698 OFFCURVE",
"745 670 OFFCURVE",
"752 670 CURVE SMOOTH",
"754 670 OFFCURVE",
"756 674 OFFCURVE",
"756 683 CURVE SMOOTH",
"756 686 OFFCURVE",
"765 835 OFFCURVE",
"765 911 CURVE SMOOTH",
"765 937 OFFCURVE",
"764 955 OFFCURVE",
"761 955 CURVE SMOOTH",
"758 955 OFFCURVE",
"755 944 OFFCURVE",
"750 917 CURVE SMOOTH",
"748 910 OFFCURVE",
"743 908 OFFCURVE",
"735 908 CURVE SMOOTH",
"703 908 OFFCURVE",
"629 951 OFFCURVE",
"589 957 CURVE SMOOTH",
"556 962 OFFCURVE",
"529 964 OFFCURVE",
"504 964 CURVE SMOOTH",
"457 964 OFFCURVE",
"419 957 OFFCURVE",
"372 948 CURVE SMOOTH",
"129 902 OFFCURVE",
"16 696 OFFCURVE",
"16 461 CURVE SMOOTH",
"16 204 OFFCURVE",
"170 4 OFFCURVE",
"441 4 CURVE SMOOTH",
"518 4 OFFCURVE",
"602 21 OFFCURVE",
"688 56 CURVE SMOOTH",
"696 59 OFFCURVE",
"704 62 OFFCURVE",
"709 62 CURVE SMOOTH",
"719 62 OFFCURVE",
"724 56 OFFCURVE",
"723 41 CURVE SMOOTH",
"722 32 OFFCURVE",
"722 24 OFFCURVE",
"722 18 CURVE SMOOTH",
"722 6 OFFCURVE",
"723 1 OFFCURVE",
"726 1 CURVE SMOOTH"
);
}
);
width = 817;
}
);
note = E;
unicode = 0045;
},
{
glyphname = F;
layers = (
{
hints = (
{
horizontal = 1;
place = "{3, 11}";
type = Stem;
},
{
horizontal = 1;
place = "{422, 42}";
type = Stem;
},
{
horizontal = 1;
place = "{920, 39}";
type = Stem;
},
{
place = "{124, 109}";
type = Stem;
},
{
place = "{548, 17}";
type = Stem;
},
{
horizontal = 1;
place = "{920, 36}";
type = Stem;
}
);
layerId = "59B4545D-7A36-483A-A414-D3C0872518C3";
paths = (
{
closed = 1;
nodes = (
"59 1 OFFCURVE",
"97 6 OFFCURVE",
"128 5 CURVE SMOOTH",
"189 4 LINE SMOOTH",
"205 4 OFFCURVE",
"235 3 OFFCURVE",
"264 3 CURVE SMOOTH",
"297 3 OFFCURVE",
"327 4 OFFCURVE",
"327 7 CURVE SMOOTH",
"327 8 OFFCURVE",
"317 11 OFFCURVE",
"292 14 CURVE SMOOTH",
"241 22 OFFCURVE",
"244 94 OFFCURVE",
"241 168 CURVE SMOOTH",
"239 212 OFFCURVE",
"238 239 OFFCURVE",
"238 278 CURVE SMOOTH",
"238 307 OFFCURVE",
"239 342 OFFCURVE",
"240 396 CURVE SMOOTH",
"241 424 OFFCURVE",
"273 422 OFFCURVE",
"303 422 CURVE SMOOTH",
"434 423 LINE SMOOTH",
"448 423 OFFCURVE",
"468 425 OFFCURVE",
"488 425 CURVE SMOOTH",
"534 425 OFFCURVE",
"549 415 OFFCURVE",
"553 368 CURVE SMOOTH",
"554 355 OFFCURVE",
"555 350 OFFCURVE",
"556 350 CURVE SMOOTH",
"561 350 OFFCURVE",
"562 453 OFFCURVE",
"563 466 CURVE SMOOTH",
"564 480 OFFCURVE",
"565 491 OFFCURVE",
"565 499 CURVE SMOOTH",
"565 510 OFFCURVE",
"564 515 OFFCURVE",
"562 515 CURVE SMOOTH",
"559 515 OFFCURVE",
"555 503 OFFCURVE",
"548 480 CURVE SMOOTH",
"545 468 OFFCURVE",
"497 464 OFFCURVE",
"441 464 CURVE SMOOTH",
"351 464 OFFCURVE",
"239 474 OFFCURVE",
"238 481 CURVE SMOOTH",
"235 520 OFFCURVE",
"233 565 OFFCURVE",
"233 609 CURVE SMOOTH",
"233 761 OFFCURVE",
"249 921 OFFCURVE",
"263 920 CURVE SMOOTH",
"344 920 LINE SMOOTH",
"472 920 OFFCURVE",
"560 915 OFFCURVE",
"593 848 CURVE SMOOTH",
"614 807 OFFCURVE",
"623 766 OFFCURVE",
"626 766 CURVE SMOOTH",
"627 766 OFFCURVE",
"627 771 OFFCURVE",
"627 781 CURVE SMOOTH",
"627 790 OFFCURVE",
"626 801 OFFCURVE",
"626 817 CURVE SMOOTH",
"626 834 OFFCURVE",
"621 858 OFFCURVE",
"621 947 CURVE",
"624 958 OFFCURVE",
"615 961 OFFCURVE",
"602 961 CURVE SMOOTH",
"585 961 OFFCURVE",
"561 956 OFFCURVE",
"544 956 CURVE SMOOTH",
"509 956 OFFCURVE",
"472 959 OFFCURVE",
"421 959 CURVE SMOOTH",
"405 959 OFFCURVE",
"388 958 OFFCURVE",
"369 958 CURVE SMOOTH",
"166 953 OFFCURVE",
"17 951 OFFCURVE",
"2 948 CURVE SMOOTH",
"-15 945 OFFCURVE",
"-21 942 OFFCURVE",
"-21 940 CURVE SMOOTH",
"-21 933 OFFCURVE",
"68 930 OFFCURVE",
"93 915 CURVE SMOOTH",
"119 899 OFFCURVE",
"126 784 OFFCURVE",
"126 679 CURVE SMOOTH",
"126 636 LINE SMOOTH",
"125 600 OFFCURVE",
"124 565 OFFCURVE",
"124 529 CURVE SMOOTH",
"124 492 OFFCURVE",
"125 454 OFFCURVE",
"125 417 CURVE SMOOTH",
"127 342 LINE SMOOTH",
"127 304 OFFCURVE",
"128 267 OFFCURVE",
"128 229 CURVE SMOOTH",
"128 211 OFFCURVE",
"129 188 OFFCURVE",
"129 164 CURVE SMOOTH",
"129 101 OFFCURVE",
"124 29 OFFCURVE",
"90 15 CURVE",
"46 4 OFFCURVE",
"38 1 OFFCURVE",
"47 1 CURVE SMOOTH"
);
}
);
width = 657;
}
);
note = F;
unicode = 0046;
},
{
glyphname = G;
layers = (
{
hints = (
{
horizontal = 1;
place = "{19, 36}";
type = Stem;
},
{
horizontal = 1;
place = "{561, 7}";
type = Stem;
},
{
horizontal = 1;
place = "{911, 41}";
type = Stem;
},
{
place = "{18, 136}";
type = Stem;
},
{
place = "{652, 85}";
type = Stem;
},
{
horizontal = 1;
place = "{545, 25}";
type = Stem;
},
{
place = "{708, 23}";
type = Stem;
}
);
layerId = "59B4545D-7A36-483A-A414-D3C0872518C3";
paths = (
{
closed = 1;
nodes = (
"426 19 LINE SMOOTH",
"582 19 OFFCURVE",
"794 26 OFFCURVE",
"772 39 CURVE SMOOTH",
"763 44 OFFCURVE",
"737 36 OFFCURVE",
"737 72 CURVE SMOOTH",
"737 357 LINE SMOOTH",
"737 377 OFFCURVE",
"737 554 OFFCURVE",
"755 561 CURVE SMOOTH",
"760 563 OFFCURVE",
"762 564 OFFCURVE",
"762 565 CURVE SMOOTH",
"762 568 OFFCURVE",
"753 568 OFFCURVE",
"740 568 CURVE SMOOTH",
"722 568 OFFCURVE",
"697 567 OFFCURVE",
"675 568 CURVE SMOOTH",
"626 570 LINE SMOOTH",
"588 572 OFFCURVE",
"562 568 OFFCURVE",
"526 552 CURVE",
"510 539 OFFCURVE",
"549 549 OFFCURVE",
"580 548 CURVE SMOOTH",
"648 545 LINE SMOOTH",
"651 545 OFFCURVE",
"652 478 OFFCURVE",
"652 394 CURVE SMOOTH",
"652 269 OFFCURVE",
"650 108 OFFCURVE",
"648 83 CURVE SMOOTH",
"646 57 OFFCURVE",
"578 55 OFFCURVE",
"542 55 CURVE SMOOTH",
"484 55 OFFCURVE",
"421 57 OFFCURVE",
"365 80 CURVE SMOOTH",
"225 135 OFFCURVE",
"180 243 OFFCURVE",
"160 410 CURVE SMOOTH",
"156 442 OFFCURVE",
"154 474 OFFCURVE",
"154 508 CURVE SMOOTH",
"154 570 OFFCURVE",
"161 636 OFFCURVE",
"176 702 CURVE SMOOTH",
"209 849 OFFCURVE",
"337 905 OFFCURVE",
"419 910 CURVE SMOOTH",
"431 911 OFFCURVE",
"443 911 OFFCURVE",
"454 911 CURVE SMOOTH",
"529 911 OFFCURVE",
"587 894 OFFCURVE",
"654 854 CURVE SMOOTH",
"678 840 OFFCURVE",
"706 825 OFFCURVE",
"708 795 CURVE SMOOTH",
"710 757 OFFCURVE",
"714 724 OFFCURVE",
"720 724 CURVE SMOOTH",
"722 724 OFFCURVE",
"724 728 OFFCURVE",
"726 737 CURVE SMOOTH",
"731 758 OFFCURVE",
"730 797 OFFCURVE",
"731 825 CURVE SMOOTH",
"732 857 OFFCURVE",
"734 885 OFFCURVE",
"734 905 CURVE SMOOTH",
"734 909 OFFCURVE",
"734 940 OFFCURVE",
"726 940 CURVE SMOOTH",
"720 940 OFFCURVE",
"716 903 OFFCURVE",
"699 911 CURVE SMOOTH",
"658 929 OFFCURVE",
"575 948 OFFCURVE",
"472 952 CURVE SMOOTH",
"376 956 OFFCURVE",
"285 919 OFFCURVE",
"207 857 CURVE SMOOTH",
"74 751 OFFCURVE",
"18 629 OFFCURVE",
"18 486 CURVE SMOOTH",
"18 434 OFFCURVE",
"26 379 OFFCURVE",
"40 321 CURVE SMOOTH",
"81 152 OFFCURVE",
"209 21 OFFCURVE",
"370 19 CURVE SMOOTH"
);
}
);
width = 815;
}
);
note = G;
unicode = 0047;
},
{
glyphname = H;
layers = (
{
hints = (
{
horizontal = 1;
place = "{5, 99}";
type = Stem;
},
{
horizontal = 1;
place = "{423, 76}";
type = Stem;
},
{
place = "{201, 100}";
type = Stem;
},
{
place = "{689, 81}";
type = Stem;
}
);
layerId = "59B4545D-7A36-483A-A414-D3C0872518C3";
paths = (
{
closed = 1;
nodes = (
"232 -626 OFFCURVE",
"338 -536 OFFCURVE",
"338 -523 CURVE SMOOTH",
"338 -521 OFFCURVE",
"336 -521 OFFCURVE",
"330 -523 CURVE",
"285 -548 LINE SMOOTH",
"273 -555 OFFCURVE",
"264 -558 OFFCURVE",
"260 -558 CURVE SMOOTH",
"256 -558 OFFCURVE",
"255 -557 OFFCURVE",
"255 -554 CURVE SMOOTH",
"255 -531 OFFCURVE",
"342 -431 OFFCURVE",
"363 -404 CURVE SMOOTH",
"443 -301 OFFCURVE",
"542 -222 OFFCURVE",
"618 -120 CURVE SMOOTH",
"694 -18 OFFCURVE",
"760 93 OFFCURVE",
"770 224 CURVE SMOOTH",
"776 304 OFFCURVE",
"746 429 OFFCURVE",
"670 471 CURVE SMOOTH",
"634 491 OFFCURVE",
"585 499 OFFCURVE",
"538 499 CURVE SMOOTH",
"505 499 OFFCURVE",
"471 495 OFFCURVE",
"444 488 CURVE SMOOTH",
"354 465 OFFCURVE",
"304 362 OFFCURVE",
"297 381 CURVE",
"300 444 LINE SMOOTH",
"301 463 OFFCURVE",
"301 482 OFFCURVE",
"301 501 CURVE SMOOTH",
"301 578 OFFCURVE",
"296 654 OFFCURVE",
"296 731 CURVE SMOOTH",
"296 734 OFFCURVE",
"296 738 OFFCURVE",
"296 741 CURVE SMOOTH",
"297 761 LINE SMOOTH",
"297 764 OFFCURVE",
"297 768 OFFCURVE",
"297 771 CURVE SMOOTH",
"299 835 OFFCURVE",
"296 901 OFFCURVE",
"314 963 CURVE SMOOTH",
"325 1001 OFFCURVE",
"344 1040 OFFCURVE",
"368 1074 CURVE SMOOTH",
"378 1088 OFFCURVE",
"417 1115 OFFCURVE",
"417 1125 CURVE SMOOTH",
"417 1128 OFFCURVE",
"415 1129 OFFCURVE",
"409 1129 CURVE",
"275 1082 OFFCURVE",
"230 1023 OFFCURVE",
"157 995 CURVE SMOOTH",
"84 967 OFFCURVE",
"58 977 OFFCURVE",
"0 931 CURVE",
"-16 911 OFFCURVE",
"51 942 OFFCURVE",
"74 945 CURVE SMOOTH",
"82 946 OFFCURVE",
"90 947 OFFCURVE",
"97 947 CURVE SMOOTH",
"188 947 OFFCURVE",
"201 861 OFFCURVE",
"201 782 CURVE SMOOTH",
"200 367 LINE SMOOTH",
"200 326 OFFCURVE",
"202 285 OFFCURVE",
"202 243 CURVE SMOOTH",
"202 222 OFFCURVE",
"202 200 OFFCURVE",
"200 179 CURVE SMOOTH",
"198 151 OFFCURVE",
"203 121 OFFCURVE",
"203 93 CURVE SMOOTH",
"203 79 OFFCURVE",
"202 65 OFFCURVE",
"198 53 CURVE SMOOTH",
"194 39 OFFCURVE",
"180 26 OFFCURVE",
"182 9 CURVE SMOOTH",
"182 6 OFFCURVE",
"185 5 OFFCURVE",
"189 5 CURVE SMOOTH",
"210 5 OFFCURVE",
"276 39 OFFCURVE",
"280 42 CURVE SMOOTH",
"330 78 LINE SMOOTH",
"340 85 OFFCURVE",
"367 108 OFFCURVE",
"367 117 CURVE SMOOTH",
"367 120 OFFCURVE",
"363 122 OFFCURVE",
"355 120 CURVE SMOOTH",
"335 115 OFFCURVE",
"323 104 OFFCURVE",
"314 104 CURVE SMOOTH",
"298 104 OFFCURVE",
"296 165 OFFCURVE",
"296 177 CURVE SMOOTH",
"296 208 OFFCURVE",
"300 241 OFFCURVE",
"300 271 CURVE SMOOTH",
"300 312 OFFCURVE",
"304 354 OFFCURVE",
"339 382 CURVE SMOOTH",
"381 415 OFFCURVE",
"438 426 OFFCURVE",
"492 423 CURVE SMOOTH",
"618 416 OFFCURVE",
"689 293 OFFCURVE",
"689 177 CURVE SMOOTH",
"689 86 OFFCURVE",
"643 8 OFFCURVE",
"593 -75 CURVE SMOOTH",
"564 -123 OFFCURVE",
"528 -163 OFFCURVE",
"494 -204 CURVE SMOOTH",
"252 -495 LINE SMOOTH",
"234 -517 OFFCURVE",
"172 -579 OFFCURVE",
"172 -609 CURVE SMOOTH",
"172 -618 OFFCURVE",
"179 -626 OFFCURVE",
"194 -626 CURVE SMOOTH"
);
}
);
width = 791;
}
);
note = H;
unicode = 0048;
},
{
glyphname = I;
layers = (
{
hints = (
{
horizontal = 1;
place = "{942, 12}";
type = Stem;
},
{
place = "{151, 92}";
type = Stem;
},
{
place = "{154, 100}";
type = Stem;
}
);
layerId = "59B4545D-7A36-483A-A414-D3C0872518C3";
paths = (
{
closed = 1;
nodes = (
"46 5 OFFCURVE",
"128 15 OFFCURVE",
"151 15 CURVE SMOOTH",
"188 15 OFFCURVE",
"216 14 OFFCURVE",
"245 14 CURVE SMOOTH",
"259 14 OFFCURVE",
"274 14 OFFCURVE",
"290 15 CURVE SMOOTH",
"302 15 OFFCURVE",
"306 16 OFFCURVE",
"306 17 CURVE SMOOTH",
"306 19 OFFCURVE",
"251 23 OFFCURVE",
"249 37 CURVE",
"249 68 OFFCURVE",
"243 106 OFFCURVE",
"243 171 CURVE SMOOTH",
"243 352 OFFCURVE",
"253 506 OFFCURVE",
"254 620 CURVE SMOOTH",
"254 707 OFFCURVE",
"256 792 OFFCURVE",
"262 885 CURVE SMOOTH",
"264 910 OFFCURVE",
"261 942 OFFCURVE",
"288 942 CURVE SMOOTH",
"302 942 OFFCURVE",
"315 947 OFFCURVE",
"315 951 CURVE SMOOTH",
"315 953 OFFCURVE",
"310 955 OFFCURVE",
"299 955 CURVE SMOOTH",
"263 955 OFFCURVE",
"241 952 OFFCURVE",
"213 952 CURVE SMOOTH",
"205 952 OFFCURVE",
"195 952 OFFCURVE",
"185 953 CURVE SMOOTH",
"167 954 OFFCURVE",
"152 954 OFFCURVE",
"133 954 CURVE SMOOTH",
"83 954 OFFCURVE",
"64 952 OFFCURVE",
"64 949 CURVE SMOOTH",
"64 947 OFFCURVE",
"82 944 OFFCURVE",
"108 942 CURVE SMOOTH",
"149 939 OFFCURVE",
"156 898 OFFCURVE",
"156 856 CURVE SMOOTH",
"156 835 OFFCURVE",
"154 813 OFFCURVE",
"154 796 CURVE SMOOTH",
"154 644 OFFCURVE",
"154 492 OFFCURVE",
"150 339 CURVE SMOOTH",
"149 299 OFFCURVE",
"151 256 OFFCURVE",
"151 213 CURVE SMOOTH",
"151 165 OFFCURVE",
"147 89 OFFCURVE",
"136 43 CURVE SMOOTH",
"128 9 OFFCURVE",
"110 23 OFFCURVE",
"73 14 CURVE"
);
}
);
width = 371;
}
);
note = I;
unicode = 0049;
},
{
glyphname = J;
layers = (
{
hints = (
{
horizontal = 1;
place = "{942, 12}";
type = Stem;
},
{
place = "{151, 92}";
type = Stem;
},
{
place = "{154, 100}";
type = Stem;
}
);
layerId = "59B4545D-7A36-483A-A414-D3C0872518C3";
paths = (
{
closed = 1;
nodes = (
"46 5 OFFCURVE",
"128 15 OFFCURVE",
"151 15 CURVE SMOOTH",
"188 15 OFFCURVE",
"216 14 OFFCURVE",
"245 14 CURVE SMOOTH",
"259 14 OFFCURVE",
"274 14 OFFCURVE",
"290 15 CURVE SMOOTH",
"302 15 OFFCURVE",
"306 16 OFFCURVE",
"306 17 CURVE SMOOTH",
"306 19 OFFCURVE",
"251 23 OFFCURVE",
"249 37 CURVE",
"249 68 OFFCURVE",
"243 106 OFFCURVE",
"243 171 CURVE SMOOTH",
"243 352 OFFCURVE",
"253 506 OFFCURVE",
"254 620 CURVE SMOOTH",
"254 707 OFFCURVE",
"256 792 OFFCURVE",
"262 885 CURVE SMOOTH",
"264 910 OFFCURVE",
"261 942 OFFCURVE",
"288 942 CURVE SMOOTH",
"302 942 OFFCURVE",
"315 947 OFFCURVE",
"315 951 CURVE SMOOTH",
"315 953 OFFCURVE",
"310 955 OFFCURVE",
"299 955 CURVE SMOOTH",
"263 955 OFFCURVE",
"241 952 OFFCURVE",
"213 952 CURVE SMOOTH",
"205 952 OFFCURVE",
"195 952 OFFCURVE",
"185 953 CURVE SMOOTH",
"167 954 OFFCURVE",
"152 954 OFFCURVE",
"133 954 CURVE SMOOTH",
"83 954 OFFCURVE",
"64 952 OFFCURVE",
"64 949 CURVE SMOOTH",
"64 947 OFFCURVE",
"82 944 OFFCURVE",
"108 942 CURVE SMOOTH",
"149 939 OFFCURVE",
"156 898 OFFCURVE",
"156 856 CURVE SMOOTH",
"156 835 OFFCURVE",
"154 813 OFFCURVE",
"154 796 CURVE SMOOTH",
"154 644 OFFCURVE",
"154 492 OFFCURVE",
"150 339 CURVE SMOOTH",
"149 299 OFFCURVE",
"151 256 OFFCURVE",
"151 213 CURVE SMOOTH",
"151 165 OFFCURVE",
"147 89 OFFCURVE",
"136 43 CURVE SMOOTH",
"128 9 OFFCURVE",
"110 23 OFFCURVE",
"73 14 CURVE"
);
}
);
width = 371;
}
);
note = J;
unicode = 004A;
},
{
glyphname = K;
layers = (
{
hints = (
{
horizontal = 1;
place = "{12, 12}";
type = Stem;
},
{
horizontal = 1;
place = "{478, 94}";
type = Stem;
},
{
horizontal = 1;
place = "{939, 12}";
type = Stem;
},
{
place = "{84, 74}";
type = Stem;
},
{
horizontal = 1;
place = "{939, 13}";
type = Stem;
},
{
place = "{74, 80}";
type = Stem;
}
);
layerId = "59B4545D-7A36-483A-A414-D3C0872518C3";
paths = (
{
closed = 1;
nodes = (
"585 10 OFFCURVE",
"685 14 OFFCURVE",
"729 18 CURVE SMOOTH",
"749 20 OFFCURVE",
"757 22 OFFCURVE",
"757 24 CURVE SMOOTH",
"757 27 OFFCURVE",
"736 29 OFFCURVE",
"713 31 CURVE SMOOTH",
"687 33 OFFCURVE",
"686 41 OFFCURVE",
"665 59 CURVE SMOOTH",
"617 100 OFFCURVE",
"543 200 OFFCURVE",
"458 299 CURVE SMOOTH",
"266 524 LINE SMOOTH",
"257 535 OFFCURVE",
"252 541 OFFCURVE",
"252 548 CURVE SMOOTH",
"252 557 OFFCURVE",
"261 566 OFFCURVE",
"284 588 CURVE SMOOTH",
"637 921 LINE SMOOTH",
"650 933 OFFCURVE",
"683 943 OFFCURVE",
"683 947 CURVE SMOOTH",
"683 949 OFFCURVE",
"678 950 OFFCURVE",
"664 950 CURVE SMOOTH",
"657 950 OFFCURVE",
"648 949 OFFCURVE",
"637 949 CURVE SMOOTH",
"595 950 OFFCURVE",
"557 951 OFFCURVE",
"528 951 CURVE SMOOTH",
"482 951 OFFCURVE",
"455 949 OFFCURVE",
"455 945 CURVE SMOOTH",
"455 943 OFFCURVE",
"460 941 OFFCURVE",
"470 939 CURVE",
"510 939 OFFCURVE",
"520 939 OFFCURVE",
"517 922 CURVE SMOOTH",
"513 902 OFFCURVE",
"506 892 OFFCURVE",
"376 767 CURVE SMOOTH",
"300 694 OFFCURVE",
"190 572 OFFCURVE",
"165 572 CURVE SMOOTH",
"161 572 OFFCURVE",
"159 575 OFFCURVE",
"159 581 CURVE SMOOTH",
"159 594 OFFCURVE",
"158 610 OFFCURVE",
"158 627 CURVE SMOOTH",
"158 696 OFFCURVE",
"161 857 OFFCURVE",
"186 922 CURVE SMOOTH",
"193 939 OFFCURVE",
"245 943 OFFCURVE",
"245 946 CURVE SMOOTH",
"245 947 OFFCURVE",
"240 948 OFFCURVE",
"227 949 CURVE SMOOTH",
"130 949 LINE SMOOTH",
"97 949 OFFCURVE",
"66 952 OFFCURVE",
"35 952 CURVE SMOOTH",
"24 952 OFFCURVE",
"14 952 OFFCURVE",
"4 951 CURVE SMOOTH",
"-6 950 OFFCURVE",
"-10 949 OFFCURVE",
"-10 948 CURVE SMOOTH",
"-10 945 OFFCURVE",
"24 942 OFFCURVE",
"50 939 CURVE SMOOTH",
"74 936 OFFCURVE",
"83 847 OFFCURVE",
"83 814 CURVE SMOOTH",
"83 799 OFFCURVE",
"83 783 OFFCURVE",
"83 768 CURVE SMOOTH",
"84 675 LINE SMOOTH",
"84 660 OFFCURVE",
"84 645 OFFCURVE",
"84 629 CURVE SMOOTH",
"84 587 OFFCURVE",
"84 545 OFFCURVE",
"82 503 CURVE SMOOTH",
"66 79 LINE SMOOTH",
"65 44 OFFCURVE",
"64 28 OFFCURVE",
"4 24 CURVE",
"-29 16 OFFCURVE",
"80 12 OFFCURVE",
"156 12 CURVE SMOOTH",
"194 12 OFFCURVE",
"224 13 OFFCURVE",
"224 15 CURVE",
"224 15 OFFCURVE",
"219 17 OFFCURVE",
"206 18 CURVE SMOOTH",
"180 21 OFFCURVE",
"176 33 OFFCURVE",
"169 59 CURVE SMOOTH",
"156 107 OFFCURVE",
"154 178 OFFCURVE",
"154 204 CURVE SMOOTH",
"154 287 LINE SMOOTH",
"154 377 OFFCURVE",
"156 478 OFFCURVE",
"167 478 CURVE SMOOTH",
"168 478 OFFCURVE",
"170 477 OFFCURVE",
"171 475 CURVE",
"285 330 OFFCURVE",
"399 185 OFFCURVE",
"521 52 CURVE",
"533 41 OFFCURVE",
"538 34 OFFCURVE",
"538 30 CURVE SMOOTH",
"538 22 OFFCURVE",
"516 24 OFFCURVE",
"481 18 CURVE SMOOTH",
"474 16 OFFCURVE",
"470 15 OFFCURVE",
"470 14 CURVE SMOOTH",
"470 11 OFFCURVE",
"491 10 OFFCURVE",
"522 10 CURVE SMOOTH"
);
}
);
width = 697;
}
);
note = K;
unicode = 004B;
},
{
glyphname = L;
layers = (
{
hints = (
{
horizontal = 1;
place = "{25, 33}";
type = Stem;
},
{
horizontal = 1;
place = "{936, 25}";
type = Stem;
},
{
horizontal = 1;
place = "{966, -20}";
target = down;
type = TopGhost;
},
{
place = "{122, 116}";
type = Stem;
},
{
place = "{129, 129}";
type = Stem;
}
);
layerId = "59B4545D-7A36-483A-A414-D3C0872518C3";
paths = (
{
closed = 1;
nodes = (
"593 -27 OFFCURVE",
"598 -11 OFFCURVE",
"603 37 CURVE SMOOTH",
"607 73 OFFCURVE",
"614 121 OFFCURVE",
"621 185 CURVE SMOOTH",
"626 225 OFFCURVE",
"627 250 OFFCURVE",
"627 262 CURVE SMOOTH",
"627 269 OFFCURVE",
"627 272 OFFCURVE",
"626 272 CURVE SMOOTH",
"623 272 OFFCURVE",
"618 248 OFFCURVE",
"614 211 CURVE SMOOTH",
"602 123 OFFCURVE",
"592 109 OFFCURVE",
"504 87 CURVE SMOOTH",
"378 54 OFFCURVE",
"294 58 OFFCURVE",
"256 58 CURVE SMOOTH",
"238 58 OFFCURVE",
"232 59 OFFCURVE",
"232 135 CURVE SMOOTH",
"232 178 OFFCURVE",
"234 246 OFFCURVE",
"237 352 CURVE SMOOTH",
"240 467 LINE SMOOTH",
"243 620 OFFCURVE",
"247 792 OFFCURVE",
"258 937 CURVE",
"258 956 OFFCURVE",
"321 959 OFFCURVE",
"321 963 CURVE SMOOTH",
"321 964 OFFCURVE",
"318 965 OFFCURVE",
"313 966 CURVE",
"252 966 OFFCURVE",
"238 963 OFFCURVE",
"186 961 CURVE SMOOTH",
"81 958 LINE SMOOTH",
"19 956 OFFCURVE",
"-3 954 OFFCURVE",
"-3 951 CURVE SMOOTH",
"-3 947 OFFCURVE",
"51 941 OFFCURVE",
"93 936 CURVE SMOOTH",
"117 932 OFFCURVE",
"129 810 OFFCURVE",
"129 775 CURVE SMOOTH",
"129 668 OFFCURVE",
"128 571 OFFCURVE",
"126 475 CURVE SMOOTH",
"119 165 LINE SMOOTH",
"116 77 OFFCURVE",
"116 50 OFFCURVE",
"86 43 CURVE",
"70 33 OFFCURVE",
"57 35 OFFCURVE",
"21 25 CURVE SMOOTH",
"12 23 OFFCURVE",
"8 21 OFFCURVE",
"8 19 CURVE SMOOTH",
"8 15 OFFCURVE",
"27 14 OFFCURVE",
"52 14 CURVE SMOOTH",
"97 14 OFFCURVE",
"160 18 OFFCURVE",
"176 19 CURVE SMOOTH",
"266 23 OFFCURVE",
"300 25 OFFCURVE",
"359 25 CURVE SMOOTH",
"419 25 OFFCURVE",
"480 25 OFFCURVE",
"540 25 CURVE SMOOTH",
"563 25 OFFCURVE",
"581 24 OFFCURVE",
"581 19 CURVE SMOOTH",
"583 -1 OFFCURVE",
"586 -27 OFFCURVE",
"590 -27 CURVE SMOOTH"
);
}
);
width = 627;
}
);
note = L;
unicode = 004C;
},
{
glyphname = M;
layers = (
{
hints = (
{
horizontal = 1;
place = "{-718, 59}";
type = Stem;
},
{
horizontal = 1;
place = "{50, 30}";
type = Stem;
},
{
horizontal = 1;
place = "{887, 72}";
type = Stem;
},
{
place = "{10, 107}";
type = Stem;
},
{
place = "{375, 47}";
type = Stem;
},
{
place = "{500, 51}";
type = Stem;
},
{
place = "{1085, 108}";
type = Stem;
},
{
horizontal = 1;
place = "{881, 75}";
type = Stem;
},
{
place = "{540, 101}";
type = Stem;
}
);
layerId = "59B4545D-7A36-483A-A414-D3C0872518C3";
paths = (
{
closed = 1;
nodes = (
"492 -718 OFFCURVE",
"551 -614 OFFCURVE",
"551 -540 CURVE SMOOTH",
"551 -522 OFFCURVE",
"545 -505 OFFCURVE",
"527 -497 CURVE SMOOTH",
"521 -495 OFFCURVE",
"516 -494 OFFCURVE",
"511 -494 CURVE SMOOTH",
"464 -494 OFFCURVE",
"425 -576 OFFCURVE",
"429 -613 CURVE",
"444 -597 OFFCURVE",
"457 -578 OFFCURVE",
"480 -583 CURVE SMOOTH",
"494 -587 OFFCURVE",
"500 -596 OFFCURVE",
"500 -608 CURVE SMOOTH",
"500 -630 OFFCURVE",
"478 -659 OFFCURVE",
"452 -659 CURVE SMOOTH",
"447 -659 OFFCURVE",
"443 -658 OFFCURVE",
"438 -656 CURVE SMOOTH",
"425 -649 OFFCURVE",
"422 -636 OFFCURVE",
"422 -621 CURVE SMOOTH",
"422 -612 OFFCURVE",
"423 -601 OFFCURVE",
"424 -592 CURVE SMOOTH",
"449 -462 OFFCURVE",
"557 -363 OFFCURVE",
"639 -268 CURVE SMOOTH",
"667 -235 OFFCURVE",
"701 -206 OFFCURVE",
"730 -173 CURVE",
"851 -57 OFFCURVE",
"939 41 OFFCURVE",
"1032 149 CURVE SMOOTH",
"1142 272 OFFCURVE",
"1193 423 OFFCURVE",
"1193 558 CURVE SMOOTH",
"1193 611 OFFCURVE",
"1185 663 OFFCURVE",
"1169 708 CURVE SMOOTH",
"1122 849 OFFCURVE",
"943 959 OFFCURVE",
"792 959 CURVE SMOOTH",
"691 959 OFFCURVE",
"593 884 OFFCURVE",
"595 787 CURVE SMOOTH",
"593 879 OFFCURVE",
"482 956 OFFCURVE",
"397 956 CURVE SMOOTH",
"392 956 OFFCURVE",
"387 956 OFFCURVE",
"382 955 CURVE SMOOTH",
"286 944 OFFCURVE",
"229 912 OFFCURVE",
"134 811 CURVE SMOOTH",
"46 716 OFFCURVE",
"6 587 OFFCURVE",
"10 457 CURVE",
"27 305 OFFCURVE",
"62 244 OFFCURVE",
"179 131 CURVE SMOOTH",
"234 81 OFFCURVE",
"321 50 OFFCURVE",
"388 50 CURVE SMOOTH",
"433 50 OFFCURVE",
"469 64 OFFCURVE",
"481 94 CURVE",
"473 84 OFFCURVE",
"463 80 OFFCURVE",
"452 80 CURVE SMOOTH",
"387 80 OFFCURVE",
"273 210 OFFCURVE",
"230 252 CURVE",
"157 332 OFFCURVE",
"117 410 OFFCURVE",
"117 545 CURVE SMOOTH",
"117 560 OFFCURVE",
"118 576 OFFCURVE",
"119 593 CURVE SMOOTH",
"130 679 OFFCURVE",
"159 792 OFFCURVE",
"229 852 CURVE SMOOTH",
"254 872 OFFCURVE",
"287 881 OFFCURVE",
"322 881 CURVE SMOOTH",
"532 881 OFFCURVE",
"541 654 OFFCURVE",
"541 497 CURVE SMOOTH",
"541 455 OFFCURVE",
"540 413 OFFCURVE",
"540 370 CURVE SMOOTH",
"540 333 OFFCURVE",
"541 296 OFFCURVE",
"542 259 CURVE SMOOTH",
"542 226 LINE SMOOTH",
"542 156 OFFCURVE",
"535 28 OFFCURVE",
"468 19 CURVE SMOOTH",
"492 22 OFFCURVE",
"515 23 OFFCURVE",
"539 23 CURVE SMOOTH",
"565 23 OFFCURVE",
"592 22 OFFCURVE",
"621 22 CURVE SMOOTH",
"660 22 OFFCURVE",
"705 25 OFFCURVE",
"738 35 CURVE",
"653 102 OFFCURVE",
"641 305 OFFCURVE",
"641 441 CURVE SMOOTH",
"641 535 OFFCURVE",
"646 601 OFFCURVE",
"653 692 CURVE SMOOTH",
"657 786 OFFCURVE",
"686 887 OFFCURVE",
"814 887 CURVE SMOOTH",
"824 887 OFFCURVE",
"834 886 OFFCURVE",
"845 885 CURVE",
"959 832 OFFCURVE",
"1005 776 OFFCURVE",
"1020 733 CURVE",
"1065 670 OFFCURVE",
"1085 588 OFFCURVE",
"1085 502 CURVE SMOOTH",
"1085 284 OFFCURVE",
"969 104 OFFCURVE",
"816 -42 CURVE SMOOTH",
"730 -127 OFFCURVE",
"655 -194 OFFCURVE",
"589 -278 CURVE SMOOTH",
"498 -394 OFFCURVE",
"404 -510 OFFCURVE",
"377 -661 CURVE SMOOTH",
"376 -668 OFFCURVE",
"375 -674 OFFCURVE",
"375 -679 CURVE SMOOTH",
"375 -706 OFFCURVE",
"390 -718 OFFCURVE",
"412 -718 CURVE SMOOTH"
);
}
);
width = 1216;
}
);
note = M;
unicode = 004D;
},
{
glyphname = N;
layers = (
{
hints = (
{
horizontal = 1;
place = "{6, 8}";
type = Stem;
},
{
horizontal = 1;
place = "{940, 15}";
type = Stem;
},
{
place = "{89, 56}";
type = Stem;
},
{
place = "{694, 55}";
type = Stem;
},
{
horizontal = 1;
place = "{13, 13}";
type = Stem;
}
);
layerId = "59B4545D-7A36-483A-A414-D3C0872518C3";
paths = (
{
closed = 1;
nodes = (
"750 6 LINE SMOOTH",
"784 6 OFFCURVE",
"815 10 OFFCURVE",
"815 15 CURVE SMOOTH",
"815 16 OFFCURVE",
"812 17 OFFCURVE",
"807 19 CURVE",
"783 20 OFFCURVE",
"740 15 OFFCURVE",
"740 47 CURVE SMOOTH",
"740 100 LINE SMOOTH",
"740 143 OFFCURVE",
"741 187 OFFCURVE",
"742 233 CURVE SMOOTH",
"757 634 LINE SMOOTH",
"759 693 OFFCURVE",
"759 755 OFFCURVE",
"765 814 CURVE SMOOTH",
"767 847 OFFCURVE",
"769 886 OFFCURVE",
"783 917 CURVE SMOOTH",
"788 929 OFFCURVE",
"794 940 OFFCURVE",
"813 945 CURVE",
"879 946 OFFCURVE",
"849 956 OFFCURVE",
"851 954 CURVE",
"830 955 OFFCURVE",
"814 956 OFFCURVE",
"798 956 CURVE SMOOTH",
"783 956 OFFCURVE",
"768 955 OFFCURVE",
"750 954 CURVE SMOOTH",
"727 953 OFFCURVE",
"704 955 OFFCURVE",
"680 955 CURVE SMOOTH",
"671 955 OFFCURVE",
"662 955 OFFCURVE",
"652 954 CURVE SMOOTH",
"645 953 OFFCURVE",
"632 955 OFFCURVE",
"620 955 CURVE SMOOTH",
"614 955 OFFCURVE",
"591 953 OFFCURVE",
"591 944 CURVE SMOOTH",
"591 941 OFFCURVE",
"597 940 OFFCURVE",
"604 940 CURVE SMOOTH",
"614 940 OFFCURVE",
"628 941 OFFCURVE",
"633 941 CURVE SMOOTH",
"684 936 OFFCURVE",
"686 931 OFFCURVE",
"687 912 CURVE SMOOTH",
"689 868 OFFCURVE",
"695 785 OFFCURVE",
"695 741 CURVE SMOOTH",
"696 636 LINE",
"696 605 LINE SMOOTH",
"696 542 OFFCURVE",
"694 477 OFFCURVE",
"694 413 CURVE SMOOTH",
"694 390 OFFCURVE",
"694 366 OFFCURVE",
"695 343 CURVE SMOOTH",
"695 317 OFFCURVE",
"697 269 OFFCURVE",
"697 231 CURVE SMOOTH",
"697 189 OFFCURVE",
"695 156 OFFCURVE",
"689 171 CURVE",
"659 215 OFFCURVE",
"636 261 OFFCURVE",
"611 302 CURVE SMOOTH",
"584 346 OFFCURVE",
"555 396 OFFCURVE",
"530 440 CURVE SMOOTH",
"325 806 LINE SMOOTH",
"301 849 OFFCURVE",
"268 913 OFFCURVE",
"262 934 CURVE SMOOTH",
"260 942 OFFCURVE",
"291 948 OFFCURVE",
"291 952 CURVE SMOOTH",
"291 953 OFFCURVE",
"287 954 OFFCURVE",
"275 955 CURVE SMOOTH",
"257 955 OFFCURVE",
"241 956 OFFCURVE",
"225 956 CURVE SMOOTH",
"198 956 OFFCURVE",
"172 955 OFFCURVE",
"142 953 CURVE SMOOTH",
"84 950 LINE SMOOTH",
"67 948 OFFCURVE",
"26 952 OFFCURVE",
"22 944 CURVE",
"22 941 OFFCURVE",
"26 940 OFFCURVE",
"32 940 CURVE SMOOTH",
"41 940 OFFCURVE",
"53 942 OFFCURVE",
"63 942 CURVE SMOOTH",
"71 942 OFFCURVE",
"77 941 OFFCURVE",
"77 936 CURVE SMOOTH",
"77 894 OFFCURVE",
"82 855 OFFCURVE",
"84 815 CURVE SMOOTH",
"88 636 LINE SMOOTH",
"89 604 OFFCURVE",
"89 571 OFFCURVE",
"89 539 CURVE SMOOTH",
"89 500 OFFCURVE",
"89 461 OFFCURVE",
"87 423 CURVE SMOOTH",
"77 174 LINE SMOOTH",
"76 140 OFFCURVE",
"77 105 OFFCURVE",
"69 69 CURVE SMOOTH",
"66 56 OFFCURVE",
"57 37 OFFCURVE",
"43 29 CURVE SMOOTH",
"36 26 OFFCURVE",
"31 26 OFFCURVE",
"25 26 CURVE SMOOTH",
"20 26 OFFCURVE",
"14 26 OFFCURVE",
"4 20 CURVE SMOOTH",
"-4 15 OFFCURVE",
"1 13 OFFCURVE",
"15 13 CURVE SMOOTH",
"32 13 OFFCURVE",
"64 15 OFFCURVE",
"105 16 CURVE SMOOTH",
"113 16 OFFCURVE",
"144 13 OFFCURVE",
"173 13 CURVE SMOOTH",
"182 13 OFFCURVE",
"190 13 OFFCURVE",
"198 14 CURVE SMOOTH",
"214 15 OFFCURVE",
"249 15 OFFCURVE",
"249 20 CURVE SMOOTH",
"249 21 OFFCURVE",
"246 23 OFFCURVE",
"237 26 CURVE",
"211 28 OFFCURVE",
"179 42 OFFCURVE",
"168 67 CURVE SMOOTH",
"153 108 OFFCURVE",
"148 150 OFFCURVE",
"148 194 CURVE SMOOTH",
"148 221 OFFCURVE",
"149 248 OFFCURVE",
"148 275 CURVE SMOOTH",
"146 339 OFFCURVE",
"145 402 OFFCURVE",
"145 466 CURVE SMOOTH",
"145 551 OFFCURVE",
"147 636 OFFCURVE",
"152 721 CURVE SMOOTH",
"153 736 OFFCURVE",
"151 765 OFFCURVE",
"151 787 CURVE SMOOTH",
"151 804 OFFCURVE",
"152 817 OFFCURVE",
"158 815 CURVE SMOOTH",
"171 809 OFFCURVE",
"170 796 OFFCURVE",
"235 676 CURVE SMOOTH",
"271 609 OFFCURVE",
"304 571 OFFCURVE",
"334 519 CURVE SMOOTH",
"445 334 LINE SMOOTH",
"478 281 OFFCURVE",
"507 227 OFFCURVE",
"545 173 CURVE SMOOTH",
"609 76 LINE SMOOTH",
"615 67 OFFCURVE",
"637 38 OFFCURVE",
"637 27 CURVE SMOOTH",
"637 14 OFFCURVE",
"622 17 OFFCURVE",
"613 14 CURVE SMOOTH",
"589 6 OFFCURVE",
"644 6 OFFCURVE",
"667 6 CURVE SMOOTH"
);
}
);
width = 876;
}
);
note = N;
unicode = 004E;
},
{
glyphname = O;
layers = (
{
hints = (
{
horizontal = 1;
place = "{6, 39}";
type = Stem;
},
{
horizontal = 1;
place = "{921, 37}";
type = Stem;
},
{
place = "{40, 138}";
type = Stem;
},
{
place = "{653, 119}";
type = Stem;
}
);
layerId = "59B4545D-7A36-483A-A414-D3C0872518C3";
paths = (
{
closed = 1;
nodes = (
"493 6 OFFCURVE",
"592 83 OFFCURVE",
"650 139 CURVE SMOOTH",
"735 220 OFFCURVE",
"772 353 OFFCURVE",
"772 472 CURVE SMOOTH",
"772 621 OFFCURVE",
"710 780 OFFCURVE",
"599 880 CURVE SMOOTH",
"541 931 OFFCURVE",
"472 958 OFFCURVE",
"403 958 CURVE SMOOTH",
"342 958 OFFCURVE",
"280 937 OFFCURVE",
"225 895 CURVE SMOOTH",
"113 809 OFFCURVE",
"40 648 OFFCURVE",
"40 476 CURVE SMOOTH",
"40 314 OFFCURVE",
"99 210 OFFCURVE",
"206 92 CURVE",
"265 47 OFFCURVE",
"339 6 OFFCURVE",
"408 6 CURVE SMOOTH"
);
},
{
closed = 1;
nodes = (
"323 45 OFFCURVE",
"269 159 OFFCURVE",
"234 240 CURVE SMOOTH",
"193 332 OFFCURVE",
"178 434 OFFCURVE",
"178 534 CURVE SMOOTH",
"178 624 OFFCURVE",
"195 721 OFFCURVE",
"237 804 CURVE SMOOTH",
"266 861 OFFCURVE",
"324 921 OFFCURVE",
"397 921 CURVE SMOOTH",
"461 921 OFFCURVE",
"531 844 OFFCURVE",
"559 792 CURVE SMOOTH",
"622 676 OFFCURVE",
"653 579 OFFCURVE",
"653 448 CURVE SMOOTH",
"653 324 OFFCURVE",
"620 191 OFFCURVE",
"533 108 CURVE SMOOTH",
"504 80 OFFCURVE",
"474 45 OFFCURVE",
"427 45 CURVE SMOOTH"
);
}
);
width = 812;
}
);
note = O;
unicode = 004F;
},
{
glyphname = P;
layers = (
{
hints = (
{
horizontal = 1;
place = "{8, 7}";
type = Stem;
},
{
horizontal = 1;
place = "{533, 31}";
type = Stem;
},
{
horizontal = 1;
place = "{926, 30}";
type = Stem;
},
{
place = "{153, 110}";
type = Stem;
},
{
place = "{590, 81}";
type = Stem;
},
{
horizontal = 1;
place = "{926, 38}";
type = Stem;
},
{
place = "{165, 106}";
type = Stem;
}
);
layerId = "59B4545D-7A36-483A-A414-D3C0872518C3";
paths = (
{
closed = 1;
nodes = (
"172 8 LINE SMOOTH",
"278 8 OFFCURVE",
"340 10 OFFCURVE",
"340 14 CURVE SMOOTH",
"340 15 OFFCURVE",
"334 16 OFFCURVE",
"324 18 CURVE SMOOTH",
"276 24 OFFCURVE",
"263 37 OFFCURVE",
"263 131 CURVE SMOOTH",
"263 165 LINE",
"270 426 LINE SMOOTH",
"271 451 OFFCURVE",
"274 495 OFFCURVE",
"277 517 CURVE SMOOTH",
"279 531 OFFCURVE",
"293 534 OFFCURVE",
"316 534 CURVE SMOOTH",
"329 534 OFFCURVE",
"346 533 OFFCURVE",
"365 533 CURVE SMOOTH",
"488 533 OFFCURVE",
"586 549 OFFCURVE",
"644 667 CURVE SMOOTH",
"661 701 OFFCURVE",
"671 739 OFFCURVE",
"671 776 CURVE SMOOTH",
"671 923 OFFCURVE",
"526 964 OFFCURVE",
"404 964 CURVE SMOOTH",
"372 964 OFFCURVE",
"337 962 OFFCURVE",
"301 959 CURVE SMOOTH",
"266 956 OFFCURVE",
"206 956 OFFCURVE",
"150 956 CURVE SMOOTH",
"74 956 OFFCURVE",
"6 956 OFFCURVE",
"22 946 CURVE SMOOTH",
"45 931 OFFCURVE",
"156 943 OFFCURVE",
"159 922 CURVE SMOOTH",
"164 888 OFFCURVE",
"165 846 OFFCURVE",
"165 802 CURVE SMOOTH",
"165 738 OFFCURVE",
"162 671 OFFCURVE",
"162 624 CURVE SMOOTH",
"162 611 OFFCURVE",
"162 597 OFFCURVE",
"162 584 CURVE SMOOTH",
"163 503 LINE SMOOTH",
"163 444 OFFCURVE",
"163 384 OFFCURVE",
"159 325 CURVE SMOOTH",
"147 150 LINE SMOOTH",
"145 123 OFFCURVE",
"147 73 OFFCURVE",
"137 50 CURVE SMOOTH",
"119 10 OFFCURVE",
"107 15 OFFCURVE",
"84 15 CURVE SMOOTH",
"79 15 OFFCURVE",
"73 15 OFFCURVE",
"67 14 CURVE SMOOTH",
"58 13 OFFCURVE",
"54 11 OFFCURVE",
"54 11 CURVE",
"54 8 OFFCURVE",
"76 8 OFFCURVE",
"102 8 CURVE SMOOTH"
);
},
{
closed = 1;
nodes = (
"272 564 OFFCURVE",
"272 572 OFFCURVE",
"272 608 CURVE SMOOTH",
"271 756 LINE",
"271 837 LINE SMOOTH",
"271 923 OFFCURVE",
"274 926 OFFCURVE",
"293 926 CURVE SMOOTH",
"477 926 OFFCURVE",
"515 896 OFFCURVE",
"557 844 CURVE SMOOTH",
"579 816 OFFCURVE",
"590 785 OFFCURVE",
"590 753 CURVE SMOOTH",
"590 712 OFFCURVE",
"572 668 OFFCURVE",
"539 627 CURVE SMOOTH",
"502 581 OFFCURVE",
"462 571 OFFCURVE",
"407 569 CURVE SMOOTH",
"355 567 OFFCURVE",
"323 564 OFFCURVE",
"303 564 CURVE SMOOTH"
);
}
);
width = 651;
}
);
note = P;
unicode = 0050;
},
{
glyphname = Thorn;
layers = (
{
hints = (
{
horizontal = 1;
place = "{509, 39}";
type = Stem;
},
{
place = "{65, 100}";
type = Stem;
},
{
place = "{315, 77}";
type = Stem;
},
{
place = "{68, 92}";
type = Stem;
}
);
layerId = "59B4545D-7A36-483A-A414-D3C0872518C3";
paths = (
{
closed = 1;
nodes = (
"52 -555 OFFCURVE",
"57 -552 OFFCURVE",
"65 -546 CURVE",
"114 -495 OFFCURVE",
"141 -432 OFFCURVE",
"145 -332 CURVE SMOOTH",
"149 -241 OFFCURVE",
"158 -150 OFFCURVE",
"167 -59 CURVE SMOOTH",
"168 -52 OFFCURVE",
"170 12 OFFCURVE",
"174 15 CURVE SMOOTH",
"256 71 OFFCURVE",
"325 152 OFFCURVE",
"357 248 CURVE SMOOTH",
"374 298 OFFCURVE",
"392 377 OFFCURVE",
"392 432 CURVE SMOOTH",
"392 442 OFFCURVE",
"391 452 OFFCURVE",
"390 460 CURVE SMOOTH",
"377 538 OFFCURVE",
"347 551 OFFCURVE",
"307 551 CURVE SMOOTH",
"287 551 OFFCURVE",
"265 548 OFFCURVE",
"240 548 CURVE SMOOTH",
"223 548 OFFCURVE",
"202 542 OFFCURVE",
"186 542 CURVE SMOOTH",
"171 542 OFFCURVE",
"160 547 OFFCURVE",
"160 566 CURVE SMOOTH",
"160 649 OFFCURVE",
"167 721 OFFCURVE",
"174 913 CURVE SMOOTH",
"178 1024 OFFCURVE",
"227 1014 OFFCURVE",
"227 1028 CURVE SMOOTH",
"227 1040 OFFCURVE",
"216 1044 OFFCURVE",
"206 1044 CURVE SMOOTH",
"182 1044 OFFCURVE",
"138 1029 OFFCURVE",
"83 1019 CURVE SMOOTH",
"45 1012 OFFCURVE",
"9 1000 OFFCURVE",
"-42 968 CURVE",
"-48 963 OFFCURVE",
"-50 961 OFFCURVE",
"-50 959 CURVE SMOOTH",
"-50 958 OFFCURVE",
"-49 958 OFFCURVE",
"-46 958 CURVE SMOOTH",
"-37 958 OFFCURVE",
"-12 964 OFFCURVE",
"8 964 CURVE SMOOTH",
"17 964 OFFCURVE",
"26 963 OFFCURVE",
"31 959 CURVE SMOOTH",
"66 937 OFFCURVE",
"68 835 OFFCURVE",
"68 722 CURVE SMOOTH",
"68 646 OFFCURVE",
"65 577 OFFCURVE",
"65 558 CURVE SMOOTH",
"65 397 OFFCURVE",
"66 233 OFFCURVE",
"68 69 CURVE SMOOTH",
"69 -13 OFFCURVE",
"70 -90 OFFCURVE",
"70 -164 CURVE SMOOTH",
"70 -245 OFFCURVE",
"69 -322 OFFCURVE",
"63 -398 CURVE SMOOTH",
"57 -483 OFFCURVE",
"44 -530 OFFCURVE",
"44 -547 CURVE SMOOTH",
"44 -553 OFFCURVE",
"45 -555 OFFCURVE",
"48 -555 CURVE SMOOTH"
);
},
{
closed = 1;
nodes = (
"175 47 OFFCURVE",
"173 45 OFFCURVE",
"172 45 CURVE SMOOTH",
"170 45 OFFCURVE",
"173 64 OFFCURVE",
"169 181 CURVE SMOOTH",
"165 373 LINE SMOOTH",
"165 381 OFFCURVE",
"163 409 OFFCURVE",
"163 433 CURVE SMOOTH",
"163 471 OFFCURVE",
"163 496 OFFCURVE",
"197 500 CURVE SMOOTH",
"221 503 OFFCURVE",
"244 509 OFFCURVE",
"263 509 CURVE SMOOTH",
"294 509 OFFCURVE",
"315 494 OFFCURVE",
"315 432 CURVE SMOOTH",
"315 418 OFFCURVE",
"314 402 OFFCURVE",
"312 383 CURVE SMOOTH",
"294 223 OFFCURVE",
"254 99 OFFCURVE",
"177 48 CURVE SMOOTH"
);
}
);
width = 408;
}
);
note = Thorn;
unicode = 00DE;
},
{
glyphname = Q;
layers = (
{
hints = (
{
horizontal = 1;
place = "{4, 41}";
type = Stem;
},
{
horizontal = 1;
place = "{911, 35}";
type = Stem;
},
{
place = "{18, 136}";
type = Stem;
},
{
place = "{647, 126}";
type = Stem;
}
);
layerId = "59B4545D-7A36-483A-A414-D3C0872518C3";
paths = (
{
closed = 1;
nodes = (
"923 -292 OFFCURVE",
"908 -277 OFFCURVE",
"870 -250 CURVE SMOOTH",
"763 -174 OFFCURVE",
"677 -43 OFFCURVE",
"618 102 CURVE",
"719 191 OFFCURVE",
"773 341 OFFCURVE",
"773 474 CURVE SMOOTH",
"773 677 OFFCURVE",
"624 946 OFFCURVE",
"389 946 CURVE SMOOTH",
"268 946 OFFCURVE",
"163 868 OFFCURVE",
"96 774 CURVE SMOOTH",
"37 693 OFFCURVE",
"18 572 OFFCURVE",
"18 465 CURVE SMOOTH",
"18 449 OFFCURVE",
"18 434 OFFCURVE",
"19 419 CURVE SMOOTH",
"26 275 OFFCURVE",
"133 109 OFFCURVE",
"258 34 CURVE SMOOTH",
"293 13 OFFCURVE",
"331 4 OFFCURVE",
"370 4 CURVE SMOOTH",
"420 4 OFFCURVE",
"471 19 OFFCURVE",
"518 41 CURVE",
"560 -19 OFFCURVE",
"564 -48 OFFCURVE",
"668 -146 CURVE SMOOTH",
"767 -240 OFFCURVE",
"923 -316 OFFCURVE",
"923 -298 CURVE SMOOTH"
);
},
{
closed = 1;
nodes = (
"306 45 OFFCURVE",
"256 145 OFFCURVE",
"214 229 CURVE SMOOTH",
"169 319 OFFCURVE",
"154 414 OFFCURVE",
"154 509 CURVE SMOOTH",
"154 638 OFFCURVE",
"188 827 OFFCURVE",
"311 896 CURVE SMOOTH",
"329 906 OFFCURVE",
"347 911 OFFCURVE",
"364 911 CURVE SMOOTH",
"432 911 OFFCURVE",
"487 838 OFFCURVE",
"529 788 CURVE SMOOTH",
"607 695 OFFCURVE",
"647 576 OFFCURVE",
"647 457 CURVE SMOOTH",
"647 331 OFFCURVE",
"613 194 OFFCURVE",
"525 107 CURVE SMOOTH",
"489 72 OFFCURVE",
"460 45 OFFCURVE",
"414 45 CURVE SMOOTH"
);
}
);
width = 790;
}
);
note = Q;
unicode = 0051;
},
{
glyphname = R;
layers = (
{
hints = (
{
horizontal = 1;
place = "{13, 14}";
type = Stem;
},
{
horizontal = 1;
place = "{539, 31}";
type = Stem;
},
{
horizontal = 1;
place = "{932, 24}";
type = Stem;
},
{
place = "{138, 116}";
type = Stem;
},
{
place = "{569, 65}";
type = Stem;
},
{
horizontal = 1;
place = "{925, 38}";
type = Stem;
},
{
place = "{146, 114}";
type = Stem;
},
{
horizontal = 1;
place = "{925, 27}";
type = Stem;
},
{
horizontal = 1;
place = "{935, 21}";
type = Stem;
}
);
layerId = "59B4545D-7A36-483A-A414-D3C0872518C3";
paths = (
{
closed = 1;
nodes = (
"62 7 OFFCURVE",
"129 12 OFFCURVE",
"153 13 CURVE SMOOTH",
"263 15 OFFCURVE",
"334 13 OFFCURVE",
"334 16 CURVE SMOOTH",
"334 18 OFFCURVE",
"315 21 OFFCURVE",
"274 27 CURVE",
"257 27 OFFCURVE",
"253 65 OFFCURVE",
"253 103 CURVE SMOOTH",
"253 125 OFFCURVE",
"255 147 OFFCURVE",
"255 162 CURVE SMOOTH",
"260 329 LINE SMOOTH",
"261 350 OFFCURVE",
"261 513 OFFCURVE",
"266 530 CURVE SMOOTH",
"268 536 OFFCURVE",
"418 325 OFFCURVE",
"423 317 CURVE SMOOTH",
"602 40 LINE SMOOTH",
"605 36 OFFCURVE",
"606 33 OFFCURVE",
"606 30 CURVE SMOOTH",
"606 14 OFFCURVE",
"560 22 OFFCURVE",
"547 15 CURVE",
"539 14 OFFCURVE",
"536 12 OFFCURVE",
"536 11 CURVE SMOOTH",
"536 10 OFFCURVE",
"546 9 OFFCURVE",
"561 9 CURVE SMOOTH",
"595 9 OFFCURVE",
"656 12 OFFCURVE",
"684 12 CURVE",
"715 15 OFFCURVE",
"720 9 OFFCURVE",
"743 9 CURVE SMOOTH",
"747 9 OFFCURVE",
"752 10 OFFCURVE",
"757 10 CURVE SMOOTH",
"794 12 LINE SMOOTH",
"823 13 OFFCURVE",
"834 15 OFFCURVE",
"834 17 CURVE SMOOTH",
"834 21 OFFCURVE",
"793 25 OFFCURVE",
"782 29 CURVE SMOOTH",
"734 50 OFFCURVE",
"687 103 OFFCURVE",
"612 209 CURVE SMOOTH",
"539 312 LINE SMOOTH",
"509 354 OFFCURVE",
"422 485 OFFCURVE",
"385 536 CURVE",
"413 542 LINE SMOOTH",
"574 576 OFFCURVE",
"634 680 OFFCURVE",
"634 774 CURVE SMOOTH",
"634 913 OFFCURVE",
"532 963 OFFCURVE",
"410 963 CURVE SMOOTH",
"371 963 OFFCURVE",
"331 959 OFFCURVE",
"292 954 CURVE SMOOTH",
"281 953 OFFCURVE",
"269 952 OFFCURVE",
"258 952 CURVE SMOOTH",
"246 952 OFFCURVE",
"233 953 OFFCURVE",
"221 953 CURVE SMOOTH",
"196 955 LINE SMOOTH",
"184 955 OFFCURVE",
"171 956 OFFCURVE",
"159 956 CURVE SMOOTH",
"149 956 OFFCURVE",
"139 956 OFFCURVE",
"129 955 CURVE SMOOTH",
"106 953 OFFCURVE",
"91 956 OFFCURVE",
"76 956 CURVE SMOOTH",
"63 956 OFFCURVE",
"50 953 OFFCURVE",
"30 944 CURVE SMOOTH",
"21 941 OFFCURVE",
"17 938 OFFCURVE",
"17 936 CURVE SMOOTH",
"17 933 OFFCURVE",
"29 932 OFFCURVE",
"44 932 CURVE SMOOTH",
"64 932 OFFCURVE",
"90 934 OFFCURVE",
"102 935 CURVE SMOOTH",
"134 937 OFFCURVE",
"142 928 OFFCURVE",
"147 899 CURVE SMOOTH",
"152 870 OFFCURVE",
"154 839 OFFCURVE",
"154 808 CURVE SMOOTH",
"154 742 OFFCURVE",
"146 675 OFFCURVE",
"146 619 CURVE SMOOTH",
"146 520 OFFCURVE",
"145 422 OFFCURVE",
"141 324 CURVE SMOOTH",
"136 176 LINE SMOOTH",
"133 86 OFFCURVE",
"123 29 OFFCURVE",
"106 26 CURVE SMOOTH",
"67 19 OFFCURVE",
"69 18 OFFCURVE",
"40 17 CURVE",
"23 13 OFFCURVE",
"16 10 OFFCURVE",
"16 9 CURVE SMOOTH",
"16 7 OFFCURVE",
"21 7 OFFCURVE",
"31 7 CURVE SMOOTH"
);
},
{
closed = 1;
nodes = (
"264 575 LINE",
"263 598 OFFCURVE",
"263 619 OFFCURVE",
"263 641 CURVE SMOOTH",
"263 695 OFFCURVE",
"264 751 OFFCURVE",
"274 804 CURVE SMOOTH",
"285 859 OFFCURVE",
"270 925 OFFCURVE",
"354 925 CURVE SMOOTH",
"457 925 OFFCURVE",
"569 852 OFFCURVE",
"569 741 CURVE SMOOTH",
"569 703 OFFCURVE",
"554 667 OFFCURVE",
"527 634 CURVE SMOOTH",
"493 594 OFFCURVE",
"431 567 OFFCURVE",
"371 570 CURVE SMOOTH"
);
}
);
width = 777;
}
);
note = R;
unicode = 0052;
},
{
glyphname = S;
layers = (
{
hints = (
{
horizontal = 1;
place = "{12, 27}";
type = Stem;
},
{
horizontal = 1;
place = "{425, 112}";
type = Stem;
},
{
horizontal = 1;
place = "{946, 24}";
type = Stem;
},
{
place = "{39, 71}";
type = Stem;
},
{
place = "{524, 14}";
type = Stem;
},
{
place = "{543, 76}";
type = Stem;
},
{
horizontal = 1;
place = "{961, -20}";
target = down;
type = TopGhost;
},
{
horizontal = 1;
place = "{965, -20}";
target = down;
type = TopGhost;
},
{
horizontal = 1;
place = "{946, 30}";
type = Stem;
}
);
layerId = "59B4545D-7A36-483A-A414-D3C0872518C3";
paths = (
{
closed = 1;
nodes = (
"68 -50 OFFCURVE",
"80 19 OFFCURVE",
"102 24 CURVE",
"109 28 OFFCURVE",
"117 29 OFFCURVE",
"125 29 CURVE SMOOTH",
"133 29 OFFCURVE",
"141 28 OFFCURVE",
"148 27 CURVE SMOOTH",
"169 26 OFFCURVE",
"236 12 OFFCURVE",
"314 12 CURVE SMOOTH",
"356 12 OFFCURVE",
"401 16 OFFCURVE",
"443 28 CURVE",
"545 69 OFFCURVE",
"619 171 OFFCURVE",
"619 282 CURVE SMOOTH",
"619 427 OFFCURVE",
"511 537 OFFCURVE",
"365 537 CURVE",
"189 551 OFFCURVE",
"110 634 OFFCURVE",
"110 761 CURVE SMOOTH",
"110 780 OFFCURVE",
"112 800 OFFCURVE",
"115 820 CURVE SMOOTH",
"128 908 OFFCURVE",
"222 946 OFFCURVE",
"307 946 CURVE SMOOTH",
"339 946 OFFCURVE",
"369 941 OFFCURVE",
"393 931 CURVE SMOOTH",
"427 914 OFFCURVE",
"470 883 OFFCURVE",
"493 854 CURVE SMOOTH",
"509 835 OFFCURVE",
"515 811 OFFCURVE",
"524 789 CURVE SMOOTH",
"523 792 OFFCURVE",
"543 750 OFFCURVE",
"546 747 CURVE SMOOTH",
"553 740 OFFCURVE",
"549 757 OFFCURVE",
"548 760 CURVE SMOOTH",
"540 781 OFFCURVE",
"538 803 OFFCURVE",
"538 826 CURVE SMOOTH",
"538 833 OFFCURVE",
"538 839 OFFCURVE",
"538 846 CURVE SMOOTH",
"541 885 LINE SMOOTH",
"541 891 OFFCURVE",
"541 898 OFFCURVE",
"541 904 CURVE SMOOTH",
"541 925 OFFCURVE",
"540 945 OFFCURVE",
"534 964 CURVE SMOOTH",
"532 972 OFFCURVE",
"530 975 OFFCURVE",
"528 975 CURVE SMOOTH",
"524 975 OFFCURVE",
"519 966 OFFCURVE",
"510 963 CURVE SMOOTH",
"505 961 OFFCURVE",
"501 961 OFFCURVE",
"496 961 CURVE SMOOTH",
"482 961 OFFCURVE",
"468 965 OFFCURVE",
"456 965 CURVE SMOOTH",
"434 965 OFFCURVE",
"414 966 OFFCURVE",
"393 970 CURVE SMOOTH",
"369 973 OFFCURVE",
"344 976 OFFCURVE",
"320 976 CURVE SMOOTH",
"306 976 OFFCURVE",
"292 975 OFFCURVE",
"279 973 CURVE SMOOTH",
"117 954 OFFCURVE",
"39 889 OFFCURVE",
"39 724 CURVE SMOOTH",
"39 693 OFFCURVE",
"42 662 OFFCURVE",
"46 632 CURVE SMOOTH",
"60 491 OFFCURVE",
"210 425 OFFCURVE",
"318 425 CURVE SMOOTH",
"456 425 OFFCURVE",
"514 391 OFFCURVE",
"541 258 CURVE SMOOTH",
"543 249 OFFCURVE",
"543 239 OFFCURVE",
"543 230 CURVE SMOOTH",
"543 117 OFFCURVE",
"421 39 OFFCURVE",
"299 39 CURVE SMOOTH",
"225 39 OFFCURVE",
"152 67 OFFCURVE",
"105 132 CURVE SMOOTH",
"91 149 OFFCURVE",
"80 171 OFFCURVE",
"71 192 CURVE SMOOTH",
"67 199 OFFCURVE",
"59 226 OFFCURVE",
"50 241 CURVE",
"45 243 OFFCURVE",
"43 238 OFFCURVE",
"43 231 CURVE SMOOTH",
"43 217 OFFCURVE",
"49 192 OFFCURVE",
"51 176 CURVE",
"54 169 OFFCURVE",
"72 109 OFFCURVE",
"72 58 CURVE SMOOTH",
"69 14 OFFCURVE",
"68 -10 OFFCURVE",
"68 -20 CURVE SMOOTH"
);
}
);
width = 634;
}
);
note = S;
unicode = 0053;
},
{
glyphname = T;
layers = (
{
hints = (
{
horizontal = 1;
place = "{9, 8}";
type = Stem;
},
{
horizontal = 1;
place = "{901, 51}";
type = Stem;
},
{
place = "{50, 15}";
type = Stem;
},
{
place = "{335, 96}";
type = Stem;
},
{
horizontal = 1;
place = "{904, 51}";
type = Stem;
}
);
layerId = "59B4545D-7A36-483A-A414-D3C0872518C3";
paths = (
{
closed = 1;
nodes = (
"364 8 OFFCURVE",
"437 9 OFFCURVE",
"473 9 CURVE SMOOTH",
"492 9 OFFCURVE",
"531 9 OFFCURVE",
"531 12 CURVE SMOOTH",
"531 13 OFFCURVE",
"525 15 OFFCURVE",
"508 17 CURVE",
"469 17 OFFCURVE",
"442 28 OFFCURVE",
"441 58 CURVE SMOOTH",
"432 392 LINE SMOOTH",
"432 490 OFFCURVE",
"432 584 OFFCURVE",
"438 682 CURVE SMOOTH",
"444 781 LINE SMOOTH",
"448 852 OFFCURVE",
"446 891 OFFCURVE",
"459 895 CURVE SMOOTH",
"470 898 OFFCURVE",
"492 901 OFFCURVE",
"521 901 CURVE SMOOTH",
"554 901 OFFCURVE",
"596 898 OFFCURVE",
"643 891 CURVE SMOOTH",
"699 883 OFFCURVE",
"706 831 OFFCURVE",
"714 797 CURVE SMOOTH",
"716 787 OFFCURVE",
"718 782 OFFCURVE",
"719 782 CURVE SMOOTH",
"721 782 OFFCURVE",
"721 793 OFFCURVE",
"721 808 CURVE SMOOTH",
"721 828 OFFCURVE",
"720 857 OFFCURVE",
"720 882 CURVE SMOOTH",
"720 900 OFFCURVE",
"721 916 OFFCURVE",
"722 925 CURVE SMOOTH",
"723 937 OFFCURVE",
"727 1007 OFFCURVE",
"721 983 CURVE SMOOTH",
"716 966 OFFCURVE",
"718 952 OFFCURVE",
"666 952 CURVE SMOOTH",
"417 951 LINE SMOOTH",
"315 951 OFFCURVE",
"208 955 OFFCURVE",
"110 955 CURVE SMOOTH",
"89 955 OFFCURVE",
"68 956 OFFCURVE",
"65 965 CURVE SMOOTH",
"57 983 OFFCURVE",
"52 990 OFFCURVE",
"50 990 CURVE SMOOTH",
"47 990 OFFCURVE",
"46 985 OFFCURVE",
"46 978 CURVE SMOOTH",
"46 975 OFFCURVE",
"46 970 OFFCURVE",
"47 965 CURVE SMOOTH",
"49 950 OFFCURVE",
"50 935 OFFCURVE",
"50 921 CURVE SMOOTH",
"50 900 OFFCURVE",
"48 881 OFFCURVE",
"48 868 CURVE SMOOTH",
"48 844 OFFCURVE",
"46 830 OFFCURVE",
"46 813 CURVE SMOOTH",
"46 799 OFFCURVE",
"47 783 OFFCURVE",
"51 759 CURVE SMOOTH",
"53 748 OFFCURVE",
"55 743 OFFCURVE",
"57 743 CURVE SMOOTH",
"65 743 OFFCURVE",
"67 860 OFFCURVE",
"91 874 CURVE SMOOTH",
"115 888 OFFCURVE",
"271 904 OFFCURVE",
"331 904 CURVE SMOOTH",
"335 904 OFFCURVE",
"335 718 OFFCURVE",
"335 698 CURVE SMOOTH",
"331 378 LINE SMOOTH",
"330 263 OFFCURVE",
"314 134 OFFCURVE",
"292 38 CURVE SMOOTH",
"287 16 OFFCURVE",
"248 19 OFFCURVE",
"225 14 CURVE SMOOTH",
"202 9 OFFCURVE",
"246 8 OFFCURVE",
"305 8 CURVE SMOOTH"
);
}
);
width = 694;
}
);
note = T;
unicode = 0054;
},
{
glyphname = U;
layers = (
{
hints = (
{
horizontal = 1;
place = "{9, 70}";
type = Stem;
},
{
horizontal = 1;
place = "{939, 14}";
type = Stem;
},
{
place = "{-20, 908}";
type = Stem;
},
{
horizontal = 1;
place = "{938, 12}";
type = Stem;
}
);
layerId = "59B4545D-7A36-483A-A414-D3C0872518C3";
paths = (
{
closed = 1;
nodes = (
"520 11 LINE SMOOTH",
"535 12 OFFCURVE",
"556 8 OFFCURVE",
"574 8 CURVE SMOOTH",
"587 8 OFFCURVE",
"598 9 OFFCURVE",
"607 15 CURVE",
"596 30 OFFCURVE",
"578 23 OFFCURVE",
"567 39 CURVE",
"562 44 OFFCURVE",
"560 51 OFFCURVE",
"560 58 CURVE SMOOTH",
"560 72 OFFCURVE",
"568 89 OFFCURVE",
"570 104 CURVE SMOOTH",
"595 255 OFFCURVE",
"659 395 OFFCURVE",
"699 543 CURVE SMOOTH",
"718 614 OFFCURVE",
"734 690 OFFCURVE",
"758 762 CURVE SMOOTH",
"795 873 LINE SMOOTH",
"803 898 OFFCURVE",
"802 920 OFFCURVE",
"831 932 CURVE SMOOTH",
"841 936 OFFCURVE",
"888 946 OFFCURVE",
"888 951 CURVE SMOOTH",
"888 953 OFFCURVE",
"879 954 OFFCURVE",
"854 953 CURVE SMOOTH",
"649 953 LINE SMOOTH",
"635 953 OFFCURVE",
"620 953 OFFCURVE",
"614 952 CURVE SMOOTH",
"597 949 OFFCURVE",
"590 947 OFFCURVE",
"590 946 CURVE SMOOTH",
"590 940 OFFCURVE",
"660 939 OFFCURVE",
"662 939 CURVE SMOOTH",
"685 939 LINE SMOOTH",
"709 939 OFFCURVE",
"722 932 OFFCURVE",
"722 908 CURVE SMOOTH",
"722 883 OFFCURVE",
"710 852 OFFCURVE",
"707 833 CURVE SMOOTH",
"682 696 OFFCURVE",
"642 564 OFFCURVE",
"614 428 CURVE SMOOTH",
"598 341 OFFCURVE",
"558 252 OFFCURVE",
"542 159 CURVE SMOOTH",
"537 128 OFFCURVE",
"520 108 OFFCURVE",
"509 80 CURVE",
"486 77 OFFCURVE",
"441 283 OFFCURVE",
"434 306 CURVE SMOOTH",
"383 484 LINE SMOOTH",
"353 588 OFFCURVE",
"313 681 OFFCURVE",
"289 784 CURVE SMOOTH",
"270 865 LINE SMOOTH",
"267 877 OFFCURVE",
"265 887 OFFCURVE",
"265 897 CURVE SMOOTH",
"265 906 OFFCURVE",
"267 914 OFFCURVE",
"275 921 CURVE SMOOTH",
"287 933 OFFCURVE",
"326 944 OFFCURVE",
"326 950 CURVE SMOOTH",
"326 952 OFFCURVE",
"321 953 OFFCURVE",
"306 953 CURVE SMOOTH",
"245 953 OFFCURVE",
"241 952 OFFCURVE",
"193 952 CURVE SMOOTH",
"156 952 OFFCURVE",
"128 955 OFFCURVE",
"89 955 CURVE SMOOTH",
"73 955 OFFCURVE",
"56 954 OFFCURVE",
"35 953 CURVE SMOOTH",
"-5 950 LINE SMOOTH",
"-16 950 OFFCURVE",
"-20 948 OFFCURVE",
"-20 947 CURVE SMOOTH",
"-20 943 OFFCURVE",
"1 938 OFFCURVE",
"19 938 CURVE SMOOTH",
"53 938 OFFCURVE",
"54 932 OFFCURVE",
"75 909 CURVE SMOOTH",
"116 864 OFFCURVE",
"141 800 OFFCURVE",
"160 748 CURVE SMOOTH",
"196 649 OFFCURVE",
"229 549 OFFCURVE",
"262 451 CURVE SMOOTH",
"336 234 LINE SMOOTH",
"356 175 OFFCURVE",
"367 119 OFFCURVE",
"387 56 CURVE",
"394 43 OFFCURVE",
"396 35 OFFCURVE",
"396 30 CURVE SMOOTH",
"396 15 OFFCURVE",
"376 24 OFFCURVE",
"374 10 CURVE",
"424 8 LINE"
);
}
);
width = 889;
}
);
note = U;
unicode = 0055;
},
{
glyphname = V;
layers = (
{
hints = (
{
horizontal = 1;
place = "{9, 70}";
type = Stem;
},
{
horizontal = 1;
place = "{939, 14}";
type = Stem;
},
{
place = "{-20, 908}";
type = Stem;
},
{
horizontal = 1;
place = "{938, 12}";
type = Stem;
}
);
layerId = "59B4545D-7A36-483A-A414-D3C0872518C3";
paths = (
{
closed = 1;
nodes = (
"520 11 LINE SMOOTH",
"535 12 OFFCURVE",
"556 8 OFFCURVE",
"574 8 CURVE SMOOTH",
"587 8 OFFCURVE",
"598 9 OFFCURVE",
"607 15 CURVE",
"596 30 OFFCURVE",
"578 23 OFFCURVE",
"567 39 CURVE",
"562 44 OFFCURVE",
"560 51 OFFCURVE",
"560 58 CURVE SMOOTH",
"560 72 OFFCURVE",
"568 89 OFFCURVE",
"570 104 CURVE SMOOTH",
"595 255 OFFCURVE",
"659 395 OFFCURVE",
"699 543 CURVE SMOOTH",
"718 614 OFFCURVE",
"734 690 OFFCURVE",
"758 762 CURVE SMOOTH",
"795 873 LINE SMOOTH",
"803 898 OFFCURVE",
"802 920 OFFCURVE",
"831 932 CURVE SMOOTH",
"841 936 OFFCURVE",
"888 946 OFFCURVE",
"888 951 CURVE SMOOTH",
"888 953 OFFCURVE",
"879 954 OFFCURVE",
"854 953 CURVE SMOOTH",
"649 953 LINE SMOOTH",
"635 953 OFFCURVE",
"620 953 OFFCURVE",
"614 952 CURVE SMOOTH",
"597 949 OFFCURVE",
"590 947 OFFCURVE",
"590 946 CURVE SMOOTH",
"590 940 OFFCURVE",
"660 939 OFFCURVE",
"662 939 CURVE SMOOTH",
"685 939 LINE SMOOTH",
"709 939 OFFCURVE",
"722 932 OFFCURVE",
"722 908 CURVE SMOOTH",
"722 883 OFFCURVE",
"710 852 OFFCURVE",
"707 833 CURVE SMOOTH",
"682 696 OFFCURVE",
"642 564 OFFCURVE",
"614 428 CURVE SMOOTH",
"598 341 OFFCURVE",
"558 252 OFFCURVE",
"542 159 CURVE SMOOTH",
"537 128 OFFCURVE",
"520 108 OFFCURVE",
"509 80 CURVE",
"486 77 OFFCURVE",
"441 283 OFFCURVE",
"434 306 CURVE SMOOTH",
"383 484 LINE SMOOTH",
"353 588 OFFCURVE",
"313 681 OFFCURVE",
"289 784 CURVE SMOOTH",
"270 865 LINE SMOOTH",
"267 877 OFFCURVE",
"265 887 OFFCURVE",
"265 897 CURVE SMOOTH",
"265 906 OFFCURVE",
"267 914 OFFCURVE",
"275 921 CURVE SMOOTH",
"287 933 OFFCURVE",
"326 944 OFFCURVE",
"326 950 CURVE SMOOTH",
"326 952 OFFCURVE",
"321 953 OFFCURVE",
"306 953 CURVE SMOOTH",
"245 953 OFFCURVE",
"241 952 OFFCURVE",
"193 952 CURVE SMOOTH",
"156 952 OFFCURVE",
"128 955 OFFCURVE",
"89 955 CURVE SMOOTH",
"73 955 OFFCURVE",
"56 954 OFFCURVE",
"35 953 CURVE SMOOTH",
"-5 950 LINE SMOOTH",
"-16 950 OFFCURVE",
"-20 948 OFFCURVE",
"-20 947 CURVE SMOOTH",
"-20 943 OFFCURVE",
"1 938 OFFCURVE",
"19 938 CURVE SMOOTH",
"53 938 OFFCURVE",
"54 932 OFFCURVE",
"75 909 CURVE SMOOTH",
"116 864 OFFCURVE",
"141 800 OFFCURVE",
"160 748 CURVE SMOOTH",
"196 649 OFFCURVE",
"229 549 OFFCURVE",
"262 451 CURVE SMOOTH",
"336 234 LINE SMOOTH",
"356 175 OFFCURVE",
"367 119 OFFCURVE",
"387 56 CURVE",
"394 43 OFFCURVE",
"396 35 OFFCURVE",
"396 30 CURVE SMOOTH",
"396 15 OFFCURVE",
"376 24 OFFCURVE",
"374 10 CURVE",
"424 8 LINE"
);
}
);
width = 889;
}
);
note = V;
unicode = 0056;
},
{
glyphname = W;
layers = (
{
hints = (
{
horizontal = 1;
place = "{940, 36}";
type = Stem;
},
{
place = "{74, 88}";
type = Stem;
},
{
place = "{490, 84}";
type = Stem;
},
{
place = "{92, 96}";
type = Stem;
}
);
layerId = "59B4545D-7A36-483A-A414-D3C0872518C3";
paths = (
{
closed = 1;
nodes = (
"149 -362 LINE SMOOTH",
"188 -362 OFFCURVE",
"218 -362 OFFCURVE",
"218 -358 CURVE SMOOTH",
"218 -356 OFFCURVE",
"212 -353 OFFCURVE",
"197 -350 CURVE SMOOTH",
"178 -346 OFFCURVE",
"156 -350 OFFCURVE",
"152 -332 CURVE SMOOTH",
"147 -311 OFFCURVE",
"146 -296 OFFCURVE",
"146 -276 CURVE SMOOTH",
"146 -262 OFFCURVE",
"147 -245 OFFCURVE",
"147 -222 CURVE SMOOTH",
"151 -161 OFFCURVE",
"156 -91 OFFCURVE",
"158 -31 CURVE SMOOTH",
"159 -12 OFFCURVE",
"211 50 OFFCURVE",
"289 173 CURVE SMOOTH",
"374 308 OFFCURVE",
"574 658 OFFCURVE",
"574 819 CURVE SMOOTH",
"574 835 OFFCURVE",
"572 851 OFFCURVE",
"569 867 CURVE SMOOTH",
"553 954 OFFCURVE",
"497 976 OFFCURVE",
"395 976 CURVE SMOOTH",
"340 976 OFFCURVE",
"273 970 OFFCURVE",
"191 964 CURVE SMOOTH",
"170 962 OFFCURVE",
"112 962 OFFCURVE",
"47 958 CURVE SMOOTH",
"5 955 OFFCURVE",
"-9 953 OFFCURVE",
"-9 950 CURVE SMOOTH",
"-9 944 OFFCURVE",
"79 936 OFFCURVE",
"80 920 CURVE SMOOTH",
"86 862 OFFCURVE",
"92 749 OFFCURVE",
"92 646 CURVE SMOOTH",
"92 539 OFFCURVE",
"82 298 OFFCURVE",
"79 200 CURVE SMOOTH",
"70 -204 LINE",
"66 -250 OFFCURVE",
"68 -283 OFFCURVE",
"47 -332 CURVE SMOOTH",
"37 -355 OFFCURVE",
"25 -348 OFFCURVE",
"-5 -355 CURVE SMOOTH",
"-15 -357 OFFCURVE",
"-19 -359 OFFCURVE",
"-19 -360 CURVE SMOOTH",
"-19 -362 OFFCURVE",
"-5 -362 OFFCURVE",
"24 -362 CURVE SMOOTH"
);
},
{
closed = 1;
nodes = (
"171 232 OFFCURVE",
"179 436 OFFCURVE",
"188 623 CURVE SMOOTH",
"196 786 OFFCURVE",
"194 865 OFFCURVE",
"197 878 CURVE SMOOTH",
"208 918 OFFCURVE",
"233 926 OFFCURVE",
"265 932 CURVE SMOOTH",
"285 936 OFFCURVE",
"309 940 OFFCURVE",
"334 940 CURVE SMOOTH",
"442 940 OFFCURVE",
"490 843 OFFCURVE",
"490 748 CURVE SMOOTH",
"490 629 OFFCURVE",
"416 503 OFFCURVE",
"370 410 CURVE SMOOTH",
"281 230 OFFCURVE",
"160 -1 OFFCURVE",
"163 44 CURVE SMOOTH"
);
}
);
width = 614;
}
);
note = W;
unicode = 0057;
},
{
glyphname = X;
layers = (
{
hints = (
{
horizontal = 1;
place = "{9, 9}";
type = Stem;
},
{
horizontal = 1;
place = "{949, -20}";
target = down;
type = TopGhost;
},
{
horizontal = 1;
place = "{954, -20}";
target = down;
type = TopGhost;
},
{
place = "{-63, 692}";
type = Stem;
}
);
layerId = "59B4545D-7A36-483A-A414-D3C0872518C3";
paths = (
{
closed = 1;
nodes = (
"449 7 OFFCURVE",
"506 9 OFFCURVE",
"540 9 CURVE SMOOTH",
"550 9 OFFCURVE",
"649 11 OFFCURVE",
"625 17 CURVE SMOOTH",
"562 32 OFFCURVE",
"574 25 OFFCURVE",
"528 110 CURVE",
"486 218 OFFCURVE",
"437 346 OFFCURVE",
"401 477 CURVE SMOOTH",
"369 595 LINE",
"370 611 OFFCURVE",
"397 652 OFFCURVE",
"411 684 CURVE SMOOTH",
"447 763 OFFCURVE",
"472 813 OFFCURVE",
"489 840 CURVE SMOOTH",
"524 896 OFFCURVE",
"546 925 OFFCURVE",
"566 930 CURVE SMOOTH",
"590 936 OFFCURVE",
"614 941 OFFCURVE",
"614 945 CURVE SMOOTH",
"614 947 OFFCURVE",
"606 948 OFFCURVE",
"584 948 CURVE SMOOTH",
"578 948 OFFCURVE",
"569 948 OFFCURVE",
"559 949 CURVE SMOOTH",
"495 951 LINE SMOOTH",
"485 952 OFFCURVE",
"476 952 OFFCURVE",
"470 952 CURVE SMOOTH",
"438 952 OFFCURVE",
"399 954 OFFCURVE",
"377 954 CURVE SMOOTH",
"366 954 OFFCURVE",
"359 954 OFFCURVE",
"359 952 CURVE SMOOTH",
"359 951 OFFCURVE",
"363 950 OFFCURVE",
"370 948 CURVE",
"425 943 OFFCURVE",
"430 933 OFFCURVE",
"430 887 CURVE SMOOTH",
"430 853 LINE SMOOTH",
"430 820 OFFCURVE",
"417 788 OFFCURVE",
"406 754 CURVE SMOOTH",
"398 733 OFFCURVE",
"357 627 OFFCURVE",
"347 649 CURVE",
"304 788 LINE SMOOTH",
"296 812 OFFCURVE",
"270 864 OFFCURVE",
"270 899 CURVE SMOOTH",
"270 911 OFFCURVE",
"274 921 OFFCURVE",
"282 927 CURVE SMOOTH",
"302 940 OFFCURVE",
"364 970 OFFCURVE",
"364 974 CURVE",
"364 974 OFFCURVE",
"358 974 OFFCURVE",
"347 970 CURVE SMOOTH",
"292 948 OFFCURVE",
"292 948 OFFCURVE",
"175 948 CURVE SMOOTH",
"160 948 OFFCURVE",
"135 949 OFFCURVE",
"112 949 CURVE SMOOTH",
"82 949 OFFCURVE",
"54 948 OFFCURVE",
"54 943 CURVE SMOOTH",
"54 942 OFFCURVE",
"58 940 OFFCURVE",
"67 937 CURVE SMOOTH",
"90 931 OFFCURVE",
"109 934 OFFCURVE",
"115 920 CURVE SMOOTH",
"179 766 OFFCURVE",
"270 568 OFFCURVE",
"270 518 CURVE SMOOTH",
"270 497 OFFCURVE",
"270 497 OFFCURVE",
"260 477 CURVE SMOOTH",
"222 404 OFFCURVE",
"208 364 OFFCURVE",
"164 262 CURVE SMOOTH",
"131 186 OFFCURVE",
"121 155 OFFCURVE",
"78 94 CURVE SMOOTH",
"45 47 OFFCURVE",
"42 36 OFFCURVE",
"10 22 CURVE",
"-1 19 OFFCURVE",
"-10 18 OFFCURVE",
"-18 18 CURVE SMOOTH",
"-27 18 OFFCURVE",
"-35 19 OFFCURVE",
"-42 19 CURVE SMOOTH",
"-49 19 OFFCURVE",
"-55 18 OFFCURVE",
"-62 15 CURVE SMOOTH",
"-76 8 OFFCURVE",
"41 9 OFFCURVE",
"52 9 CURVE SMOOTH",
"116 10 LINE",
"163 10 LINE SMOOTH",
"187 10 OFFCURVE",
"210 10 OFFCURVE",
"210 13 CURVE SMOOTH",
"210 14 OFFCURVE",
"208 15 OFFCURVE",
"202 17 CURVE SMOOTH",
"163 26 OFFCURVE",
"150 12 OFFCURVE",
"153 47 CURVE SMOOTH",
"164 171 OFFCURVE",
"218 295 OFFCURVE",
"282 401 CURVE SMOOTH",
"297 425 OFFCURVE",
"305 434 OFFCURVE",
"310 434 CURVE SMOOTH",
"319 434 OFFCURVE",
"323 412 OFFCURVE",
"336 390 CURVE",
"401 208 LINE SMOOTH",
"413 174 OFFCURVE",
"439 113 OFFCURVE",
"439 68 CURVE SMOOTH",
"439 56 OFFCURVE",
"437 46 OFFCURVE",
"433 37 CURVE SMOOTH",
"422 14 OFFCURVE",
"416 15 OFFCURVE",
"383 16 CURVE",
"372 14 OFFCURVE",
"368 12 OFFCURVE",
"368 10 CURVE SMOOTH",
"368 8 OFFCURVE",
"385 7 OFFCURVE",
"409 7 CURVE SMOOTH"
);
}
);
width = 609;
}
);
note = X;
unicode = 0058;
},
{
glyphname = Y;
layers = (
{
hints = (
{
horizontal = 1;
place = "{954, -20}";
target = down;
type = TopGhost;
},
{
horizontal = 1;
place = "{960, -20}";
target = down;
type = TopGhost;
},
{
place = "{0, 796}";
type = Stem;
}
);
layerId = "59B4545D-7A36-483A-A414-D3C0872518C3";
paths = (
{
closed = 1;
nodes = (
"184 6 OFFCURVE",
"279 12 OFFCURVE",
"383 19 CURVE",
"414 29 OFFCURVE",
"328 19 OFFCURVE",
"322 51 CURVE SMOOTH",
"321 56 OFFCURVE",
"321 61 OFFCURVE",
"321 66 CURVE SMOOTH",
"321 113 OFFCURVE",
"353 157 OFFCURVE",
"374 196 CURVE SMOOTH",
"531 513 LINE SMOOTH",
"580 617 OFFCURVE",
"632 719 OFFCURVE",
"684 824 CURVE SMOOTH",
"699 853 OFFCURVE",
"710 884 OFFCURVE",
"732 911 CURVE SMOOTH",
"745 927 OFFCURVE",
"750 929 OFFCURVE",
"761 936 CURVE SMOOTH",
"775 945 OFFCURVE",
"807 949 OFFCURVE",
"792 960 CURVE",
"748 963 OFFCURVE",
"706 954 OFFCURVE",
"662 954 CURVE SMOOTH",
"638 954 OFFCURVE",
"596 960 OFFCURVE",
"569 960 CURVE SMOOTH",
"557 960 OFFCURVE",
"548 959 OFFCURVE",
"544 956 CURVE SMOOTH",
"533 948 OFFCURVE",
"578 948 OFFCURVE",
"610 922 CURVE SMOOTH",
"624 910 OFFCURVE",
"631 905 OFFCURVE",
"631 896 CURVE SMOOTH",
"631 889 OFFCURVE",
"628 880 OFFCURVE",
"620 864 CURVE SMOOTH",
"573 760 OFFCURVE",
"511 594 OFFCURVE",
"459 493 CURVE",
"403 577 OFFCURVE",
"351 667 OFFCURVE",
"299 757 CURVE SMOOTH",
"273 803 OFFCURVE",
"247 853 OFFCURVE",
"217 899 CURVE SMOOTH",
"210 909 OFFCURVE",
"202 934 OFFCURVE",
"202 949 CURVE SMOOTH",
"202 955 OFFCURVE",
"204 960 OFFCURVE",
"208 960 CURVE SMOOTH",
"178 960 OFFCURVE",
"139 958 OFFCURVE",
"117 956 CURVE SMOOTH",
"62 950 OFFCURVE",
"0 955 OFFCURVE",
"0 948 CURVE SMOOTH",
"0 945 OFFCURVE",
"10 941 OFFCURVE",
"34 933 CURVE SMOOTH",
"75 920 OFFCURVE",
"132 843 OFFCURVE",
"169 773 CURVE SMOOTH",
"225 667 OFFCURVE",
"302 574 OFFCURVE",
"360 470 CURVE SMOOTH",
"371 448 OFFCURVE",
"380 425 OFFCURVE",
"395 405 CURVE SMOOTH",
"400 398 OFFCURVE",
"405 396 OFFCURVE",
"405 391 CURVE SMOOTH",
"405 389 OFFCURVE",
"404 385 OFFCURVE",
"400 379 CURVE SMOOTH",
"392 365 OFFCURVE",
"208 28 OFFCURVE",
"137 13 CURVE SMOOTH",
"127 11 OFFCURVE",
"123 9 OFFCURVE",
"123 8 CURVE SMOOTH",
"123 7 OFFCURVE",
"130 6 OFFCURVE",
"144 6 CURVE SMOOTH"
);
}
);
width = 716;
}
);
note = Y;
unicode = 0059;
},
{
glyphname = Ygrave;
layers = (
{
hints = (
{
horizontal = 1;
place = "{954, -20}";
target = down;
type = TopGhost;
},
{
horizontal = 1;
place = "{960, -20}";
target = down;
type = TopGhost;
},
{
horizontal = 1;
place = "{962, -20}";
target = down;
type = TopGhost;
},
{
horizontal = 1;
place = "{1016, 57}";
type = Stem;
},
{
place = "{10, 804}";
type = Stem;
}
);
layerId = "59B4545D-7A36-483A-A414-D3C0872518C3";
paths = (
{
closed = 1;
nodes = (
"483 1003 OFFCURVE",
"488 1006 OFFCURVE",
"492 1018 CURVE SMOOTH",
"494 1022 OFFCURVE",
"494 1026 OFFCURVE",
"494 1030 CURVE SMOOTH",
"494 1058 OFFCURVE",
"456 1073 OFFCURVE",
"437 1073 CURVE SMOOTH",
"431 1073 OFFCURVE",
"427 1072 OFFCURVE",
"426 1069 CURVE",
"417 1059 OFFCURVE",
"407 1044 OFFCURVE",
"399 1020 CURVE SMOOTH",
"398 1015 OFFCURVE",
"402 1014 OFFCURVE",
"408 1014 CURVE SMOOTH",
"416 1014 OFFCURVE",
"428 1016 OFFCURVE",
"438 1016 CURVE SMOOTH",
"457 1016 OFFCURVE",
"468 1003 OFFCURVE",
"478 1003 CURVE SMOOTH"
);
},
{
closed = 1;
nodes = (
"194 6 OFFCURVE",
"289 12 OFFCURVE",
"393 19 CURVE",
"424 29 OFFCURVE",
"338 19 OFFCURVE",
"332 51 CURVE SMOOTH",
"331 56 OFFCURVE",
"331 61 OFFCURVE",
"331 66 CURVE SMOOTH",
"331 113 OFFCURVE",
"363 157 OFFCURVE",
"384 196 CURVE SMOOTH",
"541 513 LINE SMOOTH",
"590 617 OFFCURVE",
"649 719 OFFCURVE",
"701 824 CURVE SMOOTH",
"716 853 OFFCURVE",
"724 882 OFFCURVE",
"742 911 CURVE",
"747 922 OFFCURVE",
"756 934 OFFCURVE",
"765 942 CURVE",
"778 950 OFFCURVE",
"814 956 OFFCURVE",
"814 959 CURVE SMOOTH",
"814 960 OFFCURVE",
"808 961 OFFCURVE",
"790 961 CURVE SMOOTH",
"751 961 OFFCURVE",
"710 954 OFFCURVE",
"672 954 CURVE SMOOTH",
"647 954 OFFCURVE",
"594 962 OFFCURVE",
"562 962 CURVE SMOOTH",
"550 962 OFFCURVE",
"542 961 OFFCURVE",
"538 958 CURVE SMOOTH",
"527 950 OFFCURVE",
"597 952 OFFCURVE",
"620 919 CURVE SMOOTH",
"631 902 OFFCURVE",
"636 884 OFFCURVE",
"636 865 CURVE SMOOTH",
"636 843 OFFCURVE",
"630 820 OFFCURVE",
"620 800 CURVE SMOOTH",
"573 696 OFFCURVE",
"521 594 OFFCURVE",
"469 493 CURVE",
"413 577 OFFCURVE",
"361 667 OFFCURVE",
"309 757 CURVE SMOOTH",
"283 803 OFFCURVE",
"257 853 OFFCURVE",
"227 899 CURVE SMOOTH",
"220 909 OFFCURVE",
"212 934 OFFCURVE",
"212 949 CURVE SMOOTH",
"212 955 OFFCURVE",
"214 960 OFFCURVE",
"218 960 CURVE SMOOTH",
"188 960 OFFCURVE",
"149 958 OFFCURVE",
"127 956 CURVE SMOOTH",
"72 950 OFFCURVE",
"10 955 OFFCURVE",
"10 948 CURVE SMOOTH",
"10 945 OFFCURVE",
"20 941 OFFCURVE",
"44 933 CURVE SMOOTH",
"85 920 OFFCURVE",
"142 843 OFFCURVE",
"179 773 CURVE SMOOTH",
"235 667 OFFCURVE",
"312 574 OFFCURVE",
"370 470 CURVE SMOOTH",
"381 448 OFFCURVE",
"390 425 OFFCURVE",
"405 405 CURVE SMOOTH",
"410 398 OFFCURVE",
"415 396 OFFCURVE",
"415 391 CURVE SMOOTH",
"415 389 OFFCURVE",
"414 385 OFFCURVE",
"410 379 CURVE SMOOTH",
"402 365 OFFCURVE",
"218 28 OFFCURVE",
"147 13 CURVE SMOOTH",
"137 11 OFFCURVE",
"133 9 OFFCURVE",
"133 8 CURVE SMOOTH",
"133 7 OFFCURVE",
"140 6 OFFCURVE",
"154 6 CURVE SMOOTH"
);
}
);
width = 824;
}
);
note = Ygrave;
unicode = 1EF2;
},
{
glyphname = Z;
layers = (
{
hints = (
{
horizontal = 1;
place = "{17, 34}";
type = Stem;
},
{
horizontal = 1;
place = "{917, 33}";
type = Stem;
},
{
place = "{76, 27}";
type = Stem;
},
{
horizontal = 1;
place = "{917, 36}";
type = Stem;
}
);
layerId = "59B4545D-7A36-483A-A414-D3C0872518C3";
paths = (
{
closed = 1;
nodes = (
"776 -77 OFFCURVE",
"780 -53 OFFCURVE",
"780 30 CURVE SMOOTH",
"780 76 LINE SMOOTH",
"780 110 OFFCURVE",
"791 184 OFFCURVE",
"786 184 CURVE SMOOTH",
"785 184 OFFCURVE",
"783 180 OFFCURVE",
"780 171 CURVE SMOOTH",
"747 76 OFFCURVE",
"670 79 OFFCURVE",
"564 67 CURVE SMOOTH",
"425 51 OFFCURVE",
"298 51 OFFCURVE",
"177 51 CURVE SMOOTH",
"169 51 OFFCURVE",
"166 53 OFFCURVE",
"166 58 CURVE SMOOTH",
"166 74 OFFCURVE",
"211 123 OFFCURVE",
"271 218 CURVE SMOOTH",
"370 376 OFFCURVE",
"415 408 OFFCURVE",
"570 626 CURVE SMOOTH",
"605 675 OFFCURVE",
"691 790 OFFCURVE",
"725 835 CURVE SMOOTH",
"755 875 OFFCURVE",
"774 895 OFFCURVE",
"793 935 CURVE SMOOTH",
"800 950 OFFCURVE",
"774 954 OFFCURVE",
"736 954 CURVE SMOOTH",
"698 954 OFFCURVE",
"649 950 OFFCURVE",
"611 950 CURVE SMOOTH",
"603 950 OFFCURVE",
"594 950 OFFCURVE",
"585 950 CURVE SMOOTH",
"534 953 LINE SMOOTH",
"525 953 OFFCURVE",
"517 953 OFFCURVE",
"508 953 CURVE SMOOTH",
"454 953 OFFCURVE",
"399 951 OFFCURVE",
"348 951 CURVE SMOOTH",
"331 951 OFFCURVE",
"303 950 OFFCURVE",
"271 950 CURVE SMOOTH",
"197 950 OFFCURVE",
"105 954 OFFCURVE",
"96 980 CURVE SMOOTH",
"92 992 OFFCURVE",
"88 998 OFFCURVE",
"86 998 CURVE SMOOTH",
"81 998 OFFCURVE",
"79 983 OFFCURVE",
"79 956 CURVE SMOOTH",
"79 947 OFFCURVE",
"79 935 OFFCURVE",
"80 923 CURVE SMOOTH",
"82 863 OFFCURVE",
"76 833 OFFCURVE",
"76 781 CURVE SMOOTH",
"76 751 OFFCURVE",
"78 739 OFFCURVE",
"81 739 CURVE SMOOTH",
"87 739 OFFCURVE",
"97 790 OFFCURVE",
"103 837 CURVE SMOOTH",
"111 897 OFFCURVE",
"231 903 OFFCURVE",
"320 906 CURVE SMOOTH",
"399 908 OFFCURVE",
"512 917 OFFCURVE",
"585 917 CURVE SMOOTH",
"631 917 OFFCURVE",
"662 914 OFFCURVE",
"659 903 CURVE",
"601 816 OFFCURVE",
"495 689 OFFCURVE",
"318 447 CURVE SMOOTH",
"225 320 OFFCURVE",
"203 303 OFFCURVE",
"18 33 CURVE",
"9 14 OFFCURVE",
"42 9 OFFCURVE",
"86 9 CURVE SMOOTH",
"126 9 OFFCURVE",
"173 13 OFFCURVE",
"206 15 CURVE SMOOTH",
"249 17 OFFCURVE",
"335 17 OFFCURVE",
"426 17 CURVE SMOOTH",
"517 17 OFFCURVE",
"614 17 OFFCURVE",
"676 19 CURVE SMOOTH",
"734 21 OFFCURVE",
"749 26 OFFCURVE",
"762 -47 CURVE SMOOTH",
"764 -60 OFFCURVE",
"768 -77 OFFCURVE",
"772 -77 CURVE SMOOTH"
);
}
);
width = 835;
}
);
note = Z;
unicode = 005A;
},
{
glyphname = uni01F7;
layers = (
{
hints = (
{
horizontal = 1;
place = "{940, 36}";
type = Stem;
},
{
place = "{74, 88}";
type = Stem;
},
{
place = "{490, 84}";
type = Stem;
},
{
place = "{92, 96}";
type = Stem;
}
);
layerId = "59B4545D-7A36-483A-A414-D3C0872518C3";
paths = (
{
closed = 1;
nodes = (
"149 -362 LINE SMOOTH",
"188 -362 OFFCURVE",
"218 -362 OFFCURVE",
"218 -358 CURVE SMOOTH",
"218 -356 OFFCURVE",
"212 -353 OFFCURVE",
"197 -350 CURVE SMOOTH",
"178 -346 OFFCURVE",
"156 -350 OFFCURVE",
"152 -332 CURVE SMOOTH",
"147 -311 OFFCURVE",
"146 -296 OFFCURVE",
"146 -276 CURVE SMOOTH",
"146 -262 OFFCURVE",
"147 -245 OFFCURVE",
"147 -222 CURVE SMOOTH",
"151 -161 OFFCURVE",
"156 -91 OFFCURVE",
"158 -31 CURVE SMOOTH",
"159 -12 OFFCURVE",
"211 50 OFFCURVE",
"289 173 CURVE SMOOTH",
"374 308 OFFCURVE",
"574 658 OFFCURVE",
"574 819 CURVE SMOOTH",
"574 835 OFFCURVE",
"572 851 OFFCURVE",
"569 867 CURVE SMOOTH",
"553 954 OFFCURVE",
"497 976 OFFCURVE",
"395 976 CURVE SMOOTH",
"340 976 OFFCURVE",
"273 970 OFFCURVE",
"191 964 CURVE SMOOTH",
"170 962 OFFCURVE",
"112 962 OFFCURVE",
"47 958 CURVE SMOOTH",
"5 955 OFFCURVE",
"-9 953 OFFCURVE",
"-9 950 CURVE SMOOTH",
"-9 944 OFFCURVE",
"79 936 OFFCURVE",
"80 920 CURVE SMOOTH",
"86 862 OFFCURVE",
"92 749 OFFCURVE",
"92 646 CURVE SMOOTH",
"92 539 OFFCURVE",
"82 298 OFFCURVE",
"79 200 CURVE SMOOTH",
"70 -204 LINE",
"66 -250 OFFCURVE",
"68 -283 OFFCURVE",
"47 -332 CURVE SMOOTH",
"37 -355 OFFCURVE",
"25 -348 OFFCURVE",
"-5 -355 CURVE SMOOTH",
"-15 -357 OFFCURVE",
"-19 -359 OFFCURVE",
"-19 -360 CURVE SMOOTH",
"-19 -362 OFFCURVE",
"-5 -362 OFFCURVE",
"24 -362 CURVE SMOOTH"
);
},
{
closed = 1;
nodes = (
"171 232 OFFCURVE",
"179 436 OFFCURVE",
"188 623 CURVE SMOOTH",
"196 786 OFFCURVE",
"194 865 OFFCURVE",
"197 878 CURVE SMOOTH",
"208 918 OFFCURVE",
"233 926 OFFCURVE",
"265 932 CURVE SMOOTH",
"285 936 OFFCURVE",
"309 940 OFFCURVE",
"334 940 CURVE SMOOTH",
"442 940 OFFCURVE",
"490 843 OFFCURVE",
"490 748 CURVE SMOOTH",
"490 629 OFFCURVE",
"416 503 OFFCURVE",
"370 410 CURVE SMOOTH",
"281 230 OFFCURVE",
"160 -1 OFFCURVE",
"163 44 CURVE SMOOTH"
);
}
);
width = 614;
}
);
note = uni01F7;
unicode = 01F7;
},
{
glyphname = a;
layers = (
{
hints = (
{
horizontal = 1;
place = "{12, 76}";
type = Stem;
},
{
horizontal = 1;
place = "{1, 21}";
target = up;
type = BottomGhost;
},
{
horizontal = 1;
place = "{409, 59}";
type = Stem;
},
{
place = "{15, 73}";
type = Stem;
},
{
place = "{305, 68}";
type = Stem;
},
{
place = "{318, 77}";
type = Stem;
}
);
layerId = "59B4545D-7A36-483A-A414-D3C0872518C3";
paths = (
{
closed = 1;
nodes = (
"357 1 OFFCURVE",
"374 12 OFFCURVE",
"404 32 CURVE SMOOTH",
"430 49 OFFCURVE",
"488 91 OFFCURVE",
"511 114 CURVE SMOOTH",
"533 136 OFFCURVE",
"539 144 OFFCURVE",
"537 144 CURVE SMOOTH",
"533 144 OFFCURVE",
"487 105 OFFCURVE",
"462 90 CURVE SMOOTH",
"442 78 OFFCURVE",
"428 73 OFFCURVE",
"417 73 CURVE SMOOTH",
"405 73 OFFCURVE",
"396 79 OFFCURVE",
"383 88 CURVE",
"375 96 OFFCURVE",
"373 113 OFFCURVE",
"373 135 CURVE SMOOTH",
"373 199 OFFCURVE",
"395 306 OFFCURVE",
"395 379 CURVE SMOOTH",
"395 438 OFFCURVE",
"390 479 OFFCURVE",
"375 478 CURVE SMOOTH",
"343 476 OFFCURVE",
"323 468 OFFCURVE",
"277 468 CURVE SMOOTH",
"232 468 OFFCURVE",
"188 456 OFFCURVE",
"145 446 CURVE SMOOTH",
"103 436 OFFCURVE",
"79 443 OFFCURVE",
"49 419 CURVE SMOOTH",
"21 397 OFFCURVE",
"15 358 OFFCURVE",
"15 318 CURVE SMOOTH",
"15 265 OFFCURVE",
"16 208 OFFCURVE",
"23 173 CURVE SMOOTH",
"32 127 OFFCURVE",
"30 73 OFFCURVE",
"67 35 CURVE SMOOTH",
"83 19 OFFCURVE",
"99 12 OFFCURVE",
"118 12 CURVE SMOOTH",
"151 12 OFFCURVE",
"190 35 OFFCURVE",
"236 65 CURVE SMOOTH",
"241 69 OFFCURVE",
"286 95 OFFCURVE",
"295 102 CURVE",
"295 72 OFFCURVE",
"298 8 OFFCURVE",
"320 3 CURVE SMOOTH",
"326 2 OFFCURVE",
"331 1 OFFCURVE",
"336 1 CURVE SMOOTH"
);
},
{
closed = 1;
nodes = (
"186 88 OFFCURVE",
"180 88 OFFCURVE",
"175 90 CURVE SMOOTH",
"111 111 OFFCURVE",
"88 242 OFFCURVE",
"88 304 CURVE SMOOTH",
"88 383 OFFCURVE",
"141 385 OFFCURVE",
"197 399 CURVE SMOOTH",
"217 404 OFFCURVE",
"239 409 OFFCURVE",
"260 409 CURVE SMOOTH",
"308 409 OFFCURVE",
"318 393 OFFCURVE",
"318 350 CURVE SMOOTH",
"318 337 OFFCURVE",
"317 320 OFFCURVE",
"316 301 CURVE SMOOTH",
"313 248 OFFCURVE",
"308 196 OFFCURVE",
"305 142 CURVE SMOOTH",
"303 112 OFFCURVE",
"234 88 OFFCURVE",
"194 88 CURVE SMOOTH"
);
}
);
width = 459;
}
);
note = a;
unicode = 0061;
},
{
glyphname = aacute;
layers = (
{
hints = (
{
horizontal = 1;
place = "{32, 97}";
type = Stem;
},
{
horizontal = 1;
place = "{429, 79}";
type = Stem;
},
{
horizontal = 1;
place = "{925, 52}";
type = Stem;
},
{
place = "{32, 78}";
type = Stem;
},
{
place = "{326, 85}";
type = Stem;
},
{
place = "{351, 82}";
type = Stem;
}
);
layerId = "59B4545D-7A36-483A-A414-D3C0872518C3";
paths = (
{
closed = 1;
nodes = (
"-68 764 OFFCURVE",
"33 791 OFFCURVE",
"99 812 CURVE SMOOTH",
"181 838 OFFCURVE",
"264 861 OFFCURVE",
"347 883 CURVE SMOOTH",
"417 901 OFFCURVE",
"488 921 OFFCURVE",
"560 925 CURVE SMOOTH",
"589 927 OFFCURVE",
"586 895 OFFCURVE",
"595 894 CURVE SMOOTH",
"607 893 OFFCURVE",
"621 901 OFFCURVE",
"631 905 CURVE SMOOTH",
"644 910 OFFCURVE",
"705 935 OFFCURVE",
"705 958 CURVE SMOOTH",
"705 972 OFFCURVE",
"688 977 OFFCURVE",
"666 977 CURVE SMOOTH",
"616 977 OFFCURVE",
"532 949 OFFCURVE",
"511 945 CURVE SMOOTH",
"426 926 OFFCURVE",
"344 904 OFFCURVE",
"261 877 CURVE SMOOTH",
"176 849 OFFCURVE",
"90 827 OFFCURVE",
"4 800 CURVE SMOOTH",
"-22 792 OFFCURVE",
"-140 769 OFFCURVE",
"-150 734 CURVE"
);
},
{
closed = 1;
nodes = (
"393 16 OFFCURVE",
"421 41 OFFCURVE",
"438 55 CURVE SMOOTH",
"456 69 LINE SMOOTH",
"496 100 OFFCURVE",
"482 81 OFFCURVE",
"523 123 CURVE SMOOTH",
"551 149 OFFCURVE",
"555 157 OFFCURVE",
"549 157 CURVE SMOOTH",
"541 157 OFFCURVE",
"513 142 OFFCURVE",
"502 137 CURVE SMOOTH",
"489 131 OFFCURVE",
"474 129 OFFCURVE",
"461 129 CURVE SMOOTH",
"445 129 OFFCURVE",
"427 132 OFFCURVE",
"412 137 CURVE",
"411 137 OFFCURVE",
"411 141 OFFCURVE",
"411 147 CURVE SMOOTH",
"411 183 OFFCURVE",
"424 304 OFFCURVE",
"425 319 CURVE SMOOTH",
"427 348 OFFCURVE",
"433 383 OFFCURVE",
"433 416 CURVE SMOOTH",
"433 460 OFFCURVE",
"422 508 OFFCURVE",
"368 508 CURVE SMOOTH",
"329 508 OFFCURVE",
"279 483 OFFCURVE",
"247 475 CURVE SMOOTH",
"212 467 OFFCURVE",
"178 452 OFFCURVE",
"142 447 CURVE SMOOTH",
"86 438 OFFCURVE",
"38 409 OFFCURVE",
"35 348 CURVE SMOOTH",
"34 324 OFFCURVE",
"32 299 OFFCURVE",
"32 274 CURVE SMOOTH",
"32 209 OFFCURVE",
"40 142 OFFCURVE",
"71 89 CURVE SMOOTH",
"96 48 OFFCURVE",
"123 32 OFFCURVE",
"152 32 CURVE SMOOTH",
"188 32 OFFCURVE",
"226 55 OFFCURVE",
"265 83 CURVE SMOOTH",
"272 88 OFFCURVE",
"329 121 OFFCURVE",
"329 123 CURVE SMOOTH",
"329 109 OFFCURVE",
"326 91 OFFCURVE",
"326 73 CURVE SMOOTH",
"326 51 OFFCURVE",
"331 30 OFFCURVE",
"352 19 CURVE SMOOTH",
"357 17 OFFCURVE",
"362 16 OFFCURVE",
"367 16 CURVE SMOOTH"
);
},
{
closed = 1;
nodes = (
"171 129 OFFCURVE",
"134 193 OFFCURVE",
"125 242 CURVE SMOOTH",
"119 270 OFFCURVE",
"108 312 OFFCURVE",
"110 339 CURVE SMOOTH",
"117 403 OFFCURVE",
"175 406 OFFCURVE",
"224 419 CURVE SMOOTH",
"245 424 OFFCURVE",
"265 429 OFFCURVE",
"285 429 CURVE SMOOTH",
"339 429 OFFCURVE",
"351 409 OFFCURVE",
"351 375 CURVE SMOOTH",
"351 361 OFFCURVE",
"349 344 OFFCURVE",
"347 326 CURVE SMOOTH",
"341 271 OFFCURVE",
"340 218 OFFCURVE",
"337 163 CURVE SMOOTH",
"335 139 OFFCURVE",
"267 129 OFFCURVE",
"228 129 CURVE SMOOTH"
);
}
);
width = 505;
}
);
note = aacute;
unicode = 00E1;
},
{
glyphname = amacron;
layers = (
{
hints = (
{
horizontal = 1;
place = "{32, 97}";
type = Stem;
},
{
horizontal = 1;
place = "{508, -20}";
target = down;
type = TopGhost;
},
{
horizontal = 1;
place = "{711, 26}";
type = Stem;
},
{
place = "{32, 78}";
type = Stem;
},
{
place = "{326, 85}";
type = Stem;
},
{
place = "{351, 82}";
type = Stem;
},
{
horizontal = 1;
place = "{429, 79}";
type = Stem;
}
);
layerId = "59B4545D-7A36-483A-A414-D3C0872518C3";
paths = (
{
closed = 1;
nodes = (
"423 677 OFFCURVE",
"461 693 OFFCURVE",
"471 713 CURVE SMOOTH",
"479 729 OFFCURVE",
"494 755 OFFCURVE",
"475 755 CURVE SMOOTH",
"466 755 OFFCURVE",
"431 753 OFFCURVE",
"399 753 CURVE SMOOTH",
"362 753 OFFCURVE",
"317 750 OFFCURVE",
"281 746 CURVE SMOOTH",
"237 741 OFFCURVE",
"199 737 OFFCURVE",
"168 737 CURVE SMOOTH",
"131 737 OFFCURVE",
"101 738 OFFCURVE",
"81 748 CURVE SMOOTH",
"77 750 OFFCURVE",
"96 765 OFFCURVE",
"70 765 CURVE SMOOTH",
"46 765 OFFCURVE",
"42 741 OFFCURVE",
"23 709 CURVE SMOOTH",
"19 702 OFFCURVE",
"29 693 OFFCURVE",
"43 693 CURVE SMOOTH",
"58 693 OFFCURVE",
"84 702 OFFCURVE",
"147 702 CURVE SMOOTH",
"199 702 OFFCURVE",
"276 711 OFFCURVE",
"333 711 CURVE SMOOTH",
"378 711 OFFCURVE",
"408 705 OFFCURVE",
"404 684 CURVE SMOOTH",
"403 679 OFFCURVE",
"405 677 OFFCURVE",
"409 677 CURVE SMOOTH"
);
},
{
closed = 1;
nodes = (
"393 16 OFFCURVE",
"421 41 OFFCURVE",
"438 55 CURVE SMOOTH",
"456 69 LINE SMOOTH",
"496 100 OFFCURVE",
"482 81 OFFCURVE",
"523 123 CURVE SMOOTH",
"551 149 OFFCURVE",
"555 157 OFFCURVE",
"549 157 CURVE SMOOTH",
"541 157 OFFCURVE",
"513 142 OFFCURVE",
"502 137 CURVE SMOOTH",
"489 131 OFFCURVE",
"474 129 OFFCURVE",
"461 129 CURVE SMOOTH",
"445 129 OFFCURVE",
"427 132 OFFCURVE",
"412 137 CURVE",
"411 137 OFFCURVE",
"411 141 OFFCURVE",
"411 147 CURVE SMOOTH",
"411 183 OFFCURVE",
"424 304 OFFCURVE",
"425 319 CURVE SMOOTH",
"427 348 OFFCURVE",
"433 383 OFFCURVE",
"433 416 CURVE SMOOTH",
"433 460 OFFCURVE",
"422 508 OFFCURVE",
"368 508 CURVE SMOOTH",
"329 508 OFFCURVE",
"279 483 OFFCURVE",
"247 475 CURVE SMOOTH",
"212 467 OFFCURVE",
"178 452 OFFCURVE",
"142 447 CURVE SMOOTH",
"86 438 OFFCURVE",
"38 409 OFFCURVE",
"35 348 CURVE SMOOTH",
"34 324 OFFCURVE",
"32 299 OFFCURVE",
"32 274 CURVE SMOOTH",
"32 209 OFFCURVE",
"40 142 OFFCURVE",
"71 89 CURVE SMOOTH",
"96 48 OFFCURVE",
"123 32 OFFCURVE",
"152 32 CURVE SMOOTH",
"188 32 OFFCURVE",
"226 55 OFFCURVE",
"265 83 CURVE SMOOTH",
"272 88 OFFCURVE",
"329 121 OFFCURVE",
"329 123 CURVE SMOOTH",
"329 109 OFFCURVE",
"326 91 OFFCURVE",
"326 73 CURVE SMOOTH",
"326 51 OFFCURVE",
"331 30 OFFCURVE",
"352 19 CURVE SMOOTH",
"357 17 OFFCURVE",
"362 16 OFFCURVE",
"367 16 CURVE SMOOTH"
);
},
{
closed = 1;
nodes = (
"171 129 OFFCURVE",
"134 193 OFFCURVE",
"125 242 CURVE SMOOTH",
"119 270 OFFCURVE",
"108 312 OFFCURVE",
"110 339 CURVE SMOOTH",
"117 403 OFFCURVE",
"175 406 OFFCURVE",
"224 419 CURVE SMOOTH",
"245 424 OFFCURVE",
"265 429 OFFCURVE",
"285 429 CURVE SMOOTH",
"339 429 OFFCURVE",
"351 409 OFFCURVE",
"351 375 CURVE SMOOTH",
"351 361 OFFCURVE",
"349 344 OFFCURVE",
"347 326 CURVE SMOOTH",
"341 271 OFFCURVE",
"340 218 OFFCURVE",
"337 163 CURVE SMOOTH",
"335 139 OFFCURVE",
"267 129 OFFCURVE",
"228 129 CURVE SMOOTH"
);
}
);
width = 505;
}
);
note = amacron;
unicode = 0101;
},
{
glyphname = ae;
layers = (
{
hints = (
{
horizontal = 1;
place = "{-9, 72}";
type = Stem;
},
{
horizontal = 1;
place = "{223, 57}";
type = Stem;
},
{
horizontal = 1;
place = "{447, 68}";
type = Stem;
},
{
place = "{-4, 49}";
type = Stem;
},
{
place = "{264, 67}";
type = Stem;
},
{
place = "{531, 10}";
type = Stem;
},
{
horizontal = 1;
place = "{243, 54}";
type = Stem;
},
{
horizontal = 1;
place = "{228, 77}";
type = Stem;
},
{
horizontal = 1;
place = "{5, 73}";
type = Stem;
}
);
layerId = "59B4545D-7A36-483A-A414-D3C0872518C3";
paths = (
{
closed = 1;
nodes = (
"473 -9 OFFCURVE",
"568 148 OFFCURVE",
"560 148 CURVE SMOOTH",
"558 148 OFFCURVE",
"554 143 OFFCURVE",
"547 134 CURVE SMOOTH",
"505 86 OFFCURVE",
"449 63 OFFCURVE",
"396 63 CURVE SMOOTH",
"370 63 OFFCURVE",
"348 76 OFFCURVE",
"338 112 CURVE SMOOTH",
"337 118 OFFCURVE",
"331 167 OFFCURVE",
"331 197 CURVE SMOOTH",
"331 210 OFFCURVE",
"332 220 OFFCURVE",
"342 223 CURVE SMOOTH",
"378 234 OFFCURVE",
"410 243 OFFCURVE",
"445 243 CURVE SMOOTH",
"481 243 OFFCURVE",
"518 228 OFFCURVE",
"552 228 CURVE SMOOTH",
"595 228 OFFCURVE",
"651 271 OFFCURVE",
"648 296 CURVE SMOOTH",
"648 302 OFFCURVE",
"630 305 OFFCURVE",
"605 305 CURVE SMOOTH",
"580 305 OFFCURVE",
"567 296 OFFCURVE",
"544 297 CURVE SMOOTH",
"531 298 OFFCURVE",
"560 361 OFFCURVE",
"578 390 CURVE SMOOTH",
"589 409 OFFCURVE",
"595 423 OFFCURVE",
"595 437 CURVE SMOOTH",
"595 450 OFFCURVE",
"590 462 OFFCURVE",
"579 478 CURVE SMOOTH",
"560 505 OFFCURVE",
"540 515 OFFCURVE",
"514 515 CURVE SMOOTH",
"476 515 OFFCURVE",
"420 496 OFFCURVE",
"387 479 CURVE SMOOTH",
"372 472 OFFCURVE",
"355 467 OFFCURVE",
"339 461 CURVE",
"316 457 OFFCURVE",
"295 448 OFFCURVE",
"272 442 CURVE",
"246 432 OFFCURVE",
"224 420 OFFCURVE",
"193 416 CURVE SMOOTH",
"34 395 OFFCURVE",
"-4 369 OFFCURVE",
"-4 202 CURVE SMOOTH",
"-4 125 OFFCURVE",
"48 5 OFFCURVE",
"136 5 CURVE SMOOTH",
"213 5 OFFCURVE",
"264 108 OFFCURVE",
"265 89 CURVE SMOOTH",
"267 37 OFFCURVE",
"284 -9 OFFCURVE",
"345 -9 CURVE SMOOTH"
);
},
{
closed = 1;
nodes = (
"332 280 OFFCURVE",
"318 344 OFFCURVE",
"318 356 CURVE SMOOTH",
"318 382 OFFCURVE",
"364 418 OFFCURVE",
"395 436 CURVE SMOOTH",
"408 443 OFFCURVE",
"422 447 OFFCURVE",
"439 447 CURVE SMOOTH",
"449 447 OFFCURVE",
"459 445 OFFCURVE",
"471 442 CURVE SMOOTH",
"495 434 OFFCURVE",
"531 442 OFFCURVE",
"531 405 CURVE SMOOTH",
"531 373 OFFCURVE",
"511 298 OFFCURVE",
"498 297 CURVE SMOOTH",
"444 295 OFFCURVE",
"390 281 OFFCURVE",
"336 280 CURVE SMOOTH"
);
},
{
closed = 1;
nodes = (
"171 78 OFFCURVE",
"165 79 OFFCURVE",
"160 81 CURVE SMOOTH",
"95 103 OFFCURVE",
"45 199 OFFCURVE",
"45 267 CURVE SMOOTH",
"45 313 OFFCURVE",
"70 359 OFFCURVE",
"137 359 CURVE SMOOTH",
"204 359 OFFCURVE",
"228 353 OFFCURVE",
"245 317 CURVE SMOOTH",
"264 280 OFFCURVE",
"264 206 OFFCURVE",
"264 169 CURVE SMOOTH",
"264 165 OFFCURVE",
"264 161 OFFCURVE",
"264 157 CURVE SMOOTH",
"263 136 LINE SMOOTH",
"263 132 OFFCURVE",
"263 128 OFFCURVE",
"263 124 CURVE SMOOTH",
"264 114 OFFCURVE",
"215 78 OFFCURVE",
"176 78 CURVE SMOOTH"
);
}
);
width = 633;
}
);
note = ae;
unicode = 00E6;
},
{
glyphname = aeacute;
layers = (
{
hints = (
{
horizontal = 1;
place = "{-9, 72}";
type = Stem;
},
{
horizontal = 1;
place = "{223, 57}";
type = Stem;
},
{
horizontal = 1;
place = "{447, 68}";
type = Stem;
},
{
horizontal = 1;
place = "{844, 52}";
type = Stem;
},
{
place = "{-4, 49}";
type = Stem;
},
{
place = "{264, 67}";
type = Stem;
},
{
place = "{531, 10}";
type = Stem;
},
{
horizontal = 1;
place = "{243, 54}";
type = Stem;
},
{
horizontal = 1;
place = "{228, 77}";
type = Stem;
},
{
horizontal = 1;
place = "{5, 73}";
type = Stem;
}
);
layerId = "59B4545D-7A36-483A-A414-D3C0872518C3";
paths = (
{
closed = 1;
nodes = (
"166 683 OFFCURVE",
"267 710 OFFCURVE",
"333 731 CURVE SMOOTH",
"415 757 OFFCURVE",
"498 780 OFFCURVE",
"581 802 CURVE SMOOTH",
"651 821 OFFCURVE",
"722 839 OFFCURVE",
"794 844 CURVE SMOOTH",
"823 846 OFFCURVE",
"820 814 OFFCURVE",
"829 813 CURVE SMOOTH",
"841 812 OFFCURVE",
"855 820 OFFCURVE",
"865 824 CURVE SMOOTH",
"878 829 OFFCURVE",
"939 854 OFFCURVE",
"939 877 CURVE SMOOTH",
"939 891 OFFCURVE",
"922 896 OFFCURVE",
"900 896 CURVE SMOOTH",
"850 896 OFFCURVE",
"766 868 OFFCURVE",
"745 864 CURVE SMOOTH",
"660 846 OFFCURVE",
"578 823 OFFCURVE",
"495 796 CURVE SMOOTH",
"410 768 OFFCURVE",
"324 746 OFFCURVE",
"238 719 CURVE SMOOTH",
"212 711 OFFCURVE",
"94 688 OFFCURVE",
"84 653 CURVE"
);
},
{
closed = 1;
nodes = (
"473 -9 OFFCURVE",
"568 148 OFFCURVE",
"560 148 CURVE SMOOTH",
"558 148 OFFCURVE",
"554 143 OFFCURVE",
"547 134 CURVE SMOOTH",
"505 86 OFFCURVE",
"449 63 OFFCURVE",
"396 63 CURVE SMOOTH",
"370 63 OFFCURVE",
"348 76 OFFCURVE",
"338 112 CURVE SMOOTH",
"337 118 OFFCURVE",
"331 167 OFFCURVE",
"331 197 CURVE SMOOTH",
"331 210 OFFCURVE",
"332 220 OFFCURVE",
"342 223 CURVE SMOOTH",
"378 234 OFFCURVE",
"410 243 OFFCURVE",
"445 243 CURVE SMOOTH",
"481 243 OFFCURVE",
"518 228 OFFCURVE",
"552 228 CURVE SMOOTH",
"595 228 OFFCURVE",
"651 271 OFFCURVE",
"648 296 CURVE SMOOTH",
"648 302 OFFCURVE",
"630 305 OFFCURVE",
"605 305 CURVE SMOOTH",
"580 305 OFFCURVE",
"567 296 OFFCURVE",
"544 297 CURVE SMOOTH",
"531 298 OFFCURVE",
"560 361 OFFCURVE",
"578 390 CURVE SMOOTH",
"589 409 OFFCURVE",
"595 423 OFFCURVE",
"595 437 CURVE SMOOTH",
"595 450 OFFCURVE",
"590 462 OFFCURVE",
"579 478 CURVE SMOOTH",
"560 505 OFFCURVE",
"540 515 OFFCURVE",
"514 515 CURVE SMOOTH",
"476 515 OFFCURVE",
"420 496 OFFCURVE",
"387 479 CURVE SMOOTH",
"372 472 OFFCURVE",
"355 467 OFFCURVE",
"339 461 CURVE",
"316 457 OFFCURVE",
"295 448 OFFCURVE",
"272 442 CURVE",
"246 432 OFFCURVE",
"224 420 OFFCURVE",
"193 416 CURVE SMOOTH",
"34 395 OFFCURVE",
"-4 369 OFFCURVE",
"-4 202 CURVE SMOOTH",
"-4 125 OFFCURVE",
"48 5 OFFCURVE",
"136 5 CURVE SMOOTH",
"213 5 OFFCURVE",
"264 108 OFFCURVE",
"265 89 CURVE SMOOTH",
"267 37 OFFCURVE",
"284 -9 OFFCURVE",
"345 -9 CURVE SMOOTH"
);
},
{
closed = 1;
nodes = (
"332 280 OFFCURVE",
"318 344 OFFCURVE",
"318 356 CURVE SMOOTH",
"318 382 OFFCURVE",
"364 418 OFFCURVE",
"395 436 CURVE SMOOTH",
"408 443 OFFCURVE",
"422 447 OFFCURVE",
"439 447 CURVE SMOOTH",
"449 447 OFFCURVE",
"459 445 OFFCURVE",
"471 442 CURVE SMOOTH",
"495 434 OFFCURVE",
"531 442 OFFCURVE",
"531 405 CURVE SMOOTH",
"531 373 OFFCURVE",
"511 298 OFFCURVE",
"498 297 CURVE SMOOTH",
"444 295 OFFCURVE",
"390 281 OFFCURVE",
"336 280 CURVE SMOOTH"
);
},
{
closed = 1;
nodes = (
"171 78 OFFCURVE",
"165 79 OFFCURVE",
"160 81 CURVE SMOOTH",
"95 103 OFFCURVE",
"45 199 OFFCURVE",
"45 267 CURVE SMOOTH",
"45 313 OFFCURVE",
"70 359 OFFCURVE",
"137 359 CURVE SMOOTH",
"204 359 OFFCURVE",
"228 353 OFFCURVE",
"245 317 CURVE SMOOTH",
"264 280 OFFCURVE",
"264 206 OFFCURVE",
"264 169 CURVE SMOOTH",
"264 165 OFFCURVE",
"264 161 OFFCURVE",
"264 157 CURVE SMOOTH",
"263 136 LINE SMOOTH",
"263 132 OFFCURVE",
"263 128 OFFCURVE",
"263 124 CURVE SMOOTH",
"264 114 OFFCURVE",
"215 78 OFFCURVE",
"176 78 CURVE SMOOTH"
);
}
);
width = 600;
}
);
note = aeacute;
unicode = 01FD;
},
{
glyphname = b;
layers = (
{
hints = (
{
horizontal = 1;
place = "{5, 53}";
type = Stem;
},
{
horizontal = 1;
place = "{380, 94}";
type = Stem;
},
{
horizontal = 1;
place = "{971, -20}";
target = down;
type = TopGhost;
},
{
place = "{56, 79}";
type = Stem;
},
{
place = "{350, 75}";
type = Stem;
},
{
place = "{57, 84}";
type = Stem;
}
);
layerId = "59B4545D-7A36-483A-A414-D3C0872518C3";
paths = (
{
closed = 1;
nodes = (
"304 5 OFFCURVE",
"425 184 OFFCURVE",
"425 306 CURVE",
"424 313 LINE SMOOTH",
"424 315 OFFCURVE",
"424 316 OFFCURVE",
"424 317 CURVE SMOOTH",
"417 392 OFFCURVE",
"375 474 OFFCURVE",
"320 474 CURVE SMOOTH",
"274 474 OFFCURVE",
"241 444 OFFCURVE",
"174 405 CURVE SMOOTH",
"164 399 OFFCURVE",
"156 396 OFFCURVE",
"150 396 CURVE SMOOTH",
"139 396 OFFCURVE",
"135 407 OFFCURVE",
"135 428 CURVE SMOOTH",
"135 493 OFFCURVE",
"140 582 OFFCURVE",
"141 656 CURVE SMOOTH",
"143 780 OFFCURVE",
"141 882 OFFCURVE",
"155 915 CURVE SMOOTH",
"167 945 OFFCURVE",
"178 963 OFFCURVE",
"178 971 CURVE SMOOTH",
"178 975 OFFCURVE",
"175 975 OFFCURVE",
"167 973 CURVE SMOOTH",
"91 949 OFFCURVE",
"34 927 OFFCURVE",
"-26 888 CURVE SMOOTH",
"-32 884 OFFCURVE",
"-35 881 OFFCURVE",
"-35 878 CURVE SMOOTH",
"-35 863 OFFCURVE",
"51 863 OFFCURVE",
"54 818 CURVE SMOOTH",
"57 786 OFFCURVE",
"57 741 OFFCURVE",
"57 697 CURVE SMOOTH",
"57 639 OFFCURVE",
"56 580 OFFCURVE",
"56 553 CURVE SMOOTH",
"56 225 LINE SMOOTH",
"56 143 OFFCURVE",
"57 5 OFFCURVE",
"172 5 CURVE SMOOTH"
);
},
{
closed = 1;
nodes = (
"184 58 OFFCURVE",
"163 76 OFFCURVE",
"150 123 CURVE SMOOTH",
"143 149 OFFCURVE",
"133 211 OFFCURVE",
"133 262 CURVE SMOOTH",
"133 327 OFFCURVE",
"147 343 OFFCURVE",
"209 366 CURVE SMOOTH",
"232 374 OFFCURVE",
"251 380 OFFCURVE",
"268 380 CURVE SMOOTH",
"330 380 OFFCURVE",
"350 298 OFFCURVE",
"350 249 CURVE SMOOTH",
"350 151 OFFCURVE",
"303 58 OFFCURVE",
"212 58 CURVE SMOOTH"
);
}
);
width = 445;
}
);
note = b;
unicode = 0062;
},
{
glyphname = c;
layers = (
{
hints = (
{
horizontal = 1;
place = "{427, 55}";
type = Stem;
},
{
place = "{38, 59}";
type = Stem;
}
);
layerId = "59B4545D-7A36-483A-A414-D3C0872518C3";
paths = (
{
closed = 1;
nodes = (
"308 5 OFFCURVE",
"387 61 OFFCURVE",
"422 125 CURVE SMOOTH",
"431 142 OFFCURVE",
"435 150 OFFCURVE",
"435 152 CURVE SMOOTH",
"435 161 OFFCURVE",
"361 67 OFFCURVE",
"290 75 CURVE SMOOTH",
"164 91 OFFCURVE",
"97 212 OFFCURVE",
"97 322 CURVE SMOOTH",
"97 382 OFFCURVE",
"138 423 OFFCURVE",
"206 427 CURVE SMOOTH",
"240 429 OFFCURVE",
"291 407 OFFCURVE",
"314 374 CURVE SMOOTH",
"323 361 OFFCURVE",
"333 356 OFFCURVE",
"344 356 CURVE SMOOTH",
"367 356 OFFCURVE",
"389 381 OFFCURVE",
"389 408 CURVE SMOOTH",
"389 460 OFFCURVE",
"323 482 OFFCURVE",
"281 482 CURVE SMOOTH",
"231 482 OFFCURVE",
"174 463 OFFCURVE",
"127 431 CURVE SMOOTH",
"64 388 OFFCURVE",
"38 333 OFFCURVE",
"38 273 CURVE SMOOTH",
"38 125 OFFCURVE",
"112 22 OFFCURVE",
"214 6 CURVE SMOOTH",
"220 5 OFFCURVE",
"227 5 OFFCURVE",
"233 5 CURVE SMOOTH"
);
}
);
width = 406;
}
);
note = c;
unicode = 0063;
},
{
glyphname = d;
layers = (
{
hints = (
{
horizontal = 1;
place = "{4, 74}";
type = Stem;
},
{
horizontal = 1;
place = "{398, 53}";
type = Stem;
},
{
place = "{103, 60}";
type = Stem;
},
{
place = "{434, 59}";
type = Stem;
}
);
layerId = "59B4545D-7A36-483A-A414-D3C0872518C3";
paths = (
{
closed = 1;
nodes = (
"308 4 OFFCURVE",
"355 27 OFFCURVE",
"397 70 CURVE SMOOTH",
"454 130 OFFCURVE",
"498 244 OFFCURVE",
"493 325 CURVE SMOOTH",
"489 400 OFFCURVE",
"415 471 OFFCURVE",
"342 471 CURVE SMOOTH",
"303 471 OFFCURVE",
"268 451 OFFCURVE",
"196 451 CURVE SMOOTH",
"162 451 OFFCURVE",
"131 451 OFFCURVE",
"90 460 CURVE SMOOTH",
"48 470 OFFCURVE",
"28 477 OFFCURVE",
"15 477 CURVE SMOOTH",
"1 477 OFFCURVE",
"-4 468 OFFCURVE",
"-19 442 CURVE",
"-24 436 OFFCURVE",
"-27 429 OFFCURVE",
"-27 421 CURVE SMOOTH",
"-27 387 OFFCURVE",
"37 375 OFFCURVE",
"62 375 CURVE SMOOTH",
"122 375 OFFCURVE",
"200 398 OFFCURVE",
"265 398 CURVE SMOOTH",
"317 398 OFFCURVE",
"353 386 OFFCURVE",
"390 348 CURVE SMOOTH",
"415 322 OFFCURVE",
"434 292 OFFCURVE",
"434 256 CURVE SMOOTH",
"434 209 OFFCURVE",
"425 153 OFFCURVE",
"384 116 CURVE SMOOTH",
"358 92 OFFCURVE",
"331 78 OFFCURVE",
"304 78 CURVE SMOOTH",
"270 78 OFFCURVE",
"237 99 OFFCURVE",
"206 144 CURVE SMOOTH",
"187 171 OFFCURVE",
"163 216 OFFCURVE",
"163 273 CURVE SMOOTH",
"163 326 OFFCURVE",
"189 343 OFFCURVE",
"193 375 CURVE SMOOTH",
"196 397 OFFCURVE",
"103 329 OFFCURVE",
"103 201 CURVE SMOOTH",
"103 176 OFFCURVE",
"110 153 OFFCURVE",
"116 135 CURVE SMOOTH",
"145 47 OFFCURVE",
"202 4 OFFCURVE",
"263 4 CURVE SMOOTH"
);
}
);
width = 520;
}
);
note = d;
unicode = 0064;
},
{
glyphname = eth;
layers = (
{
hints = (
{
horizontal = 1;
place = "{0, 21}";
target = up;
type = BottomGhost;
},
{
horizontal = 1;
place = "{656, 65}";
type = Stem;
},
{
place = "{-9, 71}";
type = Stem;
},
{
place = "{365, 65}";
type = Stem;
},
{
place = "{56, 88}";
type = Stem;
}
);
layerId = "59B4545D-7A36-483A-A414-D3C0872518C3";
paths = (
{
closed = 1;
nodes = (
"225 -6 OFFCURVE",
"289 32 OFFCURVE",
"366 121 CURVE SMOOTH",
"398 158 OFFCURVE",
"409 169 OFFCURVE",
"428 260 CURVE SMOOTH",
"430 268 OFFCURVE",
"430 276 OFFCURVE",
"430 283 CURVE SMOOTH",
"430 337 OFFCURVE",
"385 370 OFFCURVE",
"314 433 CURVE SMOOTH",
"237 502 OFFCURVE",
"189 546 OFFCURVE",
"199 556 CURVE SMOOTH",
"244 602 OFFCURVE",
"322 656 OFFCURVE",
"390 656 CURVE SMOOTH",
"409 656 OFFCURVE",
"427 651 OFFCURVE",
"459 646 CURVE SMOOTH",
"480 643 OFFCURVE",
"492 654 OFFCURVE",
"492 670 CURVE SMOOTH",
"492 700 OFFCURVE",
"460 721 OFFCURVE",
"432 721 CURVE SMOOTH",
"390 721 OFFCURVE",
"337 691 OFFCURVE",
"298 661 CURVE SMOOTH",
"289 654 OFFCURVE",
"190 562 OFFCURVE",
"182 569 CURVE SMOOTH",
"136 609 OFFCURVE",
"140 615 OFFCURVE",
"81 692 CURVE SMOOTH",
"50 733 OFFCURVE",
"71 780 OFFCURVE",
"51 766 CURVE",
"4 721 OFFCURVE",
"-9 710 OFFCURVE",
"-9 664 CURVE SMOOTH",
"-9 619 OFFCURVE",
"48 572 OFFCURVE",
"89 512 CURVE",
"92 509 OFFCURVE",
"94 506 OFFCURVE",
"94 502 CURVE SMOOTH",
"94 485 OFFCURVE",
"60 463 OFFCURVE",
"39 445 CURVE SMOOTH",
"14 420 OFFCURVE",
"-109 340 OFFCURVE",
"-110 322 CURVE",
"-122 294 OFFCURVE",
"85 453 OFFCURVE",
"118 480 CURVE",
"130 470 OFFCURVE",
"142 460 OFFCURVE",
"152 450 CURVE SMOOTH",
"157 445 OFFCURVE",
"174 429 OFFCURVE",
"170 423 CURVE SMOOTH",
"159 405 OFFCURVE",
"111 321 OFFCURVE",
"108 315 CURVE SMOOTH",
"69 243 OFFCURVE",
"56 224 OFFCURVE",
"56 173 CURVE SMOOTH",
"56 93 OFFCURVE",
"96 11 OFFCURVE",
"184 0 CURVE SMOOTH"
);
},
{
closed = 1;
nodes = (
"172 65 OFFCURVE",
"144 176 OFFCURVE",
"144 239 CURVE SMOOTH",
"144 286 OFFCURVE",
"160 365 OFFCURVE",
"187 406 CURVE",
"191 418 OFFCURVE",
"217 391 OFFCURVE",
"237 373 CURVE SMOOTH",
"285 330 OFFCURVE",
"365 309 OFFCURVE",
"365 238 CURVE SMOOTH",
"365 178 OFFCURVE",
"325 65 OFFCURVE",
"253 65 CURVE SMOOTH"
);
}
);
width = 474;
}
);
note = eth;
unicode = 00F0;
},
{
glyphname = e;
layers = (
{
hints = (
{
horizontal = 1;
place = "{2, 59}";
type = Stem;
},
{
horizontal = 1;
place = "{221, 72}";
type = Stem;
},
{
horizontal = 1;
place = "{429, 60}";
type = Stem;
},
{
place = "{-10, 98}";
type = Stem;
},
{
place = "{315, 58}";
type = Stem;
}
);
layerId = "59B4545D-7A36-483A-A414-D3C0872518C3";
paths = (
{
closed = 1;
nodes = (
"235 2 OFFCURVE",
"307 59 OFFCURVE",
"343 122 CURVE SMOOTH",
"366 162 OFFCURVE",
"374 176 OFFCURVE",
"372 176 CURVE SMOOTH",
"366 176 OFFCURVE",
"285 75 OFFCURVE",
"184 61 CURVE SMOOTH",
"140 55 OFFCURVE",
"113 113 OFFCURVE",
"104 171 CURVE SMOOTH",
"103 177 OFFCURVE",
"103 182 OFFCURVE",
"103 187 CURVE SMOOTH",
"103 249 OFFCURVE",
"173 235 OFFCURVE",
"241 247 CURVE SMOOTH",
"254 249 OFFCURVE",
"267 251 OFFCURVE",
"279 251 CURVE SMOOTH",
"297 251 OFFCURVE",
"315 247 OFFCURVE",
"331 238 CURVE SMOOTH",
"351 227 OFFCURVE",
"364 221 OFFCURVE",
"374 221 CURVE SMOOTH",
"393 221 OFFCURVE",
"402 239 OFFCURVE",
"424 272 CURVE SMOOTH",
"427 277 OFFCURVE",
"429 281 OFFCURVE",
"429 284 CURVE SMOOTH",
"429 293 OFFCURVE",
"417 295 OFFCURVE",
"401 295 CURVE SMOOTH",
"386 295 OFFCURVE",
"368 293 OFFCURVE",
"352 293 CURVE SMOOTH",
"337 293 OFFCURVE",
"325 294 OFFCURVE",
"319 300 CURVE SMOOTH",
"304 313 OFFCURVE",
"373 381 OFFCURVE",
"373 418 CURVE SMOOTH",
"373 468 OFFCURVE",
"280 489 OFFCURVE",
"242 489 CURVE SMOOTH",
"176 489 OFFCURVE",
"47 443 OFFCURVE",
"13 406 CURVE SMOOTH",
"-4 387 OFFCURVE",
"-10 370 OFFCURVE",
"-10 349 CURVE SMOOTH",
"-10 328 OFFCURVE",
"-4 301 OFFCURVE",
"1 262 CURVE SMOOTH",
"12 174 OFFCURVE",
"18 134 OFFCURVE",
"51 67 CURVE SMOOTH",
"74 21 OFFCURVE",
"89 2 OFFCURVE",
"136 2 CURVE SMOOTH"
);
},
{
closed = 1;
nodes = (
"94 264 OFFCURVE",
"88 305 OFFCURVE",
"88 344 CURVE SMOOTH",
"88 363 OFFCURVE",
"88 391 OFFCURVE",
"91 396 CURVE SMOOTH",
"106 420 OFFCURVE",
"134 429 OFFCURVE",
"166 429 CURVE SMOOTH",
"204 429 OFFCURVE",
"248 416 OFFCURVE",
"281 401 CURVE SMOOTH",
"296 394 OFFCURVE",
"315 399 OFFCURVE",
"315 374 CURVE SMOOTH",
"315 351 OFFCURVE",
"298 310 OFFCURVE",
"287 300 CURVE SMOOTH",
"265 281 OFFCURVE",
"220 285 OFFCURVE",
"192 282 CURVE SMOOTH",
"162 279 OFFCURVE",
"131 264 OFFCURVE",
"100 264 CURVE SMOOTH"
);
}
);
width = 414;
}
);
note = e;
unicode = 0065;
},
{
glyphname = f;
layers = (
{
hints = (
{
horizontal = 1;
place = "{26, 59}";
type = Stem;
},
{
horizontal = 1;
place = "{418, 71}";
type = Stem;
},
{
place = "{109, 59}";
type = Stem;
},
{
place = "{189, 29}";
type = Stem;
},
{
horizontal = 1;
place = "{357, 112}";
type = Stem;
}
);
layerId = "59B4545D-7A36-483A-A414-D3C0872518C3";
paths = (
{
closed = 1;
nodes = (
"114 -616 OFFCURVE",
"154 -516 OFFCURVE",
"158 -489 CURVE",
"168 -454 OFFCURVE",
"167 -420 OFFCURVE",
"168 -387 CURVE SMOOTH",
"171 -289 OFFCURVE",
"207 -194 OFFCURVE",
"218 -92 CURVE SMOOTH",
"220 -73 OFFCURVE",
"217 -53 OFFCURVE",
"217 -34 CURVE SMOOTH",
"217 29 OFFCURVE",
"266 31 OFFCURVE",
"315 31 CURVE SMOOTH",
"343 31 OFFCURVE",
"370 28 OFFCURVE",
"400 26 CURVE SMOOTH",
"424 24 OFFCURVE",
"448 28 OFFCURVE",
"470 37 CURVE SMOOTH",
"490 45 OFFCURVE",
"511 68 OFFCURVE",
"520 95 CURVE SMOOTH",
"525 109 OFFCURVE",
"509 95 OFFCURVE",
"447 91 CURVE SMOOTH",
"415 89 OFFCURVE",
"384 85 OFFCURVE",
"348 85 CURVE SMOOTH",
"241 85 OFFCURVE",
"229 114 OFFCURVE",
"223 217 CURVE SMOOTH",
"222 241 OFFCURVE",
"218 271 OFFCURVE",
"218 299 CURVE SMOOTH",
"218 364 OFFCURVE",
"244 418 OFFCURVE",
"304 418 CURVE SMOOTH",
"351 418 OFFCURVE",
"381 357 OFFCURVE",
"434 357 CURVE SMOOTH",
"471 357 OFFCURVE",
"498 392 OFFCURVE",
"498 424 CURVE SMOOTH",
"498 455 OFFCURVE",
"476 471 OFFCURVE",
"447 471 CURVE SMOOTH",
"435 471 OFFCURVE",
"421 469 OFFCURVE",
"404 469 CURVE SMOOTH",
"390 469 OFFCURVE",
"375 471 OFFCURVE",
"357 476 CURVE SMOOTH",
"339 482 OFFCURVE",
"319 489 OFFCURVE",
"299 489 CURVE SMOOTH",
"288 489 OFFCURVE",
"277 487 OFFCURVE",
"266 481 CURVE SMOOTH",
"241 467 OFFCURVE",
"190 386 OFFCURVE",
"189 343 CURVE SMOOTH",
"187 273 OFFCURVE",
"185 248 OFFCURVE",
"183 248 CURVE SMOOTH",
"180 248 OFFCURVE",
"177 387 OFFCURVE",
"174 415 CURVE SMOOTH",
"172 436 OFFCURVE",
"174 452 OFFCURVE",
"174 464 CURVE SMOOTH",
"174 481 OFFCURVE",
"169 488 OFFCURVE",
"139 488 CURVE SMOOTH",
"109 488 OFFCURVE",
"75 465 OFFCURVE",
"46 457 CURVE SMOOTH",
"40 455 OFFCURVE",
"-50 423 OFFCURVE",
"-56 416 CURVE SMOOTH",
"-60 411 OFFCURVE",
"-35 405 OFFCURVE",
"-22 405 CURVE SMOOTH",
"-13 405 OFFCURVE",
"3 407 OFFCURVE",
"16 407 CURVE SMOOTH",
"21 407 OFFCURVE",
"25 407 OFFCURVE",
"29 406 CURVE SMOOTH",
"103 389 OFFCURVE",
"117 313 OFFCURVE",
"117 244 CURVE SMOOTH",
"117 222 OFFCURVE",
"115 201 OFFCURVE",
"114 182 CURVE SMOOTH",
"109 110 OFFCURVE",
"108 38 OFFCURVE",
"108 -33 CURVE SMOOTH",
"108 -49 OFFCURVE",
"108 -65 OFFCURVE",
"108 -81 CURVE SMOOTH",
"109 -177 LINE SMOOTH",
"109 -193 OFFCURVE",
"109 -209 OFFCURVE",
"109 -225 CURVE SMOOTH",
"109 -421 LINE SMOOTH",
"109 -429 OFFCURVE",
"109 -437 OFFCURVE",
"109 -445 CURVE SMOOTH",
"107 -493 LINE SMOOTH",
"107 -501 OFFCURVE",
"107 -509 OFFCURVE",
"107 -517 CURVE SMOOTH",
"107 -542 OFFCURVE",
"108 -567 OFFCURVE",
"112 -593 CURVE SMOOTH"
);
}
);
width = 521;
}
);
note = f;
unicode = 0066;
},
{
glyphname = g;
layers = (
{
hints = (
{
horizontal = 1;
place = "{-377, 79}";
type = Stem;
},
{
horizontal = 1;
place = "{402, 67}";
type = Stem;
},
{
place = "{20, 66}";
type = Stem;
},
{
place = "{87, 82}";
type = Stem;
},
{
place = "{375, 51}";
type = Stem;
}
);
layerId = "59B4545D-7A36-483A-A414-D3C0872518C3";
paths = (
{
closed = 1;
nodes = (
"304 -367 OFFCURVE",
"387 -278 OFFCURVE",
"415 -165 CURVE SMOOTH",
"421 -141 OFFCURVE",
"426 -118 OFFCURVE",
"426 -95 CURVE SMOOTH",
"426 -54 OFFCURVE",
"411 -16 OFFCURVE",
"371 16 CURVE SMOOTH",
"312 64 OFFCURVE",
"239 86 OFFCURVE",
"195 153 CURVE SMOOTH",
"177 180 OFFCURVE",
"169 212 OFFCURVE",
"169 244 CURVE SMOOTH",
"169 284 OFFCURVE",
"194 379 OFFCURVE",
"238 394 CURVE SMOOTH",
"258 401 OFFCURVE",
"283 402 OFFCURVE",
"308 402 CURVE SMOOTH",
"329 402 OFFCURVE",
"350 401 OFFCURVE",
"369 401 CURVE SMOOTH",
"392 401 OFFCURVE",
"439 398 OFFCURVE",
"463 415 CURVE SMOOTH",
"473 422 OFFCURVE",
"479 435 OFFCURVE",
"488 445 CURVE SMOOTH",
"493 451 OFFCURVE",
"523 478 OFFCURVE",
"515 476 CURVE",
"495 478 OFFCURVE",
"465 471 OFFCURVE",
"441 472 CURVE SMOOTH",
"344 475 LINE SMOOTH",
"300 476 OFFCURVE",
"254 469 OFFCURVE",
"210 469 CURVE SMOOTH",
"170 469 OFFCURVE",
"177 469 OFFCURVE",
"136 471 CURVE SMOOTH",
"123 472 OFFCURVE",
"109 471 OFFCURVE",
"101 471 CURVE SMOOTH",
"92 471 OFFCURVE",
"89 472 OFFCURVE",
"94 476 CURVE SMOOTH",
"204 563 OFFCURVE",
"213 572 OFFCURVE",
"339 677 CURVE SMOOTH",
"372 704 OFFCURVE",
"386 718 OFFCURVE",
"385 718 CURVE SMOOTH",
"380 718 OFFCURVE",
"245 607 OFFCURVE",
"237 600 CURVE SMOOTH",
"172 544 OFFCURVE",
"77 469 OFFCURVE",
"35 446 CURVE SMOOTH",
"20 438 OFFCURVE",
"5 424 OFFCURVE",
"-5 414 CURVE SMOOTH",
"-12 408 OFFCURVE",
"-15 405 OFFCURVE",
"-15 403 CURVE SMOOTH",
"-15 401 OFFCURVE",
"-12 400 OFFCURVE",
"-8 400 CURVE SMOOTH",
"17 400 LINE SMOOTH",
"22 400 OFFCURVE",
"61 403 OFFCURVE",
"67 403 CURVE SMOOTH",
"77 403 OFFCURVE",
"88 403 OFFCURVE",
"99 402 CURVE SMOOTH",
"189 397 LINE SMOOTH",
"199 396 OFFCURVE",
"109 261 OFFCURVE",
"102 243 CURVE SMOOTH",
"93 220 OFFCURVE",
"87 194 OFFCURVE",
"87 168 CURVE SMOOTH",
"87 146 OFFCURVE",
"92 124 OFFCURVE",
"103 105 CURVE SMOOTH",
"120 75 OFFCURVE",
"136 53 OFFCURVE",
"136 32 CURVE SMOOTH",
"136 15 OFFCURVE",
"127 -1 OFFCURVE",
"106 -19 CURVE SMOOTH",
"54 -64 OFFCURVE",
"20 -144 OFFCURVE",
"20 -212 CURVE SMOOTH",
"20 -275 OFFCURVE",
"63 -325 OFFCURVE",
"107 -354 CURVE SMOOTH",
"137 -374 OFFCURVE",
"171 -377 OFFCURVE",
"197 -377 CURVE"
);
},
{
closed = 1;
nodes = (
"228 -298 OFFCURVE",
"218 -297 OFFCURVE",
"207 -295 CURVE SMOOTH",
"163 -286 OFFCURVE",
"163 -285 OFFCURVE",
"124 -253 CURVE SMOOTH",
"98 -232 OFFCURVE",
"86 -190 OFFCURVE",
"86 -148 CURVE SMOOTH",
"86 -79 OFFCURVE",
"108 -55 OFFCURVE",
"158 -10 CURVE",
"167 2 OFFCURVE",
"170 11 OFFCURVE",
"184 11 CURVE SMOOTH",
"187 11 OFFCURVE",
"190 11 OFFCURVE",
"193 10 CURVE SMOOTH",
"208 7 OFFCURVE",
"222 -10 OFFCURVE",
"234 -19 CURVE SMOOTH",
"271 -47 LINE SMOOTH",
"319 -83 OFFCURVE",
"375 -137 OFFCURVE",
"375 -183 CURVE SMOOTH",
"375 -211 OFFCURVE",
"353 -238 OFFCURVE",
"333 -262 CURVE",
"301 -287 OFFCURVE",
"277 -298 OFFCURVE",
"237 -298 CURVE SMOOTH"
);
}
);
width = 461;
}
);
note = g;
unicode = 0067;
},
{
glyphname = h;
layers = (
{
hints = (
{
horizontal = 1;
place = "{3, 71}";
type = Stem;
},
{
horizontal = 1;
place = "{432, 48}";
type = Stem;
},
{
place = "{66, 77}";
type = Stem;
},
{
place = "{313, 79}";
type = Stem;
},
{
horizontal = 1;
place = "{8, 73}";
type = Stem;
},
{
place = "{63, 91}";
type = Stem;
},
{
horizontal = 1;
place = "{3, 971}";
type = Stem;
}
);
layerId = "59B4545D-7A36-483A-A414-D3C0872518C3";
paths = (
{
closed = 1;
nodes = (
"352 3 OFFCURVE",
"370 8 OFFCURVE",
"394 17 CURVE SMOOTH",
"433 30 OFFCURVE",
"465 45 OFFCURVE",
"512 85 CURVE",
"518 93 OFFCURVE",
"521 98 OFFCURVE",
"521 100 CURVE SMOOTH",
"521 101 OFFCURVE",
"520 102 OFFCURVE",
"519 102 CURVE SMOOTH",
"511 102 OFFCURVE",
"472 74 OFFCURVE",
"435 74 CURVE SMOOTH",
"397 74 OFFCURVE",
"385 112 OFFCURVE",
"385 157 CURVE SMOOTH",
"385 182 OFFCURVE",
"389 208 OFFCURVE",
"390 232 CURVE SMOOTH",
"392 278 OFFCURVE",
"392 325 OFFCURVE",
"392 373 CURVE SMOOTH",
"392 417 OFFCURVE",
"382 480 OFFCURVE",
"335 480 CURVE SMOOTH",
"311 480 OFFCURVE",
"282 469 OFFCURVE",
"265 465 CURVE SMOOTH",
"249 462 OFFCURVE",
"187 433 OFFCURVE",
"159 433 CURVE SMOOTH",
"150 433 OFFCURVE",
"144 436 OFFCURVE",
"144 443 CURVE SMOOTH",
"145 535 OFFCURVE",
"144 529 OFFCURVE",
"146 585 CURVE SMOOTH",
"154 852 LINE SMOOTH",
"154 911 OFFCURVE",
"181 949 OFFCURVE",
"182 968 CURVE SMOOTH",
"182 972 OFFCURVE",
"180 974 OFFCURVE",
"176 974 CURVE SMOOTH",
"158 974 OFFCURVE",
"103 934 OFFCURVE",
"68 913 CURVE SMOOTH",
"44 898 OFFCURVE",
"-8 878 OFFCURVE",
"-11 873 CURVE SMOOTH",
"-26 848 OFFCURVE",
"60 845 OFFCURVE",
"61 791 CURVE SMOOTH",
"63 689 OFFCURVE",
"63 648 OFFCURVE",
"63 555 CURVE SMOOTH",
"63 344 LINE SMOOTH",
"65 295 OFFCURVE",
"66 247 OFFCURVE",
"66 198 CURVE SMOOTH",
"66 155 OFFCURVE",
"65 113 OFFCURVE",
"63 71 CURVE SMOOTH",
"62 54 OFFCURVE",
"60 40 OFFCURVE",
"60 31 CURVE SMOOTH",
"60 15 OFFCURVE",
"66 8 OFFCURVE",
"93 8 CURVE SMOOTH",
"145 8 OFFCURVE",
"236 92 OFFCURVE",
"223 92 CURVE SMOOTH",
"221 92 OFFCURVE",
"216 90 OFFCURVE",
"208 85 CURVE",
"199 83 OFFCURVE",
"192 81 OFFCURVE",
"186 81 CURVE SMOOTH",
"153 81 OFFCURVE",
"150 112 OFFCURVE",
"147 156 CURVE SMOOTH",
"147 158 OFFCURVE",
"143 208 OFFCURVE",
"143 392 CURVE SMOOTH",
"143 409 OFFCURVE",
"224 428 OFFCURVE",
"255 432 CURVE SMOOTH",
"304 435 OFFCURVE",
"311 390 OFFCURVE",
"312 351 CURVE SMOOTH",
"312 326 OFFCURVE",
"313 303 OFFCURVE",
"313 282 CURVE SMOOTH",
"313 155 OFFCURVE",
"306 93 OFFCURVE",
"306 82 CURVE SMOOTH",
"306 33 OFFCURVE",
"307 3 OFFCURVE",
"340 3 CURVE SMOOTH"
);
}
);
width = 470;
}
);
note = h;
unicode = 0068;
},
{
glyphname = i;
layers = (
{
hints = (
{
horizontal = 1;
place = "{-2, 66}";
type = Stem;
},
{
horizontal = 1;
place = "{-2, 21}";
target = up;
type = BottomGhost;
},
{
place = "{81, 63}";
type = Stem;
}
);
layerId = "59B4545D-7A36-483A-A414-D3C0872518C3";
paths = (
{
closed = 1;
nodes = (
"154 -2 OFFCURVE",
"191 24 OFFCURVE",
"230 67 CURVE SMOOTH",
"259 99 OFFCURVE",
"271 112 OFFCURVE",
"271 115 CURVE SMOOTH",
"271 121 OFFCURVE",
"234 91 OFFCURVE",
"196 70 CURVE SMOOTH",
"188 66 OFFCURVE",
"182 64 OFFCURVE",
"176 64 CURVE SMOOTH",
"149 64 OFFCURVE",
"144 106 OFFCURVE",
"144 143 CURVE",
"144 143 OFFCURVE",
"146 209 OFFCURVE",
"158 359 CURVE SMOOTH",
"161 397 OFFCURVE",
"167 429 OFFCURVE",
"167 467 CURVE SMOOTH",
"167 485 OFFCURVE",
"165 486 OFFCURVE",
"153 486 CURVE SMOOTH",
"133 486 OFFCURVE",
"117 485 OFFCURVE",
"86 474 CURVE SMOOTH",
"27 454 OFFCURVE",
"-20 437 OFFCURVE",
"-7 431 CURVE",
"16 426 OFFCURVE",
"61 420 OFFCURVE",
"72 375 CURVE SMOOTH",
"81 344 OFFCURVE",
"81 307 OFFCURVE",
"81 273 CURVE SMOOTH",
"81 209 OFFCURVE",
"82 142 OFFCURVE",
"82 85 CURVE SMOOTH",
"82 24 OFFCURVE",
"99 -2 OFFCURVE",
"126 -2 CURVE SMOOTH"
);
}
);
width = 244;
}
);
note = i;
unicode = 0069;
},
{
glyphname = iacute;
layers = (
{
hints = (
{
horizontal = 1;
place = "{1, 83}";
type = Stem;
},
{
horizontal = 1;
place = "{1, 21}";
target = up;
type = BottomGhost;
},
{
horizontal = 1;
place = "{708, 26}";
type = Stem;
},
{
place = "{81, 63}";
type = Stem;
}
);
layerId = "59B4545D-7A36-483A-A414-D3C0872518C3";
paths = (
{
closed = 1;
nodes = (
"-143 706 OFFCURVE",
"40 773 OFFCURVE",
"99 794 CURVE SMOOTH",
"180 823 OFFCURVE",
"262 851 OFFCURVE",
"347 883 CURVE SMOOTH",
"432 915 OFFCURVE",
"526 962 OFFCURVE",
"598 967 CURVE SMOOTH",
"627 969 OFFCURVE",
"601 935 OFFCURVE",
"610 934 CURVE SMOOTH",
"622 933 OFFCURVE",
"656 933 OFFCURVE",
"666 937 CURVE SMOOTH",
"679 942 OFFCURVE",
"689 955 OFFCURVE",
"706 974 CURVE SMOOTH",
"714 983 OFFCURVE",
"683 1015 OFFCURVE",
"661 1015 CURVE SMOOTH",
"611 1015 OFFCURVE",
"560 990 OFFCURVE",
"539 982 CURVE SMOOTH",
"454 951 OFFCURVE",
"376 908 OFFCURVE",
"294 876 CURVE SMOOTH",
"204 841 OFFCURVE",
"112 808 OFFCURVE",
"17 782 CURVE SMOOTH",
"-53 763 OFFCURVE",
"-152 728 OFFCURVE",
"-143 716 CURVE"
);
},
{
closed = 1;
nodes = (
"145 1 OFFCURVE",
"167 9 OFFCURVE",
"182 15 CURVE SMOOTH",
"205 26 OFFCURVE",
"229 48 OFFCURVE",
"245 78 CURVE",
"252 96 OFFCURVE",
"225 70 OFFCURVE",
"196 70 CURVE SMOOTH",
"154 70 OFFCURVE",
"144 108 OFFCURVE",
"144 143 CURVE SMOOTH",
"144 168 OFFCURVE",
"148 195 OFFCURVE",
"149 211 CURVE SMOOTH",
"151 261 OFFCURVE",
"158 310 OFFCURVE",
"162 359 CURVE SMOOTH",
"165 397 OFFCURVE",
"171 429 OFFCURVE",
"171 467 CURVE SMOOTH",
"171 485 OFFCURVE",
"169 490 OFFCURVE",
"157 490 CURVE SMOOTH",
"137 490 OFFCURVE",
"91 473 OFFCURVE",
"86 471 CURVE",
"17 453 OFFCURVE",
"-20 431 OFFCURVE",
"-7 425 CURVE",
"16 420 OFFCURVE",
"61 420 OFFCURVE",
"72 375 CURVE SMOOTH",
"81 344 OFFCURVE",
"81 307 OFFCURVE",
"81 273 CURVE SMOOTH",
"81 209 OFFCURVE",
"73 142 OFFCURVE",
"73 85 CURVE SMOOTH",
"73 59 OFFCURVE",
"75 30 OFFCURVE",
"92 12 CURVE SMOOTH",
"101 4 OFFCURVE",
"112 1 OFFCURVE",
"125 1 CURVE SMOOTH"
);
}
);
width = 244;
}
);
note = iacute;
unicode = 00ED;
},
{
glyphname = imacron;
layers = (
{
hints = (
{
horizontal = 1;
place = "{1, 21}";
target = up;
type = BottomGhost;
},
{
horizontal = 1;
place = "{708, 26}";
type = Stem;
},
{
place = "{81, 63}";
type = Stem;
},
{
horizontal = 1;
place = "{1, 69}";
type = Stem;
}
);
layerId = "59B4545D-7A36-483A-A414-D3C0872518C3";
paths = (
{
closed = 1;
nodes = (
"276 674 OFFCURVE",
"312 696 OFFCURVE",
"316 704 CURVE SMOOTH",
"320 713 OFFCURVE",
"324 721 OFFCURVE",
"324 728 CURVE SMOOTH",
"324 733 OFFCURVE",
"322 738 OFFCURVE",
"316 743 CURVE SMOOTH",
"309 748 OFFCURVE",
"284 750 OFFCURVE",
"252 750 CURVE SMOOTH",
"215 750 OFFCURVE",
"170 747 OFFCURVE",
"134 743 CURVE SMOOTH",
"90 737 OFFCURVE",
"52 734 OFFCURVE",
"21 734 CURVE SMOOTH",
"-16 734 OFFCURVE",
"-45 739 OFFCURVE",
"-65 750 CURVE SMOOTH",
"-69 752 OFFCURVE",
"-73 753 OFFCURVE",
"-77 753 CURVE SMOOTH",
"-100 753 OFFCURVE",
"-124 725 OFFCURVE",
"-124 706 CURVE SMOOTH",
"-124 697 OFFCURVE",
"-118 690 OFFCURVE",
"-104 690 CURVE SMOOTH",
"-89 690 OFFCURVE",
"-63 699 OFFCURVE",
"0 699 CURVE SMOOTH",
"52 699 OFFCURVE",
"129 708 OFFCURVE",
"186 708 CURVE SMOOTH",
"231 708 OFFCURVE",
"263 702 OFFCURVE",
"257 681 CURVE SMOOTH",
"256 676 OFFCURVE",
"258 674 OFFCURVE",
"262 674 CURVE SMOOTH"
);
},
{
closed = 1;
nodes = (
"145 1 OFFCURVE",
"167 9 OFFCURVE",
"182 15 CURVE SMOOTH",
"205 26 OFFCURVE",
"229 48 OFFCURVE",
"245 78 CURVE",
"252 96 OFFCURVE",
"225 70 OFFCURVE",
"196 70 CURVE SMOOTH",
"154 70 OFFCURVE",
"144 108 OFFCURVE",
"144 143 CURVE SMOOTH",
"144 168 OFFCURVE",
"148 195 OFFCURVE",
"149 211 CURVE SMOOTH",
"151 261 OFFCURVE",
"158 310 OFFCURVE",
"162 359 CURVE SMOOTH",
"165 397 OFFCURVE",
"171 429 OFFCURVE",
"171 467 CURVE SMOOTH",
"171 485 OFFCURVE",
"169 490 OFFCURVE",
"157 490 CURVE SMOOTH",
"137 490 OFFCURVE",
"91 473 OFFCURVE",
"86 471 CURVE",
"17 453 OFFCURVE",
"-20 431 OFFCURVE",
"-7 425 CURVE",
"16 420 OFFCURVE",
"61 420 OFFCURVE",
"72 375 CURVE SMOOTH",
"81 344 OFFCURVE",
"81 307 OFFCURVE",
"81 273 CURVE SMOOTH",
"81 209 OFFCURVE",
"73 142 OFFCURVE",
"73 85 CURVE SMOOTH",
"73 59 OFFCURVE",
"75 30 OFFCURVE",
"92 12 CURVE SMOOTH",
"101 4 OFFCURVE",
"112 1 OFFCURVE",
"125 1 CURVE SMOOTH"
);
}
);
width = 244;
}
);
note = imacron;
unicode = 012B;
},
{
glyphname = j;
layers = (
{
hints = (
{
horizontal = 1;
place = "{-2, 66}";
type = Stem;
},
{
horizontal = 1;
place = "{-2, 21}";
target = up;
type = BottomGhost;
},
{
place = "{81, 63}";
type = Stem;
}
);
layerId = "59B4545D-7A36-483A-A414-D3C0872518C3";
paths = (
{
closed = 1;
nodes = (
"154 -2 OFFCURVE",
"191 24 OFFCURVE",
"230 67 CURVE SMOOTH",
"259 99 OFFCURVE",
"271 112 OFFCURVE",
"271 115 CURVE SMOOTH",
"271 121 OFFCURVE",
"234 91 OFFCURVE",
"196 70 CURVE SMOOTH",
"188 66 OFFCURVE",
"182 64 OFFCURVE",
"176 64 CURVE SMOOTH",
"149 64 OFFCURVE",
"144 106 OFFCURVE",
"144 143 CURVE",
"144 143 OFFCURVE",
"146 209 OFFCURVE",
"158 359 CURVE SMOOTH",
"161 397 OFFCURVE",
"167 429 OFFCURVE",
"167 467 CURVE SMOOTH",
"167 485 OFFCURVE",
"165 486 OFFCURVE",
"153 486 CURVE SMOOTH",
"133 486 OFFCURVE",
"117 485 OFFCURVE",
"86 474 CURVE SMOOTH",
"27 454 OFFCURVE",
"-20 437 OFFCURVE",
"-7 431 CURVE",
"16 426 OFFCURVE",
"61 420 OFFCURVE",
"72 375 CURVE SMOOTH",
"81 344 OFFCURVE",
"81 307 OFFCURVE",
"81 273 CURVE SMOOTH",
"81 209 OFFCURVE",
"82 142 OFFCURVE",
"82 85 CURVE SMOOTH",
"82 24 OFFCURVE",
"99 -2 OFFCURVE",
"126 -2 CURVE SMOOTH"
);
}
);
width = 244;
}
);
note = j;
unicode = 006A;
},
{
glyphname = k;
layers = (
{
hints = (
{
horizontal = 1;
place = "{17, 47}";
type = Stem;
},
{
horizontal = 1;
place = "{281, 11}";
type = Stem;
},
{
place = "{80, 84}";
type = Stem;
},
{
place = "{302, 98}";
type = Stem;
},
{
place = "{82, 87}";
type = Stem;
}
);
layerId = "59B4545D-7A36-483A-A414-D3C0872518C3";
paths = (
{
closed = 1;
nodes = (
"151 10 OFFCURVE",
"181 23 OFFCURVE",
"214 46 CURVE SMOOTH",
"226 54 OFFCURVE",
"272 89 OFFCURVE",
"257 86 CURVE",
"243 76 OFFCURVE",
"229 72 OFFCURVE",
"217 72 CURVE SMOOTH",
"199 72 OFFCURVE",
"185 81 OFFCURVE",
"176 102 CURVE SMOOTH",
"164 130 OFFCURVE",
"164 186 OFFCURVE",
"164 235 CURVE SMOOTH",
"164 250 OFFCURVE",
"163 261 OFFCURVE",
"163 269 CURVE SMOOTH",
"163 279 OFFCURVE",
"164 283 OFFCURVE",
"169 281 CURVE SMOOTH",
"277 237 OFFCURVE",
"265 117 OFFCURVE",
"341 44 CURVE SMOOTH",
"356 29 OFFCURVE",
"370 21 OFFCURVE",
"400 17 CURVE SMOOTH",
"447 11 OFFCURVE",
"549 99 OFFCURVE",
"534 96 CURVE SMOOTH",
"518 93 OFFCURVE",
"495 64 OFFCURVE",
"464 64 CURVE SMOOTH",
"440 64 OFFCURVE",
"413 80 OFFCURVE",
"379 134 CURVE SMOOTH",
"337 204 OFFCURVE",
"342 260 OFFCURVE",
"270 300 CURVE SMOOTH",
"262 305 OFFCURVE",
"292 315 OFFCURVE",
"296 319 CURVE",
"356 357 OFFCURVE",
"400 419 OFFCURVE",
"400 452 CURVE SMOOTH",
"400 465 OFFCURVE",
"393 474 OFFCURVE",
"376 474 CURVE SMOOTH",
"331 474 OFFCURVE",
"345 434 OFFCURVE",
"287 434 CURVE SMOOTH",
"279 434 OFFCURVE",
"276 433 OFFCURVE",
"276 432 CURVE SMOOTH",
"276 428 OFFCURVE",
"302 417 OFFCURVE",
"302 404 CURVE SMOOTH",
"302 399 OFFCURVE",
"301 386 OFFCURVE",
"296 378 CURVE SMOOTH",
"271 336 OFFCURVE",
"252 316 OFFCURVE",
"199 300 CURVE SMOOTH",
"188 296 OFFCURVE",
"176 296 OFFCURVE",
"165 292 CURVE",
"165 368 LINE SMOOTH",
"165 437 OFFCURVE",
"169 505 OFFCURVE",
"169 576 CURVE SMOOTH",
"169 726 OFFCURVE",
"172 583 OFFCURVE",
"172 863 CURVE SMOOTH",
"174 917 OFFCURVE",
"194 957 OFFCURVE",
"194 972 CURVE SMOOTH",
"194 977 OFFCURVE",
"192 979 OFFCURVE",
"188 979 CURVE SMOOTH",
"182 979 OFFCURVE",
"170 973 OFFCURVE",
"148 962 CURVE",
"118 943 OFFCURVE",
"86 932 OFFCURVE",
"53 916 CURVE SMOOTH",
"10 898 OFFCURVE",
"-5 889 OFFCURVE",
"-5 883 CURVE SMOOTH",
"-5 870 OFFCURVE",
"72 870 OFFCURVE",
"75 802 CURVE SMOOTH",
"80 701 OFFCURVE",
"82 533 OFFCURVE",
"82 433 CURVE SMOOTH",
"82 378 OFFCURVE",
"80 325 OFFCURVE",
"80 267 CURVE SMOOTH",
"80 65 LINE",
"83 27 OFFCURVE",
"100 10 OFFCURVE",
"127 10 CURVE SMOOTH"
);
}
);
width = 467;
}
);
note = k;
unicode = 006B;
},
{
glyphname = l;
layers = (
{
hints = (
{
horizontal = 1;
place = "{4, 50}";
type = Stem;
},
{
place = "{76, 77}";
type = Stem;
},
{
place = "{83, 73}";
type = Stem;
}
);
layerId = "59B4545D-7A36-483A-A414-D3C0872518C3";
paths = (
{
closed = 1;
nodes = (
"196 4 OFFCURVE",
"246 37 OFFCURVE",
"299 83 CURVE SMOOTH",
"317 100 OFFCURVE",
"322 106 OFFCURVE",
"320 106 CURVE SMOOTH",
"315 106 OFFCURVE",
"247 54 OFFCURVE",
"220 54 CURVE SMOOTH",
"159 54 OFFCURVE",
"153 113 OFFCURVE",
"153 196 CURVE SMOOTH",
"153 258 LINE SMOOTH",
"154 301 OFFCURVE",
"156 345 OFFCURVE",
"156 387 CURVE SMOOTH",
"156 420 LINE SMOOTH",
"156 553 OFFCURVE",
"162 649 OFFCURVE",
"168 771 CURVE SMOOTH",
"171 831 LINE SMOOTH",
"172 854 OFFCURVE",
"172 876 OFFCURVE",
"178 897 CURVE SMOOTH",
"185 923 OFFCURVE",
"209 944 OFFCURVE",
"209 971 CURVE SMOOTH",
"209 982 OFFCURVE",
"141 948 OFFCURVE",
"137 946 CURVE SMOOTH",
"98 927 OFFCURVE",
"-5 886 OFFCURVE",
"-5 871 CURVE SMOOTH",
"-5 868 OFFCURVE",
"-2 866 OFFCURVE",
"4 865 CURVE SMOOTH",
"66 853 OFFCURVE",
"81 831 OFFCURVE",
"82 712 CURVE SMOOTH",
"83 669 OFFCURVE",
"83 630 OFFCURVE",
"83 593 CURVE SMOOTH",
"83 494 OFFCURVE",
"81 415 OFFCURVE",
"78 320 CURVE SMOOTH",
"76 256 OFFCURVE",
"76 227 OFFCURVE",
"76 141 CURVE SMOOTH",
"76 68 OFFCURVE",
"92 4 OFFCURVE",
"151 4 CURVE SMOOTH"
);
}
);
width = 270;
}
);
note = l;
unicode = 006C;
},
{
glyphname = m;
layers = (
{
hints = (
{
horizontal = 1;
place = "{2, 66}";
type = Stem;
},
{
horizontal = 1;
place = "{-2, 21}";
target = up;
type = BottomGhost;
},
{
horizontal = 1;
place = "{409, 65}";
type = Stem;
},
{
horizontal = 1;
place = "{499, -20}";
target = down;
type = TopGhost;
},
{
place = "{78, 81}";
type = Stem;
},
{
place = "{275, 79}";
type = Stem;
},
{
place = "{487, 68}";
type = Stem;
},
{
horizontal = 1;
place = "{396, 74}";
type = Stem;
},
{
horizontal = 1;
place = "{5, 61}";
type = Stem;
}
);
layerId = "59B4545D-7A36-483A-A414-D3C0872518C3";
paths = (
{
closed = 1;
nodes = (
"154 2 OFFCURVE",
"198 29 OFFCURVE",
"234 68 CURVE",
"245 89 OFFCURVE",
"203 57 OFFCURVE",
"193 57 CURVE SMOOTH",
"171 57 OFFCURVE",
"161 88 OFFCURVE",
"159 126 CURVE SMOOTH",
"155 190 OFFCURVE",
"156 252 OFFCURVE",
"153 314 CURVE SMOOTH",
"152 327 OFFCURVE",
"151 346 OFFCURVE",
"151 360 CURVE SMOOTH",
"151 368 OFFCURVE",
"151 374 OFFCURVE",
"153 377 CURVE",
"170 389 OFFCURVE",
"207 409 OFFCURVE",
"228 409 CURVE SMOOTH",
"262 409 OFFCURVE",
"277 372 OFFCURVE",
"277 322 CURVE SMOOTH",
"277 315 OFFCURVE",
"275 194 OFFCURVE",
"275 161 CURVE SMOOTH",
"275 84 OFFCURVE",
"265 68 OFFCURVE",
"265 52 CURVE SMOOTH",
"265 22 OFFCURVE",
"290 2 OFFCURVE",
"313 2 CURVE SMOOTH",
"351 2 OFFCURVE",
"398 26 OFFCURVE",
"436 72 CURVE SMOOTH",
"443 81 OFFCURVE",
"446 85 OFFCURVE",
"446 86 CURVE",
"445 87 OFFCURVE",
"445 87 OFFCURVE",
"445 87 CURVE",
"439 87 OFFCURVE",
"409 68 OFFCURVE",
"390 68 CURVE SMOOTH",
"356 68 OFFCURVE",
"350 95 OFFCURVE",
"351 128 CURVE SMOOTH",
"353 241 OFFCURVE",
"352 268 OFFCURVE",
"354 330 CURVE SMOOTH",
"354 338 OFFCURVE",
"354 358 OFFCURVE",
"357 365 CURVE SMOOTH",
"366 383 OFFCURVE",
"410 396 OFFCURVE",
"436 396 CURVE SMOOTH",
"481 396 OFFCURVE",
"493 345 OFFCURVE",
"493 309 CURVE SMOOTH",
"493 301 OFFCURVE",
"493 292 OFFCURVE",
"492 284 CURVE SMOOTH",
"487 237 OFFCURVE",
"490 187 OFFCURVE",
"487 137 CURVE SMOOTH",
"486 117 OFFCURVE",
"489 101 OFFCURVE",
"483 82 CURVE SMOOTH",
"480 75 OFFCURVE",
"479 68 OFFCURVE",
"479 61 CURVE SMOOTH",
"479 31 OFFCURVE",
"500 5 OFFCURVE",
"528 5 CURVE SMOOTH",
"563 5 OFFCURVE",
"606 46 OFFCURVE",
"632 71 CURVE SMOOTH",
"649 87 OFFCURVE",
"655 92 OFFCURVE",
"653 92 CURVE SMOOTH",
"649 92 OFFCURVE",
"611 66 OFFCURVE",
"580 66 CURVE SMOOTH",
"560 66 OFFCURVE",
"555 89 OFFCURVE",
"555 116 CURVE SMOOTH",
"555 125 OFFCURVE",
"555 135 OFFCURVE",
"556 144 CURVE SMOOTH",
"563 211 OFFCURVE",
"572 274 OFFCURVE",
"572 340 CURVE SMOOTH",
"572 390 OFFCURVE",
"566 470 OFFCURVE",
"499 470 CURVE SMOOTH",
"480 470 OFFCURVE",
"462 461 OFFCURVE",
"442 451 CURVE SMOOTH",
"426 443 OFFCURVE",
"409 431 OFFCURVE",
"394 422 CURVE SMOOTH",
"381 414 OFFCURVE",
"379 406 OFFCURVE",
"363 405 CURVE",
"356 403 OFFCURVE",
"359 416 OFFCURVE",
"359 422 CURVE SMOOTH",
"359 448 OFFCURVE",
"350 474 OFFCURVE",
"317 474 CURVE SMOOTH",
"284 474 OFFCURVE",
"252 464 OFFCURVE",
"223 446 CURVE SMOOTH",
"187 424 OFFCURVE",
"163 409 OFFCURVE",
"154 409 CURVE SMOOTH",
"151 409 OFFCURVE",
"150 410 OFFCURVE",
"150 413 CURVE SMOOTH",
"150 429 OFFCURVE",
"151 463 OFFCURVE",
"153 487 CURVE SMOOTH",
"154 495 OFFCURVE",
"153 499 OFFCURVE",
"148 499 CURVE SMOOTH",
"141 499 OFFCURVE",
"126 492 OFFCURVE",
"97 480 CURVE SMOOTH",
"79 473 OFFCURVE",
"58 470 OFFCURVE",
"40 466 CURVE SMOOTH",
"31 464 OFFCURVE",
"-25 439 OFFCURVE",
"-25 428 CURVE SMOOTH",
"-25 424 OFFCURVE",
"-21 421 OFFCURVE",
"-11 419 CURVE SMOOTH",
"40 410 OFFCURVE",
"78 401 OFFCURVE",
"78 342 CURVE SMOOTH",
"78 166 LINE SMOOTH",
"78 119 OFFCURVE",
"75 89 OFFCURVE",
"71 47 CURVE SMOOTH",
"69 23 OFFCURVE",
"76 -4 OFFCURVE",
"104 -2 CURVE SMOOTH"
);
}
);
width = 636;
}
);
note = m;
unicode = 006D;
},
{
glyphname = n;
layers = (
{
hints = (
{
horizontal = 1;
place = "{6, 77}";
type = Stem;
},
{
horizontal = 1;
place = "{410, 73}";
type = Stem;
},
{
place = "{84, 67}";
type = Stem;
},
{
place = "{341, 77}";
type = Stem;
},
{
horizontal = 1;
place = "{13, 43}";
type = Stem;
},
{
place = "{335, 60}";
type = Stem;
}
);
layerId = "59B4545D-7A36-483A-A414-D3C0872518C3";
paths = (
{
closed = 1;
nodes = (
"111 6 OFFCURVE",
"124 10 OFFCURVE",
"142 19 CURVE SMOOTH",
"172 35 OFFCURVE",
"193 52 OFFCURVE",
"225 77 CURVE",
"237 95 OFFCURVE",
"209 67 OFFCURVE",
"170 65 CURVE",
"155 66 OFFCURVE",
"153 81 OFFCURVE",
"152 102 CURVE SMOOTH",
"151 135 OFFCURVE",
"151 161 OFFCURVE",
"151 181 CURVE SMOOTH",
"151 224 LINE SMOOTH",
"151 227 OFFCURVE",
"151 231 OFFCURVE",
"151 237 CURVE SMOOTH",
"153 272 LINE SMOOTH",
"153 278 OFFCURVE",
"153 282 OFFCURVE",
"153 285 CURVE SMOOTH",
"153 318 LINE SMOOTH",
"153 335 OFFCURVE",
"152 364 OFFCURVE",
"168 374 CURVE SMOOTH",
"208 399 OFFCURVE",
"232 410 OFFCURVE",
"265 410 CURVE SMOOTH",
"331 410 OFFCURVE",
"341 336 OFFCURVE",
"341 270 CURVE SMOOTH",
"341 202 OFFCURVE",
"338 134 OFFCURVE",
"330 67 CURVE SMOOTH",
"326 31 OFFCURVE",
"337 13 OFFCURVE",
"363 13 CURVE SMOOTH",
"403 13 OFFCURVE",
"464 52 OFFCURVE",
"488 85 CURVE",
"499 107 OFFCURVE",
"443 56 OFFCURVE",
"414 56 CURVE SMOOTH",
"398 56 OFFCURVE",
"394 83 OFFCURVE",
"395 99 CURVE SMOOTH",
"406 239 OFFCURVE",
"418 271 OFFCURVE",
"418 341 CURVE SMOOTH",
"418 394 OFFCURVE",
"418 483 OFFCURVE",
"345 483 CURVE SMOOTH",
"289 483 OFFCURVE",
"225 413 OFFCURVE",
"161 394 CURVE SMOOTH",
"158 393 OFFCURVE",
"157 399 OFFCURVE",
"157 408 CURVE SMOOTH",
"157 420 OFFCURVE",
"159 440 OFFCURVE",
"161 453 CURVE SMOOTH",
"163 481 LINE",
"165 488 OFFCURVE",
"162 491 OFFCURVE",
"157 491 CURVE SMOOTH",
"144 491 OFFCURVE",
"56 447 OFFCURVE",
"38 437 CURVE SMOOTH",
"9 422 OFFCURVE",
"-31 394 OFFCURVE",
"-11 394 CURVE SMOOTH",
"5 394 OFFCURVE",
"19 395 OFFCURVE",
"29 395 CURVE SMOOTH",
"69 395 OFFCURVE",
"72 387 OFFCURVE",
"80 316 CURVE SMOOTH",
"82 292 OFFCURVE",
"84 178 OFFCURVE",
"84 142 CURVE SMOOTH",
"84 102 OFFCURVE",
"74 63 OFFCURVE",
"74 42 CURVE SMOOTH",
"74 19 OFFCURVE",
"82 6 OFFCURVE",
"100 6 CURVE SMOOTH"
);
}
);
width = 470;
}
);
note = n;
unicode = 006E;
},
{
glyphname = o;
layers = (
{
hints = (
{
horizontal = 1;
place = "{11, 60}";
type = Stem;
},
{
horizontal = 1;
place = "{407, 72}";
type = Stem;
},
{
place = "{16, 67}";
type = Stem;
},
{
place = "{358, 54}";
type = Stem;
}
);
layerId = "59B4545D-7A36-483A-A414-D3C0872518C3";
paths = (
{
closed = 1;
nodes = (
"326 11 OFFCURVE",
"412 141 OFFCURVE",
"412 299 CURVE SMOOTH",
"412 355 OFFCURVE",
"389 411 OFFCURVE",
"345 447 CURVE SMOOTH",
"317 471 OFFCURVE",
"281 479 OFFCURVE",
"245 479 CURVE SMOOTH",
"218 479 OFFCURVE",
"191 474 OFFCURVE",
"170 468 CURVE",
"56 411 OFFCURVE",
"16 375 OFFCURVE",
"16 240 CURVE SMOOTH",
"16 152 OFFCURVE",
"73 22 OFFCURVE",
"170 12 CURVE SMOOTH",
"177 11 OFFCURVE",
"185 11 OFFCURVE",
"192 11 CURVE SMOOTH"
);
},
{
closed = 1;
nodes = (
"185 63 OFFCURVE",
"137 117 OFFCURVE",
"116 176 CURVE SMOOTH",
"104 209 OFFCURVE",
"83 261 OFFCURVE",
"83 308 CURVE SMOOTH",
"83 370 OFFCURVE",
"131 407 OFFCURVE",
"189 407 CURVE SMOOTH",
"281 407 OFFCURVE",
"358 304 OFFCURVE",
"358 234 CURVE SMOOTH",
"358 164 OFFCURVE",
"345 83 OFFCURVE",
"248 71 CURVE SMOOTH"
);
}
);
width = 427;
}
);
note = o;
unicode = 006F;
},
{
glyphname = oacute;
layers = (
{
hints = (
{
horizontal = 1;
place = "{11, 60}";
type = Stem;
},
{
horizontal = 1;
place = "{407, 72}";
type = Stem;
},
{
horizontal = 1;
place = "{913, 52}";
type = Stem;
},
{
horizontal = 1;
place = "{965, -20}";
target = down;
type = TopGhost;
},
{
place = "{16, 67}";
type = Stem;
},
{
place = "{358, 54}";
type = Stem;
}
);
layerId = "59B4545D-7A36-483A-A414-D3C0872518C3";
paths = (
{
closed = 1;
nodes = (
"-280 752 OFFCURVE",
"-179 779 OFFCURVE",
"-113 800 CURVE SMOOTH",
"-31 826 OFFCURVE",
"52 849 OFFCURVE",
"135 871 CURVE SMOOTH",
"205 890 OFFCURVE",
"276 908 OFFCURVE",
"348 913 CURVE SMOOTH",
"377 915 OFFCURVE",
"374 883 OFFCURVE",
"383 882 CURVE SMOOTH",
"395 881 OFFCURVE",
"409 889 OFFCURVE",
"419 893 CURVE SMOOTH",
"432 898 OFFCURVE",
"493 923 OFFCURVE",
"493 946 CURVE SMOOTH",
"493 960 OFFCURVE",
"476 965 OFFCURVE",
"454 965 CURVE SMOOTH",
"404 965 OFFCURVE",
"320 937 OFFCURVE",
"299 933 CURVE SMOOTH",
"214 917 OFFCURVE",
"132 892 OFFCURVE",
"49 865 CURVE SMOOTH",
"-36 837 OFFCURVE",
"-122 815 OFFCURVE",
"-208 788 CURVE SMOOTH",
"-234 780 OFFCURVE",
"-352 757 OFFCURVE",
"-362 722 CURVE"
);
},
{
closed = 1;
nodes = (
"326 11 OFFCURVE",
"412 141 OFFCURVE",
"412 299 CURVE SMOOTH",
"412 355 OFFCURVE",
"389 411 OFFCURVE",
"345 447 CURVE SMOOTH",
"317 471 OFFCURVE",
"281 479 OFFCURVE",
"245 479 CURVE SMOOTH",
"218 479 OFFCURVE",
"191 474 OFFCURVE",
"170 468 CURVE",
"56 411 OFFCURVE",
"16 375 OFFCURVE",
"16 240 CURVE SMOOTH",
"16 152 OFFCURVE",
"73 22 OFFCURVE",
"170 12 CURVE SMOOTH",
"177 11 OFFCURVE",
"185 11 OFFCURVE",
"192 11 CURVE SMOOTH"
);
},
{
closed = 1;
nodes = (
"185 63 OFFCURVE",
"137 117 OFFCURVE",
"116 176 CURVE SMOOTH",
"104 209 OFFCURVE",
"83 261 OFFCURVE",
"83 308 CURVE SMOOTH",
"83 370 OFFCURVE",
"131 407 OFFCURVE",
"189 407 CURVE SMOOTH",
"281 407 OFFCURVE",
"358 304 OFFCURVE",
"358 234 CURVE SMOOTH",
"358 164 OFFCURVE",
"345 83 OFFCURVE",
"248 71 CURVE SMOOTH"
);
}
);
width = 427;
}
);
note = oacute;
unicode = 00F3;
},
{
glyphname = omacron;
layers = (
{
hints = (
{
horizontal = 1;
place = "{8, 55}";
type = Stem;
},
{
horizontal = 1;
place = "{423, 65}";
type = Stem;
},
{
horizontal = 1;
place = "{738, 25}";
type = Stem;
},
{
place = "{38, 79}";
type = Stem;
},
{
place = "{337, 80}";
type = Stem;
}
);
layerId = "59B4545D-7A36-483A-A414-D3C0872518C3";
paths = (
{
closed = 1;
nodes = (
"476 692 OFFCURVE",
"519 726 OFFCURVE",
"523 734 CURVE SMOOTH",
"527 743 OFFCURVE",
"531 751 OFFCURVE",
"531 759 CURVE SMOOTH",
"531 764 OFFCURVE",
"529 769 OFFCURVE",
"523 774 CURVE SMOOTH",
"517 778 OFFCURVE",
"497 780 OFFCURVE",
"472 780 CURVE SMOOTH",
"433 780 OFFCURVE",
"381 776 OFFCURVE",
"341 774 CURVE SMOOTH",
"250 769 LINE SMOOTH",
"212 767 OFFCURVE",
"174 763 OFFCURVE",
"144 763 CURVE SMOOTH",
"111 763 OFFCURVE",
"89 768 OFFCURVE",
"89 786 CURVE SMOOTH",
"89 793 OFFCURVE",
"87 795 OFFCURVE",
"85 795 CURVE SMOOTH",
"72 795 OFFCURVE",
"39 738 OFFCURVE",
"47 733 CURVE SMOOTH",
"54 728 OFFCURVE",
"60 727 OFFCURVE",
"67 727 CURVE SMOOTH",
"80 727 OFFCURVE",
"101 732 OFFCURVE",
"156 732 CURVE SMOOTH",
"202 732 OFFCURVE",
"288 738 OFFCURVE",
"357 738 CURVE SMOOTH",
"424 738 OFFCURVE",
"476 733 OFFCURVE",
"464 711 CURVE SMOOTH",
"460 704 OFFCURVE",
"458 699 OFFCURVE",
"458 696 CURVE SMOOTH",
"458 693 OFFCURVE",
"460 692 OFFCURVE",
"463 692 CURVE SMOOTH"
);
},
{
closed = 1;
nodes = (
"309 8 OFFCURVE",
"400 145 OFFCURVE",
"413 252 CURVE SMOOTH",
"415 269 OFFCURVE",
"417 288 OFFCURVE",
"417 307 CURVE SMOOTH",
"417 364 OFFCURVE",
"403 422 OFFCURVE",
"357 457 CURVE SMOOTH",
"332 478 OFFCURVE",
"302 488 OFFCURVE",
"273 488 CURVE SMOOTH",
"247 488 OFFCURVE",
"220 481 OFFCURVE",
"197 467 CURVE",
"138 438 OFFCURVE",
"80 446 OFFCURVE",
"57 371 CURVE SMOOTH",
"45 330 OFFCURVE",
"38 288 OFFCURVE",
"38 245 CURVE SMOOTH",
"38 153 OFFCURVE",
"76 8 OFFCURVE",
"190 8 CURVE SMOOTH"
);
},
{
closed = 1;
nodes = (
"224 63 OFFCURVE",
"207 75 OFFCURVE",
"185 97 CURVE SMOOTH",
"143 140 OFFCURVE",
"117 251 OFFCURVE",
"117 334 CURVE SMOOTH",
"117 386 OFFCURVE",
"135 423 OFFCURVE",
"191 423 CURVE SMOOTH",
"206 423 OFFCURVE",
"221 421 OFFCURVE",
"233 417 CURVE SMOOTH",
"268 408 OFFCURVE",
"297 370 OFFCURVE",
"313 341 CURVE SMOOTH",
"330 312 OFFCURVE",
"337 278 OFFCURVE",
"337 242 CURVE SMOOTH",
"337 201 OFFCURVE",
"328 159 OFFCURVE",
"317 123 CURVE SMOOTH",
"306 81 OFFCURVE",
"277 63 OFFCURVE",
"245 63 CURVE SMOOTH"
);
}
);
width = 435;
}
);
note = omacron;
unicode = 014D;
},
{
glyphname = p;
layers = (
{
hints = (
{
horizontal = 1;
place = "{94, 93}";
type = Stem;
},
{
horizontal = 1;
place = "{427, 66}";
type = Stem;
},
{
place = "{109, 51}";
type = Stem;
},
{
place = "{450, 77}";
type = Stem;
},
{
place = "{113, 69}";
type = Stem;
}
);
layerId = "59B4545D-7A36-483A-A414-D3C0872518C3";
paths = (
{
closed = 1;
nodes = (
"104 -607 OFFCURVE",
"107 -607 OFFCURVE",
"110 -606 CURVE SMOOTH",
"140 -600 OFFCURVE",
"171 -548 OFFCURVE",
"166 -524 CURVE SMOOTH",
"162 -506 OFFCURVE",
"160 -489 OFFCURVE",
"160 -473 CURVE SMOOTH",
"160 -438 OFFCURVE",
"168 -404 OFFCURVE",
"173 -366 CURVE",
"181 -329 OFFCURVE",
"182 -290 OFFCURVE",
"182 -251 CURVE SMOOTH",
"182 -208 LINE SMOOTH",
"182 -181 OFFCURVE",
"182 -154 OFFCURVE",
"185 -128 CURVE SMOOTH",
"189 -101 OFFCURVE",
"190 -52 OFFCURVE",
"190 15 CURVE SMOOTH",
"190 80 OFFCURVE",
"202 149 OFFCURVE",
"206 216 CURVE SMOOTH",
"209 257 OFFCURVE",
"209 292 OFFCURVE",
"212 332 CURVE SMOOTH",
"217 410 OFFCURVE",
"255 427 OFFCURVE",
"293 427 CURVE SMOOTH",
"336 427 OFFCURVE",
"429 361 OFFCURVE",
"443 311 CURVE",
"447 289 OFFCURVE",
"450 267 OFFCURVE",
"450 247 CURVE SMOOTH",
"450 200 OFFCURVE",
"437 162 OFFCURVE",
"401 162 CURVE SMOOTH",
"368 162 OFFCURVE",
"334 187 OFFCURVE",
"303 187 CURVE SMOOTH",
"279 187 OFFCURVE",
"262 173 OFFCURVE",
"244 155 CURVE SMOOTH",
"222 133 OFFCURVE",
"212 121 OFFCURVE",
"212 114 CURVE SMOOTH",
"212 102 OFFCURVE",
"238 104 OFFCURVE",
"282 97 CURVE SMOOTH",
"295 95 OFFCURVE",
"308 94 OFFCURVE",
"321 94 CURVE SMOOTH",
"360 94 OFFCURVE",
"397 105 OFFCURVE",
"431 139 CURVE SMOOTH",
"517 226 OFFCURVE",
"527 292 OFFCURVE",
"527 339 CURVE SMOOTH",
"527 383 OFFCURVE",
"487 427 OFFCURVE",
"444 456 CURVE SMOOTH",
"420 474 OFFCURVE",
"396 493 OFFCURVE",
"364 493 CURVE SMOOTH",
"340 493 OFFCURVE",
"310 477 OFFCURVE",
"287 466 CURVE SMOOTH",
"245 447 OFFCURVE",
"183 405 OFFCURVE",
"181 354 CURVE SMOOTH",
"177 259 OFFCURVE",
"175 214 OFFCURVE",
"172 214 CURVE SMOOTH",
"170 214 OFFCURVE",
"168 286 OFFCURVE",
"168 422 CURVE SMOOTH",
"168 460 OFFCURVE",
"143 491 OFFCURVE",
"100 486 CURVE SMOOTH",
"66 483 OFFCURVE",
"-34 421 OFFCURVE",
"-10 410 CURVE",
"54 397 OFFCURVE",
"71 389 OFFCURVE",
"81 350 CURVE SMOOTH",
"96 294 OFFCURVE",
"91 238 OFFCURVE",
"94 182 CURVE SMOOTH",
"95 148 OFFCURVE",
"97 114 OFFCURVE",
"98 80 CURVE SMOOTH",
"108 -121 LINE SMOOTH",
"109 -155 OFFCURVE",
"111 -189 OFFCURVE",
"112 -223 CURVE SMOOTH",
"113 -242 OFFCURVE",
"113 -260 OFFCURVE",
"113 -279 CURVE SMOOTH",
"113 -330 OFFCURVE",
"109 -383 OFFCURVE",
"109 -434 CURVE SMOOTH",
"109 -455 OFFCURVE",
"111 -475 OFFCURVE",
"111 -494 CURVE SMOOTH",
"111 -501 OFFCURVE",
"111 -508 OFFCURVE",
"110 -515 CURVE SMOOTH",
"106 -564 OFFCURVE",
"96 -590 OFFCURVE",
"96 -601 CURVE SMOOTH",
"96 -605 OFFCURVE",
"97 -607 OFFCURVE",
"102 -607 CURVE SMOOTH"
);
}
);
width = 561;
}
);
note = p;
unicode = 0070;
},
{
glyphname = thorn;
layers = (
{
hints = (
{
horizontal = 1;
place = "{406, 79}";
type = Stem;
},
{
horizontal = 1;
place = "{965, -20}";
target = down;
type = TopGhost;
},
{
place = "{77, 83}";
type = Stem;
},
{
place = "{275, 91}";
type = Stem;
},
{
place = "{74, 91}";
type = Stem;
}
);
layerId = "59B4545D-7A36-483A-A414-D3C0872518C3";
paths = (
{
closed = 1;
nodes = (
"88 -542 OFFCURVE",
"107 -515 OFFCURVE",
"130 -464 CURVE SMOOTH",
"149 -422 OFFCURVE",
"151 -377 OFFCURVE",
"153 -332 CURVE SMOOTH",
"158 -241 OFFCURVE",
"158 -150 OFFCURVE",
"167 -59 CURVE SMOOTH",
"168 -53 OFFCURVE",
"169 13 OFFCURVE",
"173 15 CURVE SMOOTH",
"204 31 OFFCURVE",
"240 45 OFFCURVE",
"257 79 CURVE SMOOTH",
"280 126 OFFCURVE",
"316 167 OFFCURVE",
"334 216 CURVE SMOOTH",
"350 259 OFFCURVE",
"366 322 OFFCURVE",
"366 373 CURVE SMOOTH",
"366 380 OFFCURVE",
"366 388 OFFCURVE",
"365 395 CURVE SMOOTH",
"361 436 OFFCURVE",
"322 485 OFFCURVE",
"275 485 CURVE SMOOTH",
"268 485 OFFCURVE",
"260 484 OFFCURVE",
"253 481 CURVE SMOOTH",
"243 478 OFFCURVE",
"160 440 OFFCURVE",
"160 437 CURVE SMOOTH",
"166 511 OFFCURVE",
"161 583 OFFCURVE",
"170 657 CURVE SMOOTH",
"176 709 OFFCURVE",
"173 769 OFFCURVE",
"184 820 CURVE SMOOTH",
"193 860 OFFCURVE",
"209 903 OFFCURVE",
"215 941 CURVE SMOOTH",
"216 950 OFFCURVE",
"224 953 OFFCURVE",
"224 957 CURVE SMOOTH",
"224 959 OFFCURVE",
"223 962 OFFCURVE",
"217 965 CURVE SMOOTH",
"210 969 OFFCURVE",
"190 963 OFFCURVE",
"182 961 CURVE SMOOTH",
"138 950 OFFCURVE",
"106 926 OFFCURVE",
"66 908 CURVE SMOOTH",
"30 892 OFFCURVE",
"-20 883 OFFCURVE",
"-39 848 CURVE",
"-50 832 OFFCURVE",
"1 862 OFFCURVE",
"31 862 CURVE SMOOTH",
"34 862 OFFCURVE",
"37 862 OFFCURVE",
"40 861 CURVE SMOOTH",
"76 851 OFFCURVE",
"77 749 OFFCURVE",
"77 647 CURVE SMOOTH",
"77 578 OFFCURVE",
"74 516 OFFCURVE",
"74 499 CURVE SMOOTH",
"74 353 OFFCURVE",
"75 205 OFFCURVE",
"77 57 CURVE SMOOTH",
"78 -31 OFFCURVE",
"78 -123 OFFCURVE",
"84 -209 CURVE SMOOTH",
"85 -224 OFFCURVE",
"86 -237 OFFCURVE",
"86 -251 CURVE SMOOTH",
"86 -300 OFFCURVE",
"84 -341 OFFCURVE",
"80 -398 CURVE SMOOTH",
"70 -536 OFFCURVE",
"28 -552 OFFCURVE",
"48 -554 CURVE"
);
},
{
closed = 1;
nodes = (
"170 47 OFFCURVE",
"169 53 OFFCURVE",
"169 64 CURVE SMOOTH",
"169 76 LINE SMOOTH",
"169 104 OFFCURVE",
"169 132 OFFCURVE",
"168 159 CURVE SMOOTH",
"165 322 LINE SMOOTH",
"165 328 OFFCURVE",
"163 351 OFFCURVE",
"163 372 CURVE SMOOTH",
"163 404 OFFCURVE",
"163 406 OFFCURVE",
"195 406 CURVE SMOOTH",
"265 406 OFFCURVE",
"275 332 OFFCURVE",
"275 274 CURVE SMOOTH",
"275 212 OFFCURVE",
"263 95 OFFCURVE",
"193 53 CURVE SMOOTH",
"185 49 OFFCURVE",
"180 47 OFFCURVE",
"176 47 CURVE SMOOTH"
);
}
);
width = 408;
}
);
note = thorn;
unicode = 00FE;
},
{
glyphname = q;
layers = (
{
hints = (
{
horizontal = 1;
place = "{87, 50}";
type = Stem;
},
{
horizontal = 1;
place = "{419, 66}";
type = Stem;
},
{
place = "{13, 76}";
type = Stem;
},
{
place = "{339, 103}";
type = Stem;
}
);
layerId = "59B4545D-7A36-483A-A414-D3C0872518C3";
paths = (
{
closed = 1;
nodes = (
"356 -592 OFFCURVE",
"381 -565 OFFCURVE",
"390 -554 CURVE SMOOTH",
"402 -538 OFFCURVE",
"450 -482 OFFCURVE",
"435 -482 CURVE SMOOTH",
"433 -482 OFFCURVE",
"430 -484 OFFCURVE",
"425 -486 CURVE",
"411 -489 OFFCURVE",
"407 -471 OFFCURVE",
"407 -449 CURVE SMOOTH",
"407 -426 OFFCURVE",
"411 -400 OFFCURVE",
"411 -391 CURVE SMOOTH",
"411 -300 OFFCURVE",
"421 -217 OFFCURVE",
"425 -132 CURVE SMOOTH",
"433 32 OFFCURVE",
"442 198 OFFCURVE",
"442 362 CURVE SMOOTH",
"442 385 OFFCURVE",
"454 417 OFFCURVE",
"454 443 CURVE SMOOTH",
"454 474 OFFCURVE",
"439 493 OFFCURVE",
"407 493 CURVE SMOOTH",
"391 493 OFFCURVE",
"375 488 OFFCURVE",
"361 487 CURVE SMOOTH",
"273 484 LINE SMOOTH",
"224 482 OFFCURVE",
"176 469 OFFCURVE",
"127 459 CURVE SMOOTH",
"93 452 OFFCURVE",
"20 442 OFFCURVE",
"15 397 CURVE SMOOTH",
"13 382 OFFCURVE",
"13 367 OFFCURVE",
"13 352 CURVE SMOOTH",
"13 280 OFFCURVE",
"25 179 OFFCURVE",
"64 120 CURVE SMOOTH",
"83 91 OFFCURVE",
"114 78 OFFCURVE",
"148 78 CURVE SMOOTH",
"168 78 OFFCURVE",
"186 87 OFFCURVE",
"206 87 CURVE SMOOTH",
"227 87 LINE SMOOTH",
"233 87 OFFCURVE",
"239 88 OFFCURVE",
"246 89 CURVE SMOOTH",
"278 96 OFFCURVE",
"307 112 OFFCURVE",
"337 123 CURVE SMOOTH",
"340 124 OFFCURVE",
"341 105 OFFCURVE",
"341 80 CURVE SMOOTH",
"341 43 OFFCURVE",
"339 -5 OFFCURVE",
"339 -12 CURVE SMOOTH",
"339 -120 LINE SMOOTH",
"339 -136 OFFCURVE",
"339 -151 OFFCURVE",
"339 -166 CURVE SMOOTH",
"342 -259 LINE SMOOTH",
"342 -274 OFFCURVE",
"342 -290 OFFCURVE",
"342 -305 CURVE SMOOTH",
"342 -331 OFFCURVE",
"342 -358 OFFCURVE",
"340 -384 CURVE SMOOTH",
"331 -506 LINE SMOOTH",
"331 -511 OFFCURVE",
"330 -523 OFFCURVE",
"330 -537 CURVE SMOOTH",
"330 -558 OFFCURVE",
"332 -582 OFFCURVE",
"341 -586 CURVE SMOOTH"
);
},
{
closed = 1;
nodes = (
"237 138 LINE SMOOTH",
"236 138 OFFCURVE",
"235 138 OFFCURVE",
"234 138 CURVE SMOOTH",
"188 143 OFFCURVE",
"179 144 OFFCURVE",
"151 179 CURVE SMOOTH",
"131 204 OFFCURVE",
"116 231 OFFCURVE",
"108 261 CURVE SMOOTH",
"102 286 OFFCURVE",
"89 314 OFFCURVE",
"89 341 CURVE SMOOTH",
"89 398 OFFCURVE",
"125 412 OFFCURVE",
"176 416 CURVE SMOOTH",
"196 418 OFFCURVE",
"218 419 OFFCURVE",
"241 419 CURVE SMOOTH",
"276 419 OFFCURVE",
"312 416 OFFCURVE",
"344 408 CURVE SMOOTH",
"358 405 OFFCURVE",
"363 383 OFFCURVE",
"363 355 CURVE SMOOTH",
"363 303 OFFCURVE",
"346 229 OFFCURVE",
"341 213 CURVE SMOOTH",
"327 168 OFFCURVE",
"291 137 OFFCURVE",
"243 137 CURVE"
);
}
);
width = 490;
}
);
note = q;
unicode = 0071;
},
{
glyphname = r;
layers = (
{
hints = (
{
horizontal = 1;
place = "{23, 55}";
type = Stem;
},
{
horizontal = 1;
place = "{427, 57}";
type = Stem;
},
{
place = "{88, 75}";
type = Stem;
},
{
place = "{342, 83}";
type = Stem;
},
{
place = "{308, 66}";
type = Stem;
}
);
layerId = "59B4545D-7A36-483A-A414-D3C0872518C3";
paths = (
{
closed = 1;
nodes = (
"128 -302 OFFCURVE",
"139 -219 OFFCURVE",
"155 -89 CURVE SMOOTH",
"161 -39 OFFCURVE",
"163 10 OFFCURVE",
"163 61 CURVE SMOOTH",
"163 133 OFFCURVE",
"163 209 OFFCURVE",
"164 223 CURVE SMOOTH",
"167 264 OFFCURVE",
"167 318 OFFCURVE",
"168 361 CURVE SMOOTH",
"169 395 OFFCURVE",
"174 409 OFFCURVE",
"193 416 CURVE SMOOTH",
"222 426 OFFCURVE",
"234 427 OFFCURVE",
"255 427 CURVE SMOOTH",
"313 427 OFFCURVE",
"342 339 OFFCURVE",
"342 290 CURVE SMOOTH",
"342 252 OFFCURVE",
"332 212 OFFCURVE",
"322 167 CURVE SMOOTH",
"314 132 OFFCURVE",
"308 100 OFFCURVE",
"308 75 CURVE SMOOTH",
"308 43 OFFCURVE",
"318 23 OFFCURVE",
"348 23 CURVE SMOOTH",
"352 23 OFFCURVE",
"356 23 OFFCURVE",
"360 24 CURVE SMOOTH",
"413 32 OFFCURVE",
"511 65 OFFCURVE",
"546 116 CURVE",
"553 132 OFFCURVE",
"521 98 OFFCURVE",
"479 88 CURVE SMOOTH",
"456 83 OFFCURVE",
"436 78 OFFCURVE",
"420 78 CURVE SMOOTH",
"390 78 OFFCURVE",
"374 94 OFFCURVE",
"374 149 CURVE SMOOTH",
"374 185 OFFCURVE",
"391 214 OFFCURVE",
"401 244 CURVE SMOOTH",
"412 277 OFFCURVE",
"425 315 OFFCURVE",
"425 350 CURVE SMOOTH",
"425 398 OFFCURVE",
"403 442 OFFCURVE",
"363 472 CURVE SMOOTH",
"351 481 OFFCURVE",
"340 484 OFFCURVE",
"329 484 CURVE SMOOTH",
"306 484 OFFCURVE",
"283 470 OFFCURVE",
"256 463 CURVE SMOOTH",
"226 456 OFFCURVE",
"179 424 OFFCURVE",
"165 424 CURVE SMOOTH",
"162 424 OFFCURVE",
"160 426 OFFCURVE",
"161 430 CURVE SMOOTH",
"164 447 OFFCURVE",
"168 459 OFFCURVE",
"170 482 CURVE SMOOTH",
"170 487 OFFCURVE",
"165 489 OFFCURVE",
"158 489 CURVE SMOOTH",
"144 489 OFFCURVE",
"123 482 OFFCURVE",
"111 476 CURVE SMOOTH",
"102 471 OFFCURVE",
"84 465 OFFCURVE",
"67 459 CURVE SMOOTH",
"52 454 OFFCURVE",
"-40 419 OFFCURVE",
"-40 402 CURVE SMOOTH",
"-40 399 OFFCURVE",
"-35 398 OFFCURVE",
"-26 398 CURVE SMOOTH",
"-17 398 OFFCURVE",
"-4 399 OFFCURVE",
"10 401 CURVE SMOOTH",
"22 402 OFFCURVE",
"32 404 OFFCURVE",
"40 404 CURVE SMOOTH",
"66 404 OFFCURVE",
"78 389 OFFCURVE",
"83 314 CURVE SMOOTH",
"87 264 OFFCURVE",
"88 160 OFFCURVE",
"88 84 CURVE SMOOTH",
"88 18 OFFCURVE",
"87 -29 OFFCURVE",
"87 -6 CURVE SMOOTH",
"87 -57 OFFCURVE",
"82 -109 OFFCURVE",
"79 -160 CURVE SMOOTH",
"73 -272 OFFCURVE",
"49 -320 OFFCURVE",
"62 -317 CURVE SMOOTH"
);
}
);
width = 487;
}
);
note = r;
unicode = 0072;
},
{
glyphname = s;
layers = (
{
hints = (
{
horizontal = 1;
place = "{413, 63}";
type = Stem;
},
{
place = "{112, 72}";
type = Stem;
},
{
place = "{192, 7}";
type = Stem;
}
);
layerId = "59B4545D-7A36-483A-A414-D3C0872518C3";
paths = (
{
closed = 1;
nodes = (
"135 -585 OFFCURVE",
"137 -586 OFFCURVE",
"140 -586 CURVE SMOOTH",
"155 -586 OFFCURVE",
"171 -520 OFFCURVE",
"176 -483 CURVE SMOOTH",
"182 -444 OFFCURVE",
"179 -405 OFFCURVE",
"181 -379 CURVE SMOOTH",
"193 -227 OFFCURVE",
"199 -68 OFFCURVE",
"199 84 CURVE SMOOTH",
"199 291 OFFCURVE",
"210 413 OFFCURVE",
"269 413 CURVE SMOOTH",
"346 413 OFFCURVE",
"356 354 OFFCURVE",
"389 347 CURVE SMOOTH",
"406 343 OFFCURVE",
"422 373 OFFCURVE",
"422 403 CURVE SMOOTH",
"422 443 OFFCURVE",
"391 476 OFFCURVE",
"350 476 CURVE SMOOTH",
"270 476 OFFCURVE",
"195 429 OFFCURVE",
"192 355 CURVE SMOOTH",
"189 275 OFFCURVE",
"186 76 OFFCURVE",
"185 76 CURVE SMOOTH",
"184 76 OFFCURVE",
"184 116 OFFCURVE",
"184 223 CURVE SMOOTH",
"184 254 OFFCURVE",
"183 295 OFFCURVE",
"183 337 CURVE SMOOTH",
"183 373 OFFCURVE",
"184 409 OFFCURVE",
"186 442 CURVE SMOOTH",
"187 453 OFFCURVE",
"194 469 OFFCURVE",
"194 480 CURVE SMOOTH",
"194 485 OFFCURVE",
"192 489 OFFCURVE",
"185 489 CURVE SMOOTH",
"147 491 OFFCURVE",
"139 468 OFFCURVE",
"105 453 CURVE SMOOTH",
"84 444 OFFCURVE",
"-14 425 OFFCURVE",
"-23 405 CURVE SMOOTH",
"-27 393 OFFCURVE",
"35 390 OFFCURVE",
"61 389 CURVE SMOOTH",
"100 388 OFFCURVE",
"112 291 OFFCURVE",
"112 175 CURVE SMOOTH",
"112 81 OFFCURVE",
"113 76 OFFCURVE",
"124 -61 CURVE SMOOTH",
"127 -101 OFFCURVE",
"128 -135 OFFCURVE",
"128 -167 CURVE SMOOTH",
"128 -256 OFFCURVE",
"119 -323 OFFCURVE",
"119 -435 CURVE SMOOTH",
"119 -529 OFFCURVE",
"126 -573 OFFCURVE",
"133 -582 CURVE SMOOTH"
);
}
);
width = 425;
}
);
note = s;
unicode = 0073;
},
{
glyphname = t;
layers = (
{
hints = (
{
horizontal = 1;
place = "{1, 69}";
type = Stem;
},
{
horizontal = 1;
place = "{392, 78}";
type = Stem;
},
{
place = "{101, 92}";
type = Stem;
},
{
place = "{426, 98}";
type = Stem;
}
);
layerId = "59B4545D-7A36-483A-A414-D3C0872518C3";
paths = (
{
closed = 1;
nodes = (
"366 3 OFFCURVE",
"443 87 OFFCURVE",
"507 158 CURVE",
"517 171 OFFCURVE",
"524 189 OFFCURVE",
"524 206 CURVE SMOOTH",
"524 223 OFFCURVE",
"519 240 OFFCURVE",
"501 240 CURVE SMOOTH",
"478 240 OFFCURVE",
"426 218 OFFCURVE",
"426 190 CURVE SMOOTH",
"426 172 OFFCURVE",
"440 157 OFFCURVE",
"441 138 CURVE SMOOTH",
"441 102 OFFCURVE",
"392 70 OFFCURVE",
"358 70 CURVE SMOOTH",
"294 70 OFFCURVE",
"231 111 OFFCURVE",
"209 151 CURVE SMOOTH",
"193 180 OFFCURVE",
"193 220 OFFCURVE",
"193 260 CURVE SMOOTH",
"194 323 OFFCURVE",
"220 387 OFFCURVE",
"293 388 CURVE SMOOTH",
"311 389 OFFCURVE",
"328 389 OFFCURVE",
"346 389 CURVE SMOOTH",
"351 389 OFFCURVE",
"355 389 OFFCURVE",
"360 389 CURVE SMOOTH",
"387 391 LINE",
"443 391 OFFCURVE",
"502 405 OFFCURVE",
"547 440 CURVE SMOOTH",
"562 451 OFFCURVE",
"613 465 OFFCURVE",
"571 465 CURVE SMOOTH",
"558 465 OFFCURVE",
"542 462 OFFCURVE",
"527 462 CURVE SMOOTH",
"517 462 OFFCURVE",
"508 463 OFFCURVE",
"499 464 CURVE SMOOTH",
"466 469 OFFCURVE",
"434 470 OFFCURVE",
"401 470 CURVE SMOOTH",
"336 470 OFFCURVE",
"271 464 OFFCURVE",
"206 464 CURVE SMOOTH",
"183 464 OFFCURVE",
"159 465 OFFCURVE",
"136 467 CURVE SMOOTH",
"121 468 OFFCURVE",
"104 470 OFFCURVE",
"88 470 CURVE SMOOTH",
"73 470 OFFCURVE",
"42 467 OFFCURVE",
"51 473 CURVE SMOOTH",
"109 516 LINE",
"191 588 LINE SMOOTH",
"219 613 OFFCURVE",
"242 633 OFFCURVE",
"270 659 CURVE SMOOTH",
"276 664 OFFCURVE",
"304 693 OFFCURVE",
"301 693 CURVE SMOOTH",
"300 693 OFFCURVE",
"299 692 OFFCURVE",
"296 690 CURVE",
"296 688 OFFCURVE",
"226 628 OFFCURVE",
"225 627 CURVE SMOOTH",
"159 567 LINE SMOOTH",
"109 522 OFFCURVE",
"-8 433 OFFCURVE",
"-50 413 CURVE SMOOTH",
"-59 409 OFFCURVE",
"-62 406 OFFCURVE",
"-62 403 CURVE SMOOTH",
"-62 391 OFFCURVE",
"12 392 OFFCURVE",
"44 392 CURVE SMOOTH",
"216 392 LINE SMOOTH",
"217 392 OFFCURVE",
"167 313 OFFCURVE",
"163 307 CURVE SMOOTH",
"128 252 OFFCURVE",
"101 202 OFFCURVE",
"101 147 CURVE SMOOTH",
"101 66 OFFCURVE",
"183 0 OFFCURVE",
"264 1 CURVE SMOOTH"
);
}
);
width = 521;
}
);
note = t;
unicode = 0074;
},
{
glyphname = u;
layers = (
{
hints = (
{
horizontal = 1;
place = "{7, 50}";
type = Stem;
},
{
place = "{74, 75}";
type = Stem;
},
{
place = "{309, 64}";
type = Stem;
},
{
horizontal = 1;
place = "{10, 54}";
type = Stem;
}
);
layerId = "59B4545D-7A36-483A-A414-D3C0872518C3";
paths = (
{
closed = 1;
nodes = (
"239 7 OFFCURVE",
"263 36 OFFCURVE",
"302 66 CURVE SMOOTH",
"311 73 OFFCURVE",
"315 31 OFFCURVE",
"321 22 CURVE SMOOTH",
"327 14 OFFCURVE",
"336 10 OFFCURVE",
"347 10 CURVE SMOOTH",
"405 10 OFFCURVE",
"516 103 OFFCURVE",
"479 83 CURVE SMOOTH",
"454 69 OFFCURVE",
"439 64 OFFCURVE",
"428 64 CURVE SMOOTH",
"416 64 OFFCURVE",
"408 70 OFFCURVE",
"395 77 CURVE SMOOTH",
"368 93 OFFCURVE",
"370 131 OFFCURVE",
"371 157 CURVE SMOOTH",
"376 294 LINE SMOOTH",
"377 328 OFFCURVE",
"377 359 OFFCURVE",
"383 392 CURVE SMOOTH",
"385 403 OFFCURVE",
"386 414 OFFCURVE",
"386 424 CURVE SMOOTH",
"386 455 OFFCURVE",
"375 476 OFFCURVE",
"351 476 CURVE SMOOTH",
"339 476 OFFCURVE",
"323 471 OFFCURVE",
"304 458 CURVE SMOOTH",
"260 428 OFFCURVE",
"242 419 OFFCURVE",
"243 410 CURVE SMOOTH",
"244 400 OFFCURVE",
"314 407 OFFCURVE",
"313 376 CURVE SMOOTH",
"306 160 LINE SMOOTH",
"305 131 OFFCURVE",
"307 103 OFFCURVE",
"280 77 CURVE SMOOTH",
"266 64 OFFCURVE",
"244 57 OFFCURVE",
"223 57 CURVE SMOOTH",
"154 57 OFFCURVE",
"144 109 OFFCURVE",
"144 167 CURVE SMOOTH",
"144 179 OFFCURVE",
"145 192 OFFCURVE",
"146 206 CURVE SMOOTH",
"149 313 LINE SMOOTH",
"149 341 OFFCURVE",
"152 372 OFFCURVE",
"157 396 CURVE SMOOTH",
"162 415 OFFCURVE",
"172 459 OFFCURVE",
"172 472 CURVE SMOOTH",
"172 477 OFFCURVE",
"168 480 OFFCURVE",
"161 480 CURVE SMOOTH",
"148 480 OFFCURVE",
"128 473 OFFCURVE",
"108 463 CURVE SMOOTH",
"91 454 OFFCURVE",
"-24 407 OFFCURVE",
"-5 396 CURVE SMOOTH",
"14 386 OFFCURVE",
"34 393 OFFCURVE",
"47 386 CURVE SMOOTH",
"77 369 OFFCURVE",
"69 358 OFFCURVE",
"73 251 CURVE SMOOTH",
"74 229 OFFCURVE",
"74 211 OFFCURVE",
"74 195 CURVE SMOOTH",
"74 138 OFFCURVE",
"70 111 OFFCURVE",
"70 93 CURVE SMOOTH",
"70 38 OFFCURVE",
"129 7 OFFCURVE",
"179 7 CURVE SMOOTH"
);
}
);
width = 453;
}
);
note = u;
unicode = 0075;
},
{
glyphname = uacute;
layers = (
{
hints = (
{
horizontal = 1;
place = "{5, 75}";
type = Stem;
},
{
horizontal = 1;
place = "{922, 52}";
type = Stem;
},
{
place = "{73, 76}";
type = Stem;
},
{
place = "{313, 60}";
type = Stem;
},
{
horizontal = 1;
place = "{9, 61}";
type = Stem;
}
);
layerId = "59B4545D-7A36-483A-A414-D3C0872518C3";
paths = (
{
closed = 1;
nodes = (
"-280 761 OFFCURVE",
"-179 788 OFFCURVE",
"-113 809 CURVE SMOOTH",
"-31 835 OFFCURVE",
"52 858 OFFCURVE",
"135 880 CURVE SMOOTH",
"205 899 OFFCURVE",
"276 917 OFFCURVE",
"348 922 CURVE SMOOTH",
"377 924 OFFCURVE",
"374 892 OFFCURVE",
"383 891 CURVE SMOOTH",
"395 890 OFFCURVE",
"409 898 OFFCURVE",
"419 902 CURVE SMOOTH",
"432 907 OFFCURVE",
"493 932 OFFCURVE",
"493 955 CURVE SMOOTH",
"493 969 OFFCURVE",
"476 974 OFFCURVE",
"454 974 CURVE SMOOTH",
"404 974 OFFCURVE",
"320 946 OFFCURVE",
"299 942 CURVE SMOOTH",
"214 924 OFFCURVE",
"132 901 OFFCURVE",
"49 874 CURVE SMOOTH",
"-36 846 OFFCURVE",
"-122 824 OFFCURVE",
"-208 797 CURVE SMOOTH",
"-234 789 OFFCURVE",
"-352 766 OFFCURVE",
"-362 731 CURVE"
);
},
{
closed = 1;
nodes = (
"241 5 OFFCURVE",
"267 39 OFFCURVE",
"302 66 CURVE SMOOTH",
"311 73 OFFCURVE",
"315 31 OFFCURVE",
"321 22 CURVE SMOOTH",
"329 10 OFFCURVE",
"348 9 OFFCURVE",
"364 9 CURVE SMOOTH",
"407 9 OFFCURVE",
"505 95 OFFCURVE",
"479 83 CURVE SMOOTH",
"457 75 LINE SMOOTH",
"444 71 OFFCURVE",
"431 70 OFFCURVE",
"425 70 CURVE SMOOTH",
"414 70 OFFCURVE",
"403 72 OFFCURVE",
"395 77 CURVE SMOOTH",
"368 93 OFFCURVE",
"370 131 OFFCURVE",
"371 157 CURVE SMOOTH",
"376 294 LINE SMOOTH",
"377 328 OFFCURVE",
"377 359 OFFCURVE",
"383 392 CURVE SMOOTH",
"388 419 OFFCURVE",
"402 443 OFFCURVE",
"402 470 CURVE SMOOTH",
"402 477 OFFCURVE",
"394 480 OFFCURVE",
"383 480 CURVE SMOOTH",
"358 480 OFFCURVE",
"319 468 OFFCURVE",
"304 458 CURVE SMOOTH",
"267 433 LINE SMOOTH",
"261 429 OFFCURVE",
"242 419 OFFCURVE",
"243 410 CURVE SMOOTH",
"244 399 OFFCURVE",
"248 405 OFFCURVE",
"257 405 CURVE",
"262 404 OFFCURVE",
"313 393 OFFCURVE",
"313 376 CURVE SMOOTH",
"306 160 LINE SMOOTH",
"305 131 OFFCURVE",
"309 105 OFFCURVE",
"280 89 CURVE SMOOTH",
"269 83 OFFCURVE",
"255 80 OFFCURVE",
"239 80 CURVE SMOOTH",
"200 80 OFFCURVE",
"155 98 OFFCURVE",
"148 129 CURVE SMOOTH",
"145 141 OFFCURVE",
"144 153 OFFCURVE",
"144 165 CURVE SMOOTH",
"144 179 OFFCURVE",
"145 193 OFFCURVE",
"146 206 CURVE SMOOTH",
"149 313 LINE SMOOTH",
"149 341 OFFCURVE",
"152 372 OFFCURVE",
"157 396 CURVE SMOOTH",
"162 415 OFFCURVE",
"172 459 OFFCURVE",
"172 472 CURVE SMOOTH",
"172 479 OFFCURVE",
"170 481 OFFCURVE",
"167 481 CURVE SMOOTH",
"164 481 OFFCURVE",
"161 480 OFFCURVE",
"158 479 CURVE SMOOTH",
"122 464 OFFCURVE",
"89 449 OFFCURVE",
"56 427 CURVE SMOOTH",
"41 418 OFFCURVE",
"-17 403 OFFCURVE",
"-5 396 CURVE SMOOTH",
"14 386 OFFCURVE",
"43 384 OFFCURVE",
"56 377 CURVE SMOOTH",
"75 366 OFFCURVE",
"80 353 OFFCURVE",
"80 338 CURVE SMOOTH",
"80 327 OFFCURVE",
"76 314 OFFCURVE",
"75 301 CURVE SMOOTH",
"73 284 OFFCURVE",
"73 268 OFFCURVE",
"73 251 CURVE SMOOTH",
"73 219 OFFCURVE",
"75 187 OFFCURVE",
"74 156 CURVE SMOOTH",
"74 152 OFFCURVE",
"74 149 OFFCURVE",
"74 145 CURVE SMOOTH",
"72 122 LINE",
"72 36 OFFCURVE",
"95 20 OFFCURVE",
"182 6 CURVE SMOOTH",
"187 5 OFFCURVE",
"192 5 OFFCURVE",
"196 5 CURVE SMOOTH"
);
}
);
width = 463;
}
);
note = uacute;
unicode = 00FA;
},
{
glyphname = umacron;
layers = (
{
hints = (
{
horizontal = 1;
place = "{5, 75}";
type = Stem;
},
{
horizontal = 1;
place = "{702, 31}";
type = Stem;
},
{
place = "{73, 76}";
type = Stem;
},
{
place = "{313, 60}";
type = Stem;
},
{
horizontal = 1;
place = "{9, 61}";
type = Stem;
}
);
layerId = "59B4545D-7A36-483A-A414-D3C0872518C3";
paths = (
{
closed = 1;
nodes = (
"432 666 OFFCURVE",
"468 688 OFFCURVE",
"472 696 CURVE SMOOTH",
"476 705 OFFCURVE",
"480 713 OFFCURVE",
"480 721 CURVE SMOOTH",
"480 727 OFFCURVE",
"478 733 OFFCURVE",
"472 738 CURVE SMOOTH",
"466 743 OFFCURVE",
"452 745 OFFCURVE",
"432 745 CURVE SMOOTH",
"397 745 OFFCURVE",
"346 740 OFFCURVE",
"291 736 CURVE SMOOTH",
"269 734 OFFCURVE",
"249 733 OFFCURVE",
"228 733 CURVE SMOOTH",
"195 733 OFFCURVE",
"158 737 OFFCURVE",
"105 750 CURVE SMOOTH",
"101 751 OFFCURVE",
"97 752 OFFCURVE",
"94 752 CURVE SMOOTH",
"66 752 OFFCURVE",
"46 723 OFFCURVE",
"46 704 CURVE SMOOTH",
"46 693 OFFCURVE",
"51 685 OFFCURVE",
"65 685 CURVE SMOOTH",
"80 685 OFFCURVE",
"107 694 OFFCURVE",
"170 694 CURVE SMOOTH",
"219 694 OFFCURVE",
"288 702 OFFCURVE",
"340 702 CURVE SMOOTH",
"386 702 OFFCURVE",
"419 696 OFFCURVE",
"413 673 CURVE SMOOTH",
"412 668 OFFCURVE",
"414 666 OFFCURVE",
"418 666 CURVE SMOOTH"
);
},
{
closed = 1;
nodes = (
"241 5 OFFCURVE",
"267 39 OFFCURVE",
"302 66 CURVE SMOOTH",
"311 73 OFFCURVE",
"315 31 OFFCURVE",
"321 22 CURVE SMOOTH",
"329 10 OFFCURVE",
"348 9 OFFCURVE",
"364 9 CURVE SMOOTH",
"407 9 OFFCURVE",
"505 95 OFFCURVE",
"479 83 CURVE SMOOTH",
"457 75 LINE SMOOTH",
"444 71 OFFCURVE",
"431 70 OFFCURVE",
"425 70 CURVE SMOOTH",
"414 70 OFFCURVE",
"403 72 OFFCURVE",
"395 77 CURVE SMOOTH",
"368 93 OFFCURVE",
"370 131 OFFCURVE",
"371 157 CURVE SMOOTH",
"376 294 LINE SMOOTH",
"377 328 OFFCURVE",
"377 359 OFFCURVE",
"383 392 CURVE SMOOTH",
"388 419 OFFCURVE",
"402 443 OFFCURVE",
"402 470 CURVE SMOOTH",
"402 477 OFFCURVE",
"394 480 OFFCURVE",
"383 480 CURVE SMOOTH",
"358 480 OFFCURVE",
"319 468 OFFCURVE",
"304 458 CURVE SMOOTH",
"267 433 LINE SMOOTH",
"261 429 OFFCURVE",
"242 419 OFFCURVE",
"243 410 CURVE SMOOTH",
"244 399 OFFCURVE",
"248 405 OFFCURVE",
"257 405 CURVE",
"262 404 OFFCURVE",
"313 393 OFFCURVE",
"313 376 CURVE SMOOTH",
"306 160 LINE SMOOTH",
"305 131 OFFCURVE",
"309 105 OFFCURVE",
"280 89 CURVE SMOOTH",
"269 83 OFFCURVE",
"255 80 OFFCURVE",
"239 80 CURVE SMOOTH",
"200 80 OFFCURVE",
"155 98 OFFCURVE",
"148 129 CURVE SMOOTH",
"145 141 OFFCURVE",
"144 153 OFFCURVE",
"144 165 CURVE SMOOTH",
"144 179 OFFCURVE",
"145 193 OFFCURVE",
"146 206 CURVE SMOOTH",
"149 313 LINE SMOOTH",
"149 341 OFFCURVE",
"152 372 OFFCURVE",
"157 396 CURVE SMOOTH",
"162 415 OFFCURVE",
"172 459 OFFCURVE",
"172 472 CURVE SMOOTH",
"172 479 OFFCURVE",
"170 481 OFFCURVE",
"167 481 CURVE SMOOTH",
"164 481 OFFCURVE",
"161 480 OFFCURVE",
"158 479 CURVE SMOOTH",
"122 464 OFFCURVE",
"89 449 OFFCURVE",
"56 427 CURVE SMOOTH",
"41 418 OFFCURVE",
"-17 403 OFFCURVE",
"-5 396 CURVE SMOOTH",
"14 386 OFFCURVE",
"43 384 OFFCURVE",
"56 377 CURVE SMOOTH",
"75 366 OFFCURVE",
"80 353 OFFCURVE",
"80 338 CURVE SMOOTH",
"80 327 OFFCURVE",
"76 314 OFFCURVE",
"75 301 CURVE SMOOTH",
"73 284 OFFCURVE",
"73 268 OFFCURVE",
"73 251 CURVE SMOOTH",
"73 219 OFFCURVE",
"75 187 OFFCURVE",
"74 156 CURVE SMOOTH",
"74 152 OFFCURVE",
"74 149 OFFCURVE",
"74 145 CURVE SMOOTH",
"72 122 LINE",
"72 36 OFFCURVE",
"95 20 OFFCURVE",
"182 6 CURVE SMOOTH",
"187 5 OFFCURVE",
"192 5 OFFCURVE",
"196 5 CURVE SMOOTH"
);
}
);
width = 453;
}
);
note = umacron;
unicode = 016B;
},
{
glyphname = uni01BF;
layers = (
{
hints = (
{
horizontal = 1;
place = "{431, 58}";
type = Stem;
},
{
place = "{107, 76}";
type = Stem;
},
{
place = "{295, 91}";
type = Stem;
}
);
layerId = "59B4545D-7A36-483A-A414-D3C0872518C3";
paths = (
{
closed = 1;
nodes = (
"83 -548 OFFCURVE",
"113 -528 OFFCURVE",
"125 -496 CURVE SMOOTH",
"137 -465 OFFCURVE",
"139 -429 OFFCURVE",
"143 -393 CURVE SMOOTH",
"151 -325 OFFCURVE",
"170 -257 OFFCURVE",
"178 -190 CURVE SMOOTH",
"185 -129 OFFCURVE",
"187 -70 OFFCURVE",
"191 -8 CURVE SMOOTH",
"193 28 OFFCURVE",
"225 36 OFFCURVE",
"250 68 CURVE SMOOTH",
"330 170 OFFCURVE",
"386 263 OFFCURVE",
"386 395 CURVE SMOOTH",
"386 428 OFFCURVE",
"381 462 OFFCURVE",
"360 466 CURVE SMOOTH",
"335 472 OFFCURVE",
"323 489 OFFCURVE",
"291 489 CURVE SMOOTH",
"273 489 OFFCURVE",
"254 485 OFFCURVE",
"239 484 CURVE SMOOTH",
"188 479 OFFCURVE",
"140 474 OFFCURVE",
"91 465 CURVE SMOOTH",
"71 461 OFFCURVE",
"44 466 OFFCURVE",
"25 457 CURVE",
"24 456 OFFCURVE",
"-9 435 OFFCURVE",
"-4 434 CURVE SMOOTH",
"54 428 OFFCURVE",
"98 431 OFFCURVE",
"101 364 CURVE SMOOTH",
"105 280 OFFCURVE",
"107 195 OFFCURVE",
"107 110 CURVE SMOOTH",
"107 9 OFFCURVE",
"105 -93 OFFCURVE",
"100 -192 CURVE SMOOTH",
"99 -213 OFFCURVE",
"99 -233 OFFCURVE",
"99 -254 CURVE SMOOTH",
"99 -310 OFFCURVE",
"97 -359 OFFCURVE",
"97 -383 CURVE SMOOTH",
"97 -417 OFFCURVE",
"98 -442 OFFCURVE",
"94 -472 CURVE SMOOTH",
"92 -484 OFFCURVE",
"87 -516 OFFCURVE",
"75 -533 CURVE",
"70 -538 OFFCURVE",
"68 -542 OFFCURVE",
"68 -545 CURVE SMOOTH",
"68 -547 OFFCURVE",
"70 -548 OFFCURVE",
"72 -548 CURVE SMOOTH"
);
},
{
closed = 1;
nodes = (
"182 64 OFFCURVE",
"179 78 OFFCURVE",
"179 98 CURVE SMOOTH",
"179 142 OFFCURVE",
"186 210 OFFCURVE",
"186 218 CURVE SMOOTH",
"186 255 OFFCURVE",
"183 308 OFFCURVE",
"183 349 CURVE SMOOTH",
"183 363 OFFCURVE",
"182 374 OFFCURVE",
"182 385 CURVE SMOOTH",
"182 398 OFFCURVE",
"184 410 OFFCURVE",
"192 426 CURVE",
"196 431 OFFCURVE",
"203 431 OFFCURVE",
"209 431 CURVE SMOOTH",
"213 431 LINE SMOOTH",
"236 431 OFFCURVE",
"243 432 OFFCURVE",
"260 411 CURVE SMOOTH",
"282 385 OFFCURVE",
"295 347 OFFCURVE",
"295 313 CURVE",
"294 307 LINE SMOOTH",
"294 306 OFFCURVE",
"294 305 OFFCURVE",
"294 304 CURVE SMOOTH",
"290 265 OFFCURVE",
"281 227 OFFCURVE",
"270 191 CURVE SMOOTH",
"260 158 OFFCURVE",
"237 60 OFFCURVE",
"186 63 CURVE"
);
}
);
width = 425;
}
);
note = uni01BF;
unicode = 01BF;
},
{
glyphname = v;
layers = (
{
hints = (
{
horizontal = 1;
place = "{7, 50}";
type = Stem;
},
{
place = "{74, 75}";
type = Stem;
},
{
place = "{309, 64}";
type = Stem;
},
{
horizontal = 1;
place = "{10, 54}";
type = Stem;
}
);
layerId = "59B4545D-7A36-483A-A414-D3C0872518C3";
paths = (
{
closed = 1;
nodes = (
"239 7 OFFCURVE",
"263 36 OFFCURVE",
"302 66 CURVE SMOOTH",
"311 73 OFFCURVE",
"315 31 OFFCURVE",
"321 22 CURVE SMOOTH",
"327 14 OFFCURVE",
"336 10 OFFCURVE",
"347 10 CURVE SMOOTH",
"405 10 OFFCURVE",
"516 103 OFFCURVE",
"479 83 CURVE SMOOTH",
"454 69 OFFCURVE",
"439 64 OFFCURVE",
"428 64 CURVE SMOOTH",
"416 64 OFFCURVE",
"408 70 OFFCURVE",
"395 77 CURVE SMOOTH",
"368 93 OFFCURVE",
"370 131 OFFCURVE",
"371 157 CURVE SMOOTH",
"376 294 LINE SMOOTH",
"377 328 OFFCURVE",
"377 359 OFFCURVE",
"383 392 CURVE SMOOTH",
"385 403 OFFCURVE",
"386 414 OFFCURVE",
"386 424 CURVE SMOOTH",
"386 455 OFFCURVE",
"375 476 OFFCURVE",
"351 476 CURVE SMOOTH",
"339 476 OFFCURVE",
"323 471 OFFCURVE",
"304 458 CURVE SMOOTH",
"260 428 OFFCURVE",
"242 419 OFFCURVE",
"243 410 CURVE SMOOTH",
"244 400 OFFCURVE",
"314 407 OFFCURVE",
"313 376 CURVE SMOOTH",
"306 160 LINE SMOOTH",
"305 131 OFFCURVE",
"307 103 OFFCURVE",
"280 77 CURVE SMOOTH",
"266 64 OFFCURVE",
"244 57 OFFCURVE",
"223 57 CURVE SMOOTH",
"154 57 OFFCURVE",
"144 109 OFFCURVE",
"144 167 CURVE SMOOTH",
"144 179 OFFCURVE",
"145 192 OFFCURVE",
"146 206 CURVE SMOOTH",
"149 313 LINE SMOOTH",
"149 341 OFFCURVE",
"152 372 OFFCURVE",
"157 396 CURVE SMOOTH",
"162 415 OFFCURVE",
"172 459 OFFCURVE",
"172 472 CURVE SMOOTH",
"172 477 OFFCURVE",
"168 480 OFFCURVE",
"161 480 CURVE SMOOTH",
"148 480 OFFCURVE",
"128 473 OFFCURVE",
"108 463 CURVE SMOOTH",
"91 454 OFFCURVE",
"-24 407 OFFCURVE",
"-5 396 CURVE SMOOTH",
"14 386 OFFCURVE",
"34 393 OFFCURVE",
"47 386 CURVE SMOOTH",
"77 369 OFFCURVE",
"69 358 OFFCURVE",
"73 251 CURVE SMOOTH",
"74 229 OFFCURVE",
"74 211 OFFCURVE",
"74 195 CURVE SMOOTH",
"74 138 OFFCURVE",
"70 111 OFFCURVE",
"70 93 CURVE SMOOTH",
"70 38 OFFCURVE",
"129 7 OFFCURVE",
"179 7 CURVE SMOOTH"
);
}
);
width = 453;
}
);
note = v;
unicode = 0076;
},
{
glyphname = w;
layers = (
{
hints = (
{
horizontal = 1;
place = "{431, 58}";
type = Stem;
},
{
place = "{107, 76}";
type = Stem;
},
{
place = "{295, 91}";
type = Stem;
}
);
layerId = "59B4545D-7A36-483A-A414-D3C0872518C3";
paths = (
{
closed = 1;
nodes = (
"83 -548 OFFCURVE",
"113 -528 OFFCURVE",
"125 -496 CURVE SMOOTH",
"137 -465 OFFCURVE",
"139 -429 OFFCURVE",
"143 -393 CURVE SMOOTH",
"151 -325 OFFCURVE",
"170 -257 OFFCURVE",
"178 -190 CURVE SMOOTH",
"185 -129 OFFCURVE",
"187 -70 OFFCURVE",
"191 -8 CURVE SMOOTH",
"193 28 OFFCURVE",
"225 36 OFFCURVE",
"250 68 CURVE SMOOTH",
"330 170 OFFCURVE",
"386 263 OFFCURVE",
"386 395 CURVE SMOOTH",
"386 428 OFFCURVE",
"381 462 OFFCURVE",
"360 466 CURVE SMOOTH",
"335 472 OFFCURVE",
"323 489 OFFCURVE",
"291 489 CURVE SMOOTH",
"273 489 OFFCURVE",
"254 485 OFFCURVE",
"239 484 CURVE SMOOTH",
"188 479 OFFCURVE",
"140 474 OFFCURVE",
"91 465 CURVE SMOOTH",
"71 461 OFFCURVE",
"44 466 OFFCURVE",
"25 457 CURVE",
"24 456 OFFCURVE",
"-9 435 OFFCURVE",
"-4 434 CURVE SMOOTH",
"54 428 OFFCURVE",
"98 431 OFFCURVE",
"101 364 CURVE SMOOTH",
"105 280 OFFCURVE",
"107 195 OFFCURVE",
"107 110 CURVE SMOOTH",
"107 9 OFFCURVE",
"105 -93 OFFCURVE",
"100 -192 CURVE SMOOTH",
"99 -213 OFFCURVE",
"99 -233 OFFCURVE",
"99 -254 CURVE SMOOTH",
"99 -310 OFFCURVE",
"97 -359 OFFCURVE",
"97 -383 CURVE SMOOTH",
"97 -417 OFFCURVE",
"98 -442 OFFCURVE",
"94 -472 CURVE SMOOTH",
"92 -484 OFFCURVE",
"87 -516 OFFCURVE",
"75 -533 CURVE",
"70 -538 OFFCURVE",
"68 -542 OFFCURVE",
"68 -545 CURVE SMOOTH",
"68 -547 OFFCURVE",
"70 -548 OFFCURVE",
"72 -548 CURVE SMOOTH"
);
},
{
closed = 1;
nodes = (
"182 64 OFFCURVE",
"179 78 OFFCURVE",
"179 98 CURVE SMOOTH",
"179 142 OFFCURVE",
"186 210 OFFCURVE",
"186 218 CURVE SMOOTH",
"186 255 OFFCURVE",
"183 308 OFFCURVE",
"183 349 CURVE SMOOTH",
"183 363 OFFCURVE",
"182 374 OFFCURVE",
"182 385 CURVE SMOOTH",
"182 398 OFFCURVE",
"184 410 OFFCURVE",
"192 426 CURVE",
"196 431 OFFCURVE",
"203 431 OFFCURVE",
"209 431 CURVE SMOOTH",
"213 431 LINE SMOOTH",
"236 431 OFFCURVE",
"243 432 OFFCURVE",
"260 411 CURVE SMOOTH",
"282 385 OFFCURVE",
"295 347 OFFCURVE",
"295 313 CURVE",
"294 307 LINE SMOOTH",
"294 306 OFFCURVE",
"294 305 OFFCURVE",
"294 304 CURVE SMOOTH",
"290 265 OFFCURVE",
"281 227 OFFCURVE",
"270 191 CURVE SMOOTH",
"260 158 OFFCURVE",
"237 60 OFFCURVE",
"186 63 CURVE"
);
}
);
width = 425;
}
);
note = w;
unicode = 0077;
},
{
glyphname = x;
layers = (
{
hints = (
{
horizontal = 1;
place = "{-175, 58}";
type = Stem;
},
{
horizontal = 1;
place = "{20, 64}";
type = Stem;
},
{
horizontal = 1;
place = "{444, 47}";
type = Stem;
},
{
horizontal = 1;
place = "{500, -20}";
target = down;
type = TopGhost;
},
{
place = "{-220, 840}";
type = Stem;
}
);
layerId = "59B4545D-7A36-483A-A414-D3C0872518C3";
paths = (
{
closed = 1;
nodes = (
"-185 -175 OFFCURVE",
"-170 -165 OFFCURVE",
"-155 -157 CURVE SMOOTH",
"-77 -116 OFFCURVE",
"-1 -54 OFFCURVE",
"58 10 CURVE SMOOTH",
"102 58 OFFCURVE",
"159 139 OFFCURVE",
"185 170 CURVE SMOOTH",
"191 177 OFFCURVE",
"213 215 OFFCURVE",
"218 215 CURVE",
"225 227 OFFCURVE",
"249 178 OFFCURVE",
"261 154 CURVE SMOOTH",
"296 84 OFFCURVE",
"357 20 OFFCURVE",
"440 20 CURVE SMOOTH",
"512 20 OFFCURVE",
"556 66 OFFCURVE",
"610 114 CURVE SMOOTH",
"614 117 OFFCURVE",
"620 127 OFFCURVE",
"620 131 CURVE SMOOTH",
"620 132 OFFCURVE",
"619 133 OFFCURVE",
"618 133 CURVE SMOOTH",
"616 133 OFFCURVE",
"612 131 OFFCURVE",
"604 125 CURVE SMOOTH",
"595 118 OFFCURVE",
"558 84 OFFCURVE",
"510 84 CURVE SMOOTH",
"454 84 OFFCURVE",
"395 127 OFFCURVE",
"365 172 CURVE SMOOTH",
"335 217 OFFCURVE",
"285 286 OFFCURVE",
"290 304 CURVE SMOOTH",
"294 317 OFFCURVE",
"311 326 OFFCURVE",
"328 342 CURVE SMOOTH",
"365 376 OFFCURVE",
"399 414 OFFCURVE",
"446 437 CURVE SMOOTH",
"456 442 OFFCURVE",
"464 444 OFFCURVE",
"471 444 CURVE SMOOTH",
"527 444 OFFCURVE",
"502 371 OFFCURVE",
"514 367 CURVE",
"540 363 OFFCURVE",
"593 399 OFFCURVE",
"593 437 CURVE SMOOTH",
"593 480 OFFCURVE",
"540 491 OFFCURVE",
"506 491 CURVE SMOOTH",
"441 491 OFFCURVE",
"384 408 OFFCURVE",
"338 371 CURVE SMOOTH",
"333 367 OFFCURVE",
"294 334 OFFCURVE",
"277 321 CURVE",
"269 317 OFFCURVE",
"249 372 OFFCURVE",
"241 387 CURVE SMOOTH",
"224 420 OFFCURVE",
"197 473 OFFCURVE",
"165 491 CURVE SMOOTH",
"153 497 OFFCURVE",
"141 500 OFFCURVE",
"127 500 CURVE SMOOTH",
"81 500 OFFCURVE",
"19 463 OFFCURVE",
"-9 426 CURVE SMOOTH",
"-20 412 OFFCURVE",
"26 453 OFFCURVE",
"45 456 CURVE SMOOTH",
"82 462 OFFCURVE",
"105 423 OFFCURVE",
"125 399 CURVE SMOOTH",
"140 381 OFFCURVE",
"208 274 OFFCURVE",
"208 249 CURVE SMOOTH",
"208 232 OFFCURVE",
"188 214 OFFCURVE",
"179 203 CURVE SMOOTH",
"152 170 OFFCURVE",
"129 134 OFFCURVE",
"102 100 CURVE SMOOTH",
"72 62 OFFCURVE",
"46 25 OFFCURVE",
"10 -10 CURVE SMOOTH",
"-12 -31 OFFCURVE",
"-32 -48 OFFCURVE",
"-54 -70 CURVE SMOOTH",
"-76 -92 OFFCURVE",
"-127 -131 OFFCURVE",
"-175 -141 CURVE SMOOTH",
"-188 -144 OFFCURVE",
"-193 -117 OFFCURVE",
"-206 -117 CURVE SMOOTH",
"-215 -117 OFFCURVE",
"-220 -131 OFFCURVE",
"-220 -145 CURVE SMOOTH",
"-220 -159 OFFCURVE",
"-215 -175 OFFCURVE",
"-198 -175 CURVE SMOOTH"
);
}
);
width = 617;
}
);
note = x;
unicode = 0078;
},
{
glyphname = y;
layers = (
{
hints = (
{
horizontal = 1;
place = "{-167, 642}";
type = Stem;
},
{
place = "{144, 75}";
type = Stem;
},
{
horizontal = 1;
place = "{-167, 80}";
type = Stem;
},
{
horizontal = 1;
place = "{326, 146}";
type = Stem;
}
);
layerId = "59B4545D-7A36-483A-A414-D3C0872518C3";
paths = (
{
closed = 1;
nodes = (
"-10 -167 OFFCURVE",
"6 -160 OFFCURVE",
"20 -157 CURVE SMOOTH",
"70 -146 OFFCURVE",
"92 -119 OFFCURVE",
"130 -88 CURVE SMOOTH",
"178 -49 OFFCURVE",
"196 23 OFFCURVE",
"207 79 CURVE SMOOTH",
"213 110 OFFCURVE",
"213 141 OFFCURVE",
"217 170 CURVE SMOOTH",
"219 183 OFFCURVE",
"219 197 OFFCURVE",
"219 210 CURVE SMOOTH",
"219 272 OFFCURVE",
"234 300 OFFCURVE",
"264 356 CURVE SMOOTH",
"277 380 OFFCURVE",
"304 411 OFFCURVE",
"332 411 CURVE SMOOTH",
"343 411 OFFCURVE",
"353 407 OFFCURVE",
"363 396 CURVE SMOOTH",
"378 380 OFFCURVE",
"389 326 OFFCURVE",
"416 326 CURVE SMOOTH",
"437 326 OFFCURVE",
"489 385 OFFCURVE",
"489 402 CURVE SMOOTH",
"489 425 OFFCURVE",
"441 467 OFFCURVE",
"421 471 CURVE SMOOTH",
"417 472 OFFCURVE",
"413 472 OFFCURVE",
"408 472 CURVE SMOOTH",
"402 472 OFFCURVE",
"396 472 OFFCURVE",
"392 471 CURVE SMOOTH",
"306 459 OFFCURVE",
"245 394 OFFCURVE",
"204 320 CURVE",
"206 362 OFFCURVE",
"188 431 OFFCURVE",
"158 461 CURVE SMOOTH",
"148 471 OFFCURVE",
"136 475 OFFCURVE",
"124 475 CURVE SMOOTH",
"99 475 OFFCURVE",
"72 460 OFFCURVE",
"53 448 CURVE SMOOTH",
"28 432 OFFCURVE",
"2 424 OFFCURVE",
"-20 409 CURVE SMOOTH",
"-27 405 OFFCURVE",
"-28 403 OFFCURVE",
"-28 402 CURVE SMOOTH",
"-28 401 LINE SMOOTH",
"-27 398 OFFCURVE",
"-15 402 OFFCURVE",
"-11 403 CURVE SMOOTH",
"-1 405 OFFCURVE",
"10 407 OFFCURVE",
"21 407 CURVE SMOOTH",
"54 407 OFFCURVE",
"87 392 OFFCURVE",
"109 367 CURVE",
"118 354 OFFCURVE",
"124 338 OFFCURVE",
"127 323 CURVE SMOOTH",
"143 242 OFFCURVE",
"144 157 OFFCURVE",
"144 75 CURVE SMOOTH",
"144 61 OFFCURVE",
"145 45 OFFCURVE",
"145 29 CURVE SMOOTH",
"145 -50 OFFCURVE",
"126 -88 OFFCURVE",
"41 -88 CURVE SMOOTH",
"27 -87 LINE SMOOTH",
"-2 -87 OFFCURVE",
"-64 -97 OFFCURVE",
"-64 -136 CURVE SMOOTH",
"-64 -160 OFFCURVE",
"-46 -167 OFFCURVE",
"-28 -167 CURVE SMOOTH"
);
}
);
width = 489;
}
);
note = y;
unicode = 0079;
},
{
glyphname = z;
layers = (
{
hints = (
{
horizontal = 1;
place = "{2, 71}";
type = Stem;
},
{
horizontal = 1;
place = "{390, 77}";
type = Stem;
},
{
place = "{-5, 512}";
type = Stem;
},
{
horizontal = 1;
place = "{5, 108}";
type = Stem;
}
);
layerId = "59B4545D-7A36-483A-A414-D3C0872518C3";
paths = (
{
closed = 1;
nodes = (
"367 2 OFFCURVE",
"404 9 OFFCURVE",
"435 31 CURVE SMOOTH",
"457 49 OFFCURVE",
"476 69 OFFCURVE",
"496 103 CURVE",
"496 115 OFFCURVE",
"476 88 OFFCURVE",
"452 82 CURVE SMOOTH",
"429 76 OFFCURVE",
"405 73 OFFCURVE",
"378 73 CURVE SMOOTH",
"344 73 OFFCURVE",
"309 79 OFFCURVE",
"281 85 CURVE SMOOTH",
"228 98 OFFCURVE",
"198 113 OFFCURVE",
"139 113 CURVE SMOOTH",
"122 113 LINE",
"112 109 OFFCURVE",
"133 130 OFFCURVE",
"139 139 CURVE SMOOTH",
"158 163 OFFCURVE",
"179 186 OFFCURVE",
"199 209 CURVE SMOOTH",
"240 258 OFFCURVE",
"277 309 OFFCURVE",
"316 357 CURVE SMOOTH",
"329 374 OFFCURVE",
"338 391 OFFCURVE",
"360 395 CURVE",
"393 406 OFFCURVE",
"423 394 OFFCURVE",
"454 415 CURVE SMOOTH",
"470 426 OFFCURVE",
"517 477 OFFCURVE",
"505 477 CURVE SMOOTH",
"503 477 OFFCURVE",
"500 476 OFFCURVE",
"496 474 CURVE",
"458 467 OFFCURVE",
"420 465 OFFCURVE",
"380 465 CURVE SMOOTH",
"337 465 OFFCURVE",
"290 467 OFFCURVE",
"236 467 CURVE SMOOTH",
"169 468 OFFCURVE",
"159 467 OFFCURVE",
"135 470 CURVE SMOOTH",
"122 472 OFFCURVE",
"111 474 OFFCURVE",
"101 474 CURVE SMOOTH",
"87 474 OFFCURVE",
"75 470 OFFCURVE",
"60 456 CURVE SMOOTH",
"40 438 OFFCURVE",
"-2 397 OFFCURVE",
"5 394 CURVE",
"12 393 OFFCURVE",
"20 393 OFFCURVE",
"28 393 CURVE SMOOTH",
"37 393 OFFCURVE",
"57 394 OFFCURVE",
"65 395 CURVE SMOOTH",
"77 396 OFFCURVE",
"87 396 OFFCURVE",
"97 396 CURVE SMOOTH",
"124 396 OFFCURVE",
"144 394 OFFCURVE",
"160 393 CURVE SMOOTH",
"185 392 OFFCURVE",
"212 390 OFFCURVE",
"239 390 CURVE SMOOTH",
"254 390 OFFCURVE",
"269 391 OFFCURVE",
"283 392 CURVE SMOOTH",
"292 393 OFFCURVE",
"301 396 OFFCURVE",
"310 396 CURVE SMOOTH",
"316 396 OFFCURVE",
"319 395 OFFCURVE",
"319 392 CURVE SMOOTH",
"319 387 OFFCURVE",
"310 379 OFFCURVE",
"300 367 CURVE SMOOTH",
"221 275 OFFCURVE",
"152 178 OFFCURVE",
"69 93 CURVE",
"22 40 LINE SMOOTH",
"14 31 OFFCURVE",
"1 24 OFFCURVE",
"-5 8 CURVE",
"-8 -7 OFFCURVE",
"65 40 OFFCURVE",
"112 37 CURVE SMOOTH",
"184 31 OFFCURVE",
"254 2 OFFCURVE",
"327 2 CURVE SMOOTH"
);
}
);
width = 498;
}
);
note = z;
unicode = 007A;
},
{
glyphname = a.fina;
layers = (
{
hints = (
{
horizontal = 1;
place = "{9, 73}";
type = Stem;
},
{
horizontal = 1;
place = "{406, 78}";
type = Stem;
},
{
place = "{26, 73}";
type = Stem;
},
{
place = "{313, 81}";
type = Stem;
},
{
place = "{332, 80}";
type = Stem;
}
);
layerId = "59B4545D-7A36-483A-A414-D3C0872518C3";
paths = (
{
closed = 1;
nodes = (
"376 2 OFFCURVE",
"455 43 OFFCURVE",
"475 60 CURVE SMOOTH",
"492 74 OFFCURVE",
"522 86 OFFCURVE",
"540 101 CURVE SMOOTH",
"574 129 OFFCURVE",
"656 197 OFFCURVE",
"653 197 CURVE SMOOTH",
"651 197 OFFCURVE",
"630 181 OFFCURVE",
"574 137 CURVE",
"506 100 OFFCURVE",
"480 97 OFFCURVE",
"443 86 CURVE SMOOTH",
"432 83 OFFCURVE",
"422 79 OFFCURVE",
"414 79 CURVE SMOOTH",
"402 79 OFFCURVE",
"394 88 OFFCURVE",
"394 121 CURVE SMOOTH",
"394 154 OFFCURVE",
"412 252 OFFCURVE",
"412 341 CURVE SMOOTH",
"412 388 OFFCURVE",
"407 429 OFFCURVE",
"393 446 CURVE SMOOTH",
"373 471 OFFCURVE",
"348 484 OFFCURVE",
"320 484 CURVE SMOOTH",
"311 484 OFFCURVE",
"302 483 OFFCURVE",
"292 480 CURVE SMOOTH",
"242 467 OFFCURVE",
"202 469 OFFCURVE",
"159 459 CURVE SMOOTH",
"117 449 OFFCURVE",
"93 447 OFFCURVE",
"60 423 CURVE SMOOTH",
"34 404 OFFCURVE",
"26 368 OFFCURVE",
"26 327 CURVE SMOOTH",
"26 273 OFFCURVE",
"40 212 OFFCURVE",
"47 177 CURVE SMOOTH",
"55 131 OFFCURVE",
"54 77 OFFCURVE",
"84 39 CURVE SMOOTH",
"100 18 OFFCURVE",
"118 9 OFFCURVE",
"137 9 CURVE SMOOTH",
"176 9 OFFCURVE",
"219 45 OFFCURVE",
"251 69 CURVE SMOOTH",
"257 74 OFFCURVE",
"312 106 OFFCURVE",
"312 107 CURVE SMOOTH",
"312 94 OFFCURVE",
"313 76 OFFCURVE",
"313 58 CURVE SMOOTH",
"313 29 OFFCURVE",
"326 2 OFFCURVE",
"351 2 CURVE SMOOTH"
);
},
{
closed = 1;
nodes = (
"146 82 OFFCURVE",
"125 165 OFFCURVE",
"113 223 CURVE SMOOTH",
"107 251 OFFCURVE",
"96 291 OFFCURVE",
"99 318 CURVE SMOOTH",
"107 399 OFFCURVE",
"162 382 OFFCURVE",
"212 396 CURVE SMOOTH",
"231 401 OFFCURVE",
"251 406 OFFCURVE",
"270 406 CURVE SMOOTH",
"320 406 OFFCURVE",
"332 378 OFFCURVE",
"332 333 CURVE SMOOTH",
"332 325 OFFCURVE",
"332 315 OFFCURVE",
"331 305 CURVE SMOOTH",
"324 252 OFFCURVE",
"323 200 OFFCURVE",
"320 146 CURVE SMOOTH",
"318 122 OFFCURVE",
"243 82 OFFCURVE",
"201 82 CURVE SMOOTH"
);
}
);
width = 474;
}
);
note = a.fina;
},
{
glyphname = e.fina;
layers = (
{
hints = (
{
horizontal = 1;
place = "{9, 49}";
type = Stem;
},
{
horizontal = 1;
place = "{251, 44}";
type = Stem;
},
{
horizontal = 1;
place = "{422, 67}";
type = Stem;
},
{
place = "{25, 112}";
type = Stem;
},
{
place = "{357, 58}";
type = Stem;
},
{
horizontal = 1;
place = "{233, 67}";
type = Stem;
}
);
layerId = "59B4545D-7A36-483A-A414-D3C0872518C3";
paths = (
{
closed = 1;
nodes = (
"267 9 OFFCURVE",
"328 53 OFFCURVE",
"382 126 CURVE",
"384 132 OFFCURVE",
"383 134 OFFCURVE",
"379 134 CURVE SMOOTH",
"359 134 OFFCURVE",
"260 58 OFFCURVE",
"215 58 CURVE SMOOTH",
"205 58 OFFCURVE",
"195 60 OFFCURVE",
"187 65 CURVE SMOOTH",
"156 82 OFFCURVE",
"137 131 OFFCURVE",
"137 171 CURVE SMOOTH",
"137 187 OFFCURVE",
"140 201 OFFCURVE",
"147 211 CURVE SMOOTH",
"172 247 OFFCURVE",
"244 240 OFFCURVE",
"283 247 CURVE SMOOTH",
"298 250 OFFCURVE",
"313 251 OFFCURVE",
"328 251 CURVE SMOOTH",
"345 251 OFFCURVE",
"361 249 OFFCURVE",
"373 245 CURVE SMOOTH",
"391 237 OFFCURVE",
"407 233 OFFCURVE",
"430 233 CURVE SMOOTH",
"470 233 OFFCURVE",
"505 262 OFFCURVE",
"525 270 CURVE SMOOTH",
"543 278 OFFCURVE",
"581 271 OFFCURVE",
"581 282 CURVE SMOOTH",
"581 296 OFFCURVE",
"503 300 OFFCURVE",
"457 300 CURVE SMOOTH",
"445 300 OFFCURVE",
"418 300 OFFCURVE",
"382 297 CURVE",
"378 296 OFFCURVE",
"374 295 OFFCURVE",
"372 295 CURVE SMOOTH",
"367 295 OFFCURVE",
"365 297 OFFCURVE",
"365 301 CURVE SMOOTH",
"365 322 OFFCURVE",
"415 384 OFFCURVE",
"415 418 CURVE SMOOTH",
"415 468 OFFCURVE",
"322 489 OFFCURVE",
"284 489 CURVE SMOOTH",
"212 489 OFFCURVE",
"82 473 OFFCURVE",
"37 411 CURVE SMOOTH",
"23 392 OFFCURVE",
"19 368 OFFCURVE",
"19 343 CURVE SMOOTH",
"19 315 OFFCURVE",
"24 286 OFFCURVE",
"25 262 CURVE SMOOTH",
"28 191 OFFCURVE",
"27 123 OFFCURVE",
"70 67 CURVE SMOOTH",
"102 26 OFFCURVE",
"144 9 OFFCURVE",
"186 9 CURVE SMOOTH"
);
},
{
closed = 1;
nodes = (
"128 264 OFFCURVE",
"124 278 OFFCURVE",
"124 297 CURVE SMOOTH",
"124 314 OFFCURVE",
"126 377 OFFCURVE",
"133 389 CURVE SMOOTH",
"149 415 OFFCURVE",
"177 422 OFFCURVE",
"205 422 CURVE SMOOTH",
"238 422 OFFCURVE",
"295 411 OFFCURVE",
"323 398 CURVE SMOOTH",
"338 391 OFFCURVE",
"357 399 OFFCURVE",
"357 374 CURVE SMOOTH",
"357 351 OFFCURVE",
"340 310 OFFCURVE",
"329 300 CURVE SMOOTH",
"307 281 OFFCURVE",
"262 285 OFFCURVE",
"234 282 CURVE SMOOTH",
"204 279 OFFCURVE",
"175 264 OFFCURVE",
"144 264 CURVE SMOOTH"
);
}
);
width = 463;
}
);
note = e.fina;
},
{
glyphname = f.fina;
layers = (
{
hints = (
{
horizontal = 1;
place = "{16, 82}";
type = Stem;
},
{
horizontal = 1;
place = "{421, 53}";
type = Stem;
},
{
place = "{88, 68}";
type = Stem;
},
{
place = "{162, 30}";
type = Stem;
}
);
layerId = "59B4545D-7A36-483A-A414-D3C0872518C3";
paths = (
{
closed = 1;
nodes = (
"119 -579 OFFCURVE",
"127 -516 OFFCURVE",
"131 -489 CURVE",
"141 -454 OFFCURVE",
"155 -380 OFFCURVE",
"156 -347 CURVE SMOOTH",
"159 -249 OFFCURVE",
"165 -194 OFFCURVE",
"176 -92 CURVE SMOOTH",
"181 -44 OFFCURVE",
"204 23 OFFCURVE",
"239 23 CURVE SMOOTH",
"276 23 OFFCURVE",
"325 16 OFFCURVE",
"375 16 CURVE SMOOTH",
"416 16 OFFCURVE",
"443 21 OFFCURVE",
"482 37 CURVE",
"532 52 OFFCURVE",
"560 72 OFFCURVE",
"568 106 CURVE SMOOTH",
"571 117 OFFCURVE",
"568 120 OFFCURVE",
"561 120 CURVE SMOOTH",
"553 120 OFFCURVE",
"540 114 OFFCURVE",
"530 113 CURVE",
"487 101 OFFCURVE",
"434 98 OFFCURVE",
"385 98 CURVE SMOOTH",
"349 98 OFFCURVE",
"316 100 OFFCURVE",
"290 101 CURVE SMOOTH",
"201 106 OFFCURVE",
"201 93 OFFCURVE",
"196 219 CURVE SMOOTH",
"195 243 OFFCURVE",
"192 271 OFFCURVE",
"192 299 CURVE SMOOTH",
"192 379 OFFCURVE",
"223 421 OFFCURVE",
"303 421 CURVE SMOOTH",
"367 421 OFFCURVE",
"359 373 OFFCURVE",
"430 367 CURVE SMOOTH",
"454 365 OFFCURVE",
"468 393 OFFCURVE",
"468 425 CURVE SMOOTH",
"468 467 OFFCURVE",
"437 474 OFFCURVE",
"401 474 CURVE SMOOTH",
"386 474 OFFCURVE",
"371 473 OFFCURVE",
"357 473 CURVE SMOOTH",
"347 473 OFFCURVE",
"338 474 OFFCURVE",
"330 476 CURVE SMOOTH",
"312 482 OFFCURVE",
"292 489 OFFCURVE",
"272 489 CURVE SMOOTH",
"261 489 OFFCURVE",
"250 487 OFFCURVE",
"239 481 CURVE SMOOTH",
"214 467 OFFCURVE",
"162 336 OFFCURVE",
"162 283 CURVE SMOOTH",
"162 277 OFFCURVE",
"163 272 OFFCURVE",
"164 268 CURVE",
"151 294 OFFCURVE",
"147 359 OFFCURVE",
"147 405 CURVE SMOOTH",
"147 421 OFFCURVE",
"148 434 OFFCURVE",
"148 443 CURVE SMOOTH",
"150 475 OFFCURVE",
"153 488 OFFCURVE",
"112 488 CURVE SMOOTH",
"54 488 OFFCURVE",
"-67 434 OFFCURVE",
"-56 419 CURVE SMOOTH",
"-49 410 OFFCURVE",
"-40 407 OFFCURVE",
"-31 407 CURVE SMOOTH",
"-20 407 OFFCURVE",
"-14 412 OFFCURVE",
"-4 412 CURVE SMOOTH",
"0 412 OFFCURVE",
"3 411 OFFCURVE",
"8 410 CURVE SMOOTH",
"74 391 OFFCURVE",
"90 315 OFFCURVE",
"90 247 CURVE SMOOTH",
"90 224 OFFCURVE",
"88 201 OFFCURVE",
"87 182 CURVE SMOOTH",
"88 46 OFFCURVE",
"88 -89 OFFCURVE",
"88 -225 CURVE SMOOTH",
"88 -507 LINE SMOOTH",
"88 -523 OFFCURVE",
"87 -544 OFFCURVE",
"87 -561 CURVE SMOOTH",
"87 -580 OFFCURVE",
"88 -595 OFFCURVE",
"93 -593 CURVE SMOOTH"
);
}
);
width = 544;
}
);
note = f.fina;
},
{
glyphname = g.fina;
layers = (
{
hints = (
{
horizontal = 1;
place = "{-393, 89}";
type = Stem;
},
{
horizontal = 1;
place = "{399, 72}";
type = Stem;
},
{
place = "{6, 75}";
type = Stem;
},
{
place = "{82, 87}";
type = Stem;
},
{
place = "{379, 64}";
type = Stem;
}
);
layerId = "59B4545D-7A36-483A-A414-D3C0872518C3";
paths = (
{
closed = 1;
nodes = (
"319 -393 OFFCURVE",
"443 -212 OFFCURVE",
"443 -98 CURVE SMOOTH",
"443 -56 OFFCURVE",
"426 -19 OFFCURVE",
"381 13 CURVE SMOOTH",
"314 61 OFFCURVE",
"239 83 OFFCURVE",
"195 150 CURVE SMOOTH",
"177 177 OFFCURVE",
"169 209 OFFCURVE",
"169 241 CURVE SMOOTH",
"169 281 OFFCURVE",
"194 376 OFFCURVE",
"238 391 CURVE SMOOTH",
"257 397 OFFCURVE",
"281 399 OFFCURVE",
"305 399 CURVE SMOOTH",
"333 399 OFFCURVE",
"363 397 OFFCURVE",
"388 398 CURVE SMOOTH",
"403 398 OFFCURVE",
"412 395 OFFCURVE",
"425 395 CURVE SMOOTH",
"438 395 OFFCURVE",
"455 399 OFFCURVE",
"488 414 CURVE",
"508 420 OFFCURVE",
"519 436 OFFCURVE",
"537 447 CURVE SMOOTH",
"544 452 OFFCURVE",
"588 466 OFFCURVE",
"588 473 CURVE SMOOTH",
"588 475 OFFCURVE",
"583 477 OFFCURVE",
"568 477 CURVE SMOOTH",
"485 477 OFFCURVE",
"492 471 OFFCURVE",
"458 471 CURVE SMOOTH",
"344 472 LINE SMOOTH",
"300 473 OFFCURVE",
"254 465 OFFCURVE",
"210 465 CURVE SMOOTH",
"193 465 OFFCURVE",
"175 467 OFFCURVE",
"158 470 CURVE SMOOTH",
"151 471 OFFCURVE",
"146 472 OFFCURVE",
"139 472 CURVE SMOOTH",
"130 471 LINE SMOOTH",
"128 471 OFFCURVE",
"127 471 OFFCURVE",
"125 471 CURVE SMOOTH",
"113 471 OFFCURVE",
"103 468 OFFCURVE",
"98 468 CURVE SMOOTH",
"97 468 OFFCURVE",
"96 468 OFFCURVE",
"96 469 CURVE SMOOTH",
"96 470 OFFCURVE",
"98 472 OFFCURVE",
"101 476 CURVE SMOOTH",
"143 522 LINE SMOOTH",
"155 535 OFFCURVE",
"172 545 OFFCURVE",
"185 558 CURVE SMOOTH",
"240 612 LINE SMOOTH",
"302 669 OFFCURVE",
"275 640 OFFCURVE",
"338 705 CURVE SMOOTH",
"342 710 OFFCURVE",
"344 711 OFFCURVE",
"343 711 CURVE SMOOTH",
"341 711 OFFCURVE",
"290 667 OFFCURVE",
"266 646 CURVE SMOOTH",
"217 602 LINE SMOOTH",
"200 586 OFFCURVE",
"180 570 OFFCURVE",
"161 552 CURVE SMOOTH",
"93 491 LINE SMOOTH",
"71 472 OFFCURVE",
"56 461 OFFCURVE",
"35 442 CURVE SMOOTH",
"20 429 OFFCURVE",
"11 420 OFFCURVE",
"-2 412 CURVE SMOOTH",
"-10 406 OFFCURVE",
"-14 403 OFFCURVE",
"-14 402 CURVE SMOOTH",
"-14 400 OFFCURVE",
"-12 400 OFFCURVE",
"-7 400 CURVE SMOOTH",
"0 400 OFFCURVE",
"14 401 OFFCURVE",
"33 401 CURVE SMOOTH",
"45 401 OFFCURVE",
"60 400 OFFCURVE",
"76 399 CURVE SMOOTH",
"86 398 OFFCURVE",
"121 399 OFFCURVE",
"132 399 CURVE SMOOTH",
"191 397 LINE SMOOTH",
"209 396 OFFCURVE",
"110 256 OFFCURVE",
"102 240 CURVE SMOOTH",
"88 211 OFFCURVE",
"82 189 OFFCURVE",
"82 168 CURVE SMOOTH",
"82 145 OFFCURVE",
"90 124 OFFCURVE",
"103 102 CURVE SMOOTH",
"121 73 OFFCURVE",
"136 50 OFFCURVE",
"136 29 CURVE SMOOTH",
"136 12 OFFCURVE",
"127 -4 OFFCURVE",
"106 -22 CURVE SMOOTH",
"83 -42 OFFCURVE",
"68 -70 OFFCURVE",
"51 -95 CURVE SMOOTH",
"30 -126 OFFCURVE",
"6 -182 OFFCURVE",
"6 -221 CURVE SMOOTH",
"6 -282 OFFCURVE",
"63 -325 OFFCURVE",
"114 -362 CURVE SMOOTH",
"144 -384 OFFCURVE",
"173 -393 OFFCURVE",
"202 -393 CURVE SMOOTH"
);
},
{
closed = 1;
nodes = (
"147 -304 OFFCURVE",
"81 -231 OFFCURVE",
"81 -157 CURVE SMOOTH",
"81 -145 OFFCURVE",
"82 -133 OFFCURVE",
"85 -120 CURVE SMOOTH",
"96 -72 OFFCURVE",
"123 -53 OFFCURVE",
"158 -13 CURVE SMOOTH",
"169 0 OFFCURVE",
"170 8 OFFCURVE",
"182 8 CURVE SMOOTH",
"213 8 OFFCURVE",
"228 -3 OFFCURVE",
"247 -20 CURVE",
"280 -45 LINE SMOOTH",
"315 -72 OFFCURVE",
"379 -113 OFFCURVE",
"379 -164 CURVE SMOOTH",
"379 -211 OFFCURVE",
"309 -269 OFFCURVE",
"271 -291 CURVE SMOOTH",
"256 -300 OFFCURVE",
"239 -304 OFFCURVE",
"222 -304 CURVE SMOOTH"
);
}
);
width = 461;
}
);
note = g.fina;
},
